<?xml version="1.0" encoding="UTF-8"?>
<svg xmlns="http://www.w3.org/2000/svg" xmlns:xlink="http://www.w3.org/1999/xlink" width="250px" height="200px" viewBox="0 0 200 200" version="1.1">
<g id="surface1">
<path style=" stroke:none;fill-rule:nonzero;fill:rgb(100%,100%,100%);fill-opacity:1;" d="M 187.5 100 C 187.5 148.324219 148.324219 187.5 100 187.5 C 51.675781 187.5 12.5 148.324219 12.5 100 C 12.5 51.675781 51.675781 12.5 100 12.5 C 148.324219 12.5 187.5 51.675781 187.5 100 Z M 187.5 100 "/>
<path style=" stroke:none;fill-rule:nonzero;fill:rgb(10.980392%,11.372549%,12.54902%);fill-opacity:1;" d="M 112.242188 83.347656 C 113.472656 83.347656 114.46875 84.34375 114.46875 85.570312 L 114.46875 162.253906 L 124.464844 152.246094 L 134.464844 162.253906 L 134.464844 85.570312 C 134.464844 73.296875 124.515625 63.34375 112.238281 63.34375 L 48.894531 63.34375 L 38.898438 73.34375 L 48.894531 83.347656 L 112.242188 83.347656 "/>
<path style=" stroke:none;fill-rule:nonzero;fill:rgb(89.411765%,7.843137%,3.137255%);fill-opacity:1;" d="M 100.0625 0 C 44.820312 0 0 44.828125 0 100.0625 C 0 155.304688 44.820312 200 100.0625 200 C 155.304688 200 200 155.304688 200 100.0625 C 200 44.828125 155.304688 0 100.0625 0 Z M 100.0625 26.640625 C 140.574219 26.640625 173.359375 59.558594 173.359375 100.0625 C 173.359375 117.101562 167.492188 132.71875 157.765625 145.160156 L 52.890625 43.792969 C 65.660156 33.070312 82.109375 26.640625 100.0625 26.640625 Z M 42.105469 55.101562 L 146.980469 156.335938 C 134.269531 166.925781 117.921875 173.359375 100.0625 173.359375 C 59.550781 173.359375 26.640625 140.574219 26.640625 100.0625 C 26.640625 83.117188 32.4375 67.535156 42.105469 55.101562 Z M 42.105469 55.101562 "/>
</g>
</svg>
