<?xml version="1.0" encoding="UTF-8"?>
<svg xmlns="http://www.w3.org/2000/svg" xmlns:xlink="http://www.w3.org/1999/xlink" width="250px" height="200px" viewBox="0 0 200 200" version="1.1">
<g id="surface1">
<path style=" stroke:none;fill-rule:nonzero;fill:rgb(100%,100%,100%);fill-opacity:1;" d="M 26.726562 100.214844 C 26.726562 59.628906 59.625 26.726562 100.210938 26.726562 C 140.804688 26.726562 173.707031 59.628906 173.707031 100.214844 C 173.707031 140.808594 140.808594 173.703125 100.210938 173.703125 C 59.625 173.703125 26.726562 140.808594 26.726562 100.214844 "/>
<path style=" stroke:none;fill-rule:nonzero;fill:rgb(10.980392%,11.372549%,12.54902%);fill-opacity:1;" d="M 83.511719 85.738281 C 83.511719 76.511719 90.992188 69.035156 100.214844 69.035156 C 109.441406 69.035156 116.925781 76.511719 116.925781 85.738281 L 116.925781 151.4375 L 126.941406 141.417969 L 136.960938 151.4375 L 136.960938 85.738281 C 136.960938 65.449219 120.507812 48.992188 100.214844 48.992188 C 79.925781 48.992188 63.476562 65.449219 63.476562 85.738281 L 63.476562 141.414062 L 73.492188 151.433594 L 83.511719 141.414062 L 83.511719 85.738281 "/>
<path style=" stroke:none;fill-rule:nonzero;fill:rgb(89.411765%,7.843137%,3.137255%);fill-opacity:1;" d="M 100.257812 0 C 44.917969 0 0 44.917969 0 100.257812 C 0 155.609375 44.917969 200.390625 100.257812 200.390625 C 155.609375 200.390625 200.390625 155.609375 200.390625 100.257812 C 200.390625 44.917969 155.609375 0 100.257812 0 Z M 100.257812 26.691406 C 140.851562 26.691406 173.699219 59.675781 173.699219 100.257812 C 173.695312 117.328125 167.820312 132.980469 158.074219 145.441406 L 52.996094 43.878906 C 65.789062 33.132812 82.269531 26.691406 100.257812 26.691406 Z M 42.1875 55.207031 L 147.265625 156.640625 C 134.535156 167.253906 118.152344 173.699219 100.257812 173.699219 C 59.675781 173.699219 26.691406 140.851562 26.691406 100.257812 C 26.691406 83.277344 32.5 67.667969 42.1875 55.207031 Z M 42.1875 55.207031 "/>
</g>
</svg>
