<?xml version="1.0" encoding="UTF-8"?>
<svg xmlns="http://www.w3.org/2000/svg" xmlns:xlink="http://www.w3.org/1999/xlink" width="250px" height="200px" viewBox="0 0 200 200" version="1.1">
<g id="surface1">
<path style=" stroke:none;fill-rule:nonzero;fill:rgb(89.411765%,7.843137%,3.137255%);fill-opacity:1;" d="M 0 100.222656 C 0 44.875 44.875 0 100.214844 0 C 155.5625 0 200.4375 44.875 200.4375 100.222656 C 200.4375 155.570312 155.5625 200.4375 100.214844 200.4375 C 44.875 200.433594 0 155.570312 0 100.222656 "/>
<path style=" stroke:none;fill-rule:nonzero;fill:rgb(9.803922%,25.098039%,54.509804%);fill-opacity:1;" d="M 26.730469 100.222656 C 26.730469 59.636719 59.628906 26.734375 100.214844 26.734375 C 140.808594 26.734375 173.710938 59.632812 173.710938 100.222656 C 173.710938 140.8125 140.8125 173.710938 100.214844 173.710938 C 59.628906 173.707031 26.730469 140.8125 26.730469 100.222656 "/>
<path style="fill:none;stroke-width:2.726;stroke-linecap:butt;stroke-linejoin:miter;stroke:rgb(100%,100%,100%);stroke-opacity:1;stroke-miterlimit:3.864;" d="M 24.050625 38.40375 L 24.050625 9.703125 " transform="matrix(4.166667,0,0,4.166667,0,0)"/>
<path style=" stroke:none;fill-rule:nonzero;fill:rgb(89.411765%,7.843137%,3.137255%);fill-opacity:1;" d="M 35.574219 46.75 L 46.597656 35.730469 L 164.722656 153.808594 L 153.699219 164.835938 L 35.574219 46.75 "/>
</g>
</svg>
