<?xml version="1.0" encoding="UTF-8"?>
<svg xmlns="http://www.w3.org/2000/svg" xmlns:xlink="http://www.w3.org/1999/xlink" width="250px" height="200px" viewBox="0 0 200 200" version="1.1">
<g id="surface1">
<path style=" stroke:none;fill-rule:nonzero;fill:rgb(89.411765%,7.843137%,3.137255%);fill-opacity:1;" d="M 0 100.207031 C 0 44.867188 44.867188 0 100.214844 0 C 155.5625 0 200.429688 44.867188 200.429688 100.207031 C 200.429688 155.554688 155.5625 200.425781 100.214844 200.425781 C 44.867188 200.425781 0 155.554688 0 100.207031 "/>
<path style=" stroke:none;fill-rule:nonzero;fill:rgb(100%,100%,100%);fill-opacity:1;" d="M 26.722656 100.207031 C 26.722656 59.625 59.621094 26.714844 100.214844 26.714844 C 140.804688 26.714844 173.707031 59.625 173.707031 100.207031 C 173.707031 140.800781 140.808594 173.699219 100.214844 173.699219 C 59.625 173.699219 26.722656 140.800781 26.722656 100.207031 "/>
<path style=" stroke:none;fill-rule:nonzero;fill:rgb(10.980392%,11.372549%,12.54902%);fill-opacity:1;" d="M 46.765625 110.238281 C 46.765625 99.777344 55.242188 91.308594 65.695312 91.308594 C 76.152344 91.308594 84.628906 99.785156 84.628906 110.238281 C 84.628906 120.6875 76.152344 129.160156 65.695312 129.160156 C 55.242188 129.160156 46.765625 120.683594 46.765625 110.238281 "/>
<path style=" stroke:none;fill-rule:nonzero;fill:rgb(10.980392%,11.372549%,12.54902%);fill-opacity:1;" d="M 83.707031 57.707031 L 85.183594 57.707031 L 91.863281 56.820312 L 91.960938 63.605469 L 84.789062 69 L 85.765625 73.023438 L 102.953125 60.457031 L 103.054688 54.367188 C 103.054688 54.367188 101.675781 47.105469 93.039062 47.105469 C 93.039062 47.003906 84.492188 46.804688 83.609375 54.5625 C 83.507812 54.664062 83.707031 57.707031 83.707031 57.707031 "/>
<path style=" stroke:none;fill-rule:nonzero;fill:rgb(10.980392%,11.372549%,12.54902%);fill-opacity:1;" d="M 115.804688 110.238281 C 115.804688 99.777344 124.277344 91.308594 134.734375 91.308594 C 145.1875 91.308594 153.664062 99.785156 153.664062 110.238281 C 153.664062 120.6875 145.1875 129.160156 134.734375 129.160156 C 124.277344 129.160156 115.804688 120.683594 115.804688 110.238281 "/>
<path style=" stroke:none;fill-rule:nonzero;fill:rgb(10.980392%,11.372549%,12.54902%);fill-opacity:1;" d="M 82.921875 77.449219 L 73.105469 77.449219 C 73.105469 77.449219 69.074219 76.957031 69.074219 81.570312 C 69.074219 81.570312 68.679688 85.890625 72.609375 85.890625 L 86.851562 85.890625 L 94.707031 80.101562 C 94.707031 80.101562 95.390625 79.511719 96.375 80.195312 L 104.132812 85.792969 C 104.132812 85.792969 105.414062 86.777344 103.933594 87.367188 C 103.933594 87.269531 90.777344 93.257812 90.777344 93.257812 C 90.777344 93.257812 86.355469 95.125 88.8125 99.738281 L 100.992188 121.441406 C 100.992188 121.441406 103.644531 124.484375 106.6875 122.226562 C 106.777344 122.132812 110.421875 120.066406 108.453125 116.339844 C 108.359375 116.339844 100.695312 101.703125 100.695312 101.703125 C 100.695312 101.703125 99.320312 99.542969 101.578125 98.460938 C 101.675781 98.367188 120.136719 90.214844 120.136719 90.214844 C 120.136719 90.214844 123.183594 87.664062 120.433594 84.027344 C 120.332031 83.929688 106.390625 64.878906 106.390625 64.878906 C 106.390625 64.878906 104.132812 62.128906 100.304688 64.484375 C 100.203125 64.484375 82.921875 77.449219 82.921875 77.449219 "/>
<path style=" stroke:none;fill-rule:nonzero;fill:rgb(100%,100%,100%);fill-opacity:1;" d="M 52.332031 110.238281 C 52.332031 102.859375 58.320312 96.871094 65.695312 96.871094 C 73.078125 96.871094 79.058594 102.855469 79.058594 110.238281 C 79.058594 117.617188 73.078125 123.601562 65.695312 123.601562 C 58.316406 123.601562 52.332031 117.613281 52.332031 110.238281 "/>
<path style=" stroke:none;fill-rule:nonzero;fill:rgb(100%,100%,100%);fill-opacity:1;" d="M 121.371094 110.238281 C 121.371094 102.859375 127.359375 96.871094 134.734375 96.871094 C 142.113281 96.871094 148.089844 102.855469 148.089844 110.238281 C 148.089844 117.617188 142.113281 123.601562 134.734375 123.601562 C 127.355469 123.601562 121.371094 117.613281 121.371094 110.238281 "/>
</g>
</svg>
