<?xml version="1.0" encoding="UTF-8"?>
<svg xmlns="http://www.w3.org/2000/svg" xmlns:xlink="http://www.w3.org/1999/xlink" width="250px" height="200px" viewBox="0 0 200 200" version="1.1">
<g id="surface1">
<path style=" stroke:none;fill-rule:nonzero;fill:rgb(89.411765%,7.843137%,3.137255%);fill-opacity:1;" d="M 0 100.210938 C 0 44.867188 44.871094 0 100.214844 0 C 155.566406 0 200.433594 44.867188 200.433594 100.210938 C 200.433594 155.5625 155.566406 200.425781 100.214844 200.425781 C 44.871094 200.425781 0 155.5625 0 100.210938 "/>
<path style=" stroke:none;fill-rule:nonzero;fill:rgb(100%,100%,100%);fill-opacity:1;" d="M 26.726562 100.210938 C 26.726562 59.625 59.628906 26.722656 100.214844 26.722656 C 140.804688 26.722656 173.707031 59.625 173.707031 100.210938 C 173.707031 140.800781 140.808594 173.703125 100.214844 173.703125 C 59.625 173.703125 26.726562 140.800781 26.726562 100.210938 "/>
<path style=" stroke:none;fill-rule:nonzero;fill:rgb(10.980392%,11.372549%,12.54902%);fill-opacity:1;" d="M 89.699219 50.636719 C 89.699219 45.375 93.960938 41.113281 99.226562 41.113281 C 104.488281 41.113281 108.75 45.375 108.75 50.636719 C 108.75 55.902344 104.488281 60.160156 99.226562 60.160156 C 93.960938 60.160156 89.699219 55.902344 89.699219 50.636719 "/>
<path style=" stroke:none;fill-rule:nonzero;fill:rgb(10.980392%,11.372549%,12.54902%);fill-opacity:1;" d="M 94.902344 68.121094 L 106.101562 62.621094 C 106.101562 62.621094 109.148438 60.359375 111.703125 63.214844 C 111.796875 63.214844 129.769531 82.949219 129.769531 82.949219 C 129.769531 82.949219 131.339844 83.835938 130.949219 86.875 C 131.042969 86.976562 129.769531 96.894531 129.769531 96.894531 C 129.769531 96.894531 129.769531 98.367188 128.6875 99.351562 C 128.597656 99.351562 128.003906 101.019531 123.578125 103.082031 C 123.675781 103.082031 120.242188 104.753906 120.632812 101.613281 C 120.632812 101.417969 121.617188 88.847656 121.617188 88.847656 L 113.171875 80.601562 L 110.917969 103.773438 L 116.214844 126.066406 L 126.921875 143.160156 C 126.921875 143.160156 133.105469 152.097656 124.5625 156.808594 L 112.382812 140.605469 L 107.082031 131.769531 L 99.816406 115.066406 C 99.816406 115.066406 99.226562 114.378906 98.4375 115.066406 L 88.128906 125.476562 L 84.296875 142.664062 C 84.296875 142.664062 84.101562 151.207031 72.214844 150.125 C 72.023438 150.226562 78.898438 119.878906 78.898438 119.878906 L 91.664062 102.007812 L 91.957031 86.386719 L 74.769531 101.027344 C 74.769531 101.027344 70.253906 103.878906 66.722656 101.425781 C 66.816406 101.425781 63.675781 100.933594 66.523438 97.980469 C 66.621094 97.972656 94.902344 68.121094 94.902344 68.121094 "/>
</g>
</svg>
