<?xml version="1.0" encoding="UTF-8"?>
<svg xmlns="http://www.w3.org/2000/svg" xmlns:xlink="http://www.w3.org/1999/xlink" width="250px" height="200px" viewBox="0 0 202 200" version="1.1">
<g id="surface1">
<path style="fill-rule:nonzero;fill:rgb(100%,100%,100%);fill-opacity:1;stroke-width:1;stroke-linecap:round;stroke-linejoin:round;stroke:rgb(0%,0%,100%);stroke-opacity:1;stroke-miterlimit:4;" d="M 735.386854 381.012496 C 735.386854 547.831491 600.162363 683.058068 433.355915 683.058068 C 266.549467 683.058068 131.324976 547.831491 131.324976 381.012496 C 131.324976 214.205487 266.549467 78.97891 433.355915 78.97891 C 600.162363 78.97891 735.386854 214.205487 735.386854 381.012496 Z M 735.386854 381.012496 " transform="matrix(0.325789,0,0,0.325929,-39.753017,-23.257116)"/>
<path style=" stroke:none;fill-rule:nonzero;fill:rgb(3.529412%,17.647059%,47.058824%);fill-opacity:1;" d="M -0.570312 199.726562 C -0.351562 199.507812 0.222656 199.484375 0.699219 199.675781 C 1.230469 199.886719 1.070312 200.042969 0.300781 200.074219 C -0.398438 200.105469 -0.789062 199.945312 -0.570312 199.726562 Z M 87.109375 199.160156 C 79.597656 197.890625 75.929688 197.015625 69.871094 195.039062 C 34.277344 183.433594 7.367188 151.429688 2.460938 114.867188 C 1.996094 111.410156 1.429688 108.582031 1.203125 108.582031 C 0.972656 108.582031 1.6875 102.164062 1.320312 104.628906 C 0.773438 108.292969 1.550781 114.347656 1.53125 99.957031 C 1.519531 89.046875 0.976562 89.140625 1.457031 90.75 C 3.863281 98.835938 2.023438 91.964844 2.042969 93.152344 C 2.109375 96.839844 1.707031 92.203125 2.199219 87.851562 C 4.546875 67.003906 14.773438 46.429688 30.667969 30.582031 C 42.699219 18.585938 54.1875 11.5 70.265625 6.144531 C 112.621094 -7.960938 159.582031 8.941406 184.382812 47.21875 C 188.859375 54.128906 191.832031 60.394531 194.96875 69.535156 C 197.738281 77.617188 199.585938 83.898438 199.726562 93.707031 C 199.847656 102.527344 198.597656 105.726562 198.113281 95.308594 C 196.785156 66.859375 180.03125 37.871094 157.398438 21.738281 C 127.832031 0.667969 89.230469 -2.375 57.269531 13.851562 C 37.722656 23.777344 23.734375 37.679688 14.183594 56.691406 C 7.746094 69.503906 4.949219 79.671875 3.964844 93.820312 C 2.707031 111.898438 5.953125 128.1875 13.980469 144.070312 C 24.125 164.148438 38.542969 178.433594 58.296875 187.980469 C 70.253906 193.761719 80.734375 196.53125 93.933594 197.390625 C 115.824219 198.820312 135.890625 193.609375 154.191406 181.742188 C 179.199219 165.527344 195.9375 135.507812 198.128906 105.175781 C 198.617188 98.386719 201.726562 92.566406 200.03125 106.175781 L 198.394531 119.292969 L 195.054688 131.542969 C 190.585938 147.9375 182.664062 158.734375 170.75 170.597656 C 155.992188 185.292969 139.914062 194 119.8125 198.179688 C 111.136719 199.984375 94.863281 200.472656 87.109375 199.160156 Z M 92.414062 192.394531 C 64.191406 189.007812 40.539062 175.1875 25.222656 153.140625 C 21.316406 147.515625 15.363281 135.691406 13.261719 129.394531 C 8.101562 113.910156 7.363281 96.03125 11.207031 79.570312 C 18.902344 46.59375 44.511719 20.28125 77.21875 11.738281 C 86.625 9.28125 97.257812 8.128906 105.347656 8.695312 C 148.886719 11.738281 182.917969 41.734375 191.304688 84.449219 C 192.84375 92.292969 192.863281 107.984375 191.339844 116.359375 C 184.097656 156.21875 152.390625 186.589844 112.53125 191.851562 C 105.6875 192.753906 97.300781 192.980469 92.414062 192.394531 Z M 66.664062 143.0625 C 71.402344 140.738281 74.339844 137.664062 76.765625 132.492188 C 78.210938 129.40625 78.484375 127.90625 78.457031 123.175781 C 78.433594 118.421875 78.15625 117.015625 76.691406 114.21875 C 66.046875 93.851562 36.472656 99.738281 35.207031 122.476562 C 34.988281 126.429688 35.21875 128.257812 36.304688 131.136719 C 40.976562 143.503906 54.734375 148.910156 66.664062 143.0625 Z M 53.773438 137.695312 C 45.40625 136.148438 40.476562 127.175781 43.308594 118.648438 C 46.046875 110.390625 55.972656 106.742188 63.882812 111.082031 C 78.386719 119.046875 70.15625 140.71875 53.773438 137.695312 Z M 153.773438 143.914062 C 163.90625 138.929688 168.929688 126.683594 165.054688 116.40625 C 163.191406 111.464844 158.839844 106.695312 153.980469 104.265625 C 150.609375 102.578125 149.371094 102.328125 144.46875 102.328125 C 139.578125 102.328125 138.324219 102.582031 134.992188 104.246094 C 130.515625 106.488281 126.375 110.710938 124.355469 115.097656 C 122.191406 119.804688 122.320312 128.210938 124.636719 133.125 C 126.785156 137.6875 130.378906 141.214844 135.515625 143.8125 C 139.175781 145.660156 139.949219 145.804688 145.132812 145.605469 C 149.292969 145.449219 151.554688 145.003906 153.773438 143.914062 Z M 139.496094 137.554688 C 134.5625 135.621094 131.132812 131.488281 130.191406 126.34375 C 128.890625 119.21875 134.207031 111.417969 141.386719 109.929688 C 148.019531 108.550781 154.398438 111.53125 157.585938 117.496094 C 158.261719 118.761719 158.679688 121.171875 158.695312 123.886719 C 158.722656 127.597656 158.425781 128.738281 156.734375 131.515625 C 153.277344 137.183594 145.503906 139.90625 139.496094 137.554688 Z M 109.9375 136.714844 C 113.15625 134.003906 112.746094 132.3125 106.207031 121.386719 C 100.96875 112.636719 100.542969 111.667969 101.566406 110.914062 C 102.191406 110.460938 107.601562 108.035156 113.589844 105.523438 C 129.917969 98.679688 129.988281 98.285156 117.582031 82.378906 C 113.03125 76.539062 108.679688 71.242188 107.914062 70.601562 C 107 69.839844 105.359375 69.433594 103.117188 69.414062 L 99.710938 69.386719 L 101.863281 67.542969 C 103.804688 65.878906 104.019531 65.339844 104.015625 62.09375 C 104.007812 51.425781 90.84375 46.25 82.453125 53.625 C 79.988281 55.789062 78.488281 59.386719 79.167969 61.519531 C 79.578125 62.824219 79.914062 62.878906 84.519531 62.449219 L 89.429688 61.988281 L 89.429688 69.25 L 85.476562 72.023438 C 83.300781 73.550781 81.347656 75.082031 81.132812 75.425781 C 80.582031 76.320312 81.5 80.71875 82.242188 80.71875 C 82.582031 80.71875 85.148438 79.152344 87.945312 77.234375 C 94.179688 72.96875 94.734375 72.617188 94.734375 72.976562 C 94.734375 73.132812 91.230469 75.90625 86.945312 79.140625 L 79.152344 85.019531 L 71.5625 85.441406 C 64.402344 85.839844 63.886719 85.960938 62.445312 87.640625 C 60.339844 90.089844 60.503906 92.191406 62.957031 94.257812 C 64.9375 95.925781 65.273438 95.976562 74.144531 95.976562 L 83.289062 95.976562 L 88.769531 92.328125 C 91.78125 90.320312 94.421875 88.679688 94.632812 88.679688 C 95.78125 88.679688 104.625 95.117188 104.5 95.863281 C 104.417969 96.351562 100.769531 98.21875 96.394531 100.015625 C 87.433594 103.699219 84.371094 106.15625 85.105469 109.082031 C 85.753906 111.671875 100.660156 136.335938 102.246094 137.449219 C 104.421875 138.972656 107.617188 138.667969 109.9375 136.714844 Z M 109.9375 136.714844 "/>
</g>
</svg>
