<?xml version="1.0" encoding="UTF-8" standalone="no"?>
<!-- Created with Inkscape (http://www.inkscape.org/) -->

<svg
   xmlns:dc="http://purl.org/dc/elements/1.1/"
   xmlns:cc="http://creativecommons.org/ns#"
   xmlns:rdf="http://www.w3.org/1999/02/22-rdf-syntax-ns#"
   xmlns:svg="http://www.w3.org/2000/svg"
   xmlns="http://www.w3.org/2000/svg"
   xmlns:sodipodi="http://sodipodi.sourceforge.net/DTD/sodipodi-0.dtd"
   xmlns:inkscape="http://www.inkscape.org/namespaces/inkscape"
   width="678.02466"
   height="670.93048"
   id="svg2"
   version="1.1"
   inkscape:version="0.48.0 r9654"
   sodipodi:docname="señal r405 motocicletas.svg">
  <defs
     id="defs4" />
  <sodipodi:namedview
     id="base"
     pagecolor="#ffffff"
     bordercolor="#666666"
     borderopacity="1.0"
     inkscape:pageopacity="0.0"
     inkscape:pageshadow="2"
     inkscape:zoom="0.49497475"
     inkscape:cx="488.83964"
     inkscape:cy="281.0685"
     inkscape:document-units="px"
     inkscape:current-layer="layer1"
     showgrid="false"
     fit-margin-top="0"
     fit-margin-left="0"
     fit-margin-right="0"
     fit-margin-bottom="0"
     inkscape:window-width="1280"
     inkscape:window-height="750"
     inkscape:window-x="-8"
     inkscape:window-y="-8"
     inkscape:window-maximized="1" />
  <metadata
     id="metadata7">
    <rdf:RDF>
      <cc:Work
         rdf:about="">
        <dc:format>image/svg+xml</dc:format>
        <dc:type
           rdf:resource="http://purl.org/dc/dcmitype/StillImage" />
        <dc:title></dc:title>
      </cc:Work>
    </rdf:RDF>
  </metadata>
  <g
     inkscape:label="Capa 1"
     inkscape:groupmode="layer"
     id="layer1"
     transform="translate(-24.684594,-76.980789)">
    <path
       sodipodi:type="arc"
       style="fill:#ffffff;fill-opacity:1;fill-rule:nonzero;stroke:#0000ff;stroke-width:1;stroke-linecap:round;stroke-linejoin:round;stroke-miterlimit:4;stroke-opacity:1;stroke-dasharray:none;stroke-dashoffset:0"
       id="path3793"
       sodipodi:cx="433.35544"
       sodipodi:cy="381.01669"
       sodipodi:rx="302.03561"
       sodipodi:ry="302.03561"
       d="m 735.39105,381.01669 a 302.03561,302.03561 0 1 1 -604.07123,0 302.03561,302.03561 0 1 1 604.07123,0 z"
       transform="matrix(1.0934907,0,0,1.0934907,-108.74385,-1.0468364)" />
    <path
       inkscape:connector-curvature="0"
       id="path3855"
       d="m 26.813852,751.09647 c 0.74404,-0.74403 2.67528,-0.82357 4.29165,-0.17675 1.78622,0.71477 1.25564,1.24535 -1.35281,1.35278 -2.3604,0.0972 -3.68288,-0.43199 -2.93884,-1.17603 z m 296.077088,-1.90611 c -79.235,-13.38979 -136.7181,-42.4563 -190.36957,-96.26085 -39.850138,-39.96387 -66.068908,-81.8343 -82.572618,-131.86548 -6.60999,-20.03824 -14.78485,-58.75293 -14.78485,-70.01841 0,-12.93283 2.404565,-23.52372 0.03374,-7.63319 -1.84584,12.37177 -1.764363,19.5003 -1.829563,-29.07034 -0.0494,-36.81788 0.118333,-34.21934 1.267843,-28.66193 1.01892,4.92606 -0.109655,-8.98201 -0.03869,-4.97958 0.22077,12.44991 -0.09122,7.47705 1.56542,-7.22244 7.9295,-70.35918 42.47035,-139.80355 96.141918,-193.29331 39.36607,-39.23272 77.09827,-62.90192 129.59627,-81.295042 113.4752,-39.757045 245.0478,-11.589433 333.693,71.438382 44.3595,41.54851 71.4121,83.28947 91.4514,141.10535 9.5958,27.68516 13.95841,51.72573 14.36601,85.05627 0.3673,30.04846 -3.35602,24.43888 -5.01422,7.41142 -9.369,-96.20797 -60.62099,-200.30066 -138.39849,-255.25926 -81.0299,-57.256777 -185.4206,-74.426503 -282.6571,-46.49019 -22.9199,6.58498 -67.8973,27.69167 -88.2537,41.41513 -49.73611,33.53011 -84.8869,73.5097 -111.208988,126.48618 -21.20643,42.6806 -30.72352,77.71533 -33.76,124.2788 -4.00852,61.46941 6.80497,115.46171 33.82936,168.91173 34.023758,67.2937 80.214928,113.42292 146.683528,146.4868 42.0255,20.90501 77.4782,30.49689 123.9119,33.52492 61.0565,3.98158 116.3613,-6.99255 168.1489,-33.36576 47.0812,-23.97641 74.462,-45.66568 107.3937,-85.07015 42.6925,-51.08383 69.66594,-117.47382 73.5689,-185.44173 2.54179,-44.26376 8.99517,-41.75542 5.71081,-2.27955 l -4.72011,56.73274 -9.2471,27.12085 c -18.484,54.21175 -41.6599,91.45282 -81.9888,131.74658 -51.308,51.26332 -104.9075,79.7798 -177.2803,94.31814 -24.2892,4.87924 -82.1561,6.0746 -105.2386,2.17392 z m 16.7934,-22.92737 C 245.82254,716.21111 159.85694,664.38716 109.89153,587.7334 62.134392,514.46747 46.955312,429.57843 66.582652,345.52829 95.044892,223.64446 193.74214,131.56649 319.53224,109.54308 c 24.2559,-4.24675 79.471,-3.66101 103.7743,1.10087 129.6981,25.41245 225.9431,121.63418 251.4216,251.36093 5.254,26.75129 5.2618,79.41702 0.016,108.31522 -24.2524,133.60214 -131.5919,236.43451 -265.3911,254.24734 -22.147,2.94845 -51.3361,3.65884 -69.6687,1.69555 z M 245.19264,507.4655 c 8.3795,-4.37769 17.3916,-14.58474 19.9462,-22.59112 l 2.1433,-6.71736 41.2391,-0.71567 c 22.6815,-0.39363 67.6568,-0.0284 99.9451,0.81162 57.3642,1.49239 58.7398,1.63671 60.1902,6.31349 6.706,21.62401 35.1935,32.64333 56.4042,21.81783 10.262,-5.2375 14.9735,-10.32366 19.4189,-20.96316 l 3.4454,-8.24585 27.4279,-0.6287 27.428,-0.62868 1.1196,-67.17361 c 0.6157,-36.94549 0.6157,-71.20404 0,-76.1301 l -1.1196,-8.95648 -157.6773,-0.57501 c -153.0705,-0.55821 -157.7946,-0.44923 -161.688,3.72982 -3.5035,3.76051 -6.6841,4.2243 -25.1543,3.66779 -11.629,-0.3504 -22.3316,0.0972 -23.7834,0.99435 -1.4518,0.89728 -5.8913,14.61959 -9.8655,30.49404 l -7.2259,28.86262 -26.7366,1.14305 c -38.3073,1.63772 -43.53,6.29269 -43.53,38.79809 l 0,19.09811 -6.15759,0.7085 c -5.67059,0.65246 -6.21267,1.57681 -6.85406,11.68747 -0.46101,7.26716 0.296,11.60839 2.23912,12.84067 1.61457,1.02392 14.63803,1.87712 28.94103,1.89597 l 26.0055,0.0343 3.781,9.90036 c 3.4532,9.04218 12.9092,18.75553 21.4577,22.04175 6.4445,2.47738 22.6594,1.62076 28.66,-1.51407 z m 5.5943,-117.00486 c -0.6822,-1.77778 0.6519,-10.48249 2.9646,-19.34379 l 4.2049,-16.11146 14.5542,0 14.5543,0 0.6621,16.44075 c 0.4092,10.16218 -0.3332,17.63992 -1.944,19.58086 -3.6905,4.44671 -33.256,3.96824 -34.9961,-0.56636 z"
       style="fill:#092d78;fill-opacity:1"
       sodipodi:nodetypes="ssssssssssssssssssssssssssssssscssssssssssssscscssssccccsccssscscsscsssscssccsscccscs" />
  </g>
</svg>
