<?xml version="1.0" encoding="UTF-8"?>
<svg xmlns="http://www.w3.org/2000/svg" xmlns:xlink="http://www.w3.org/1999/xlink" width="250px" height="200px" viewBox="0 0 202 200" version="1.1">
<g id="surface1">
<path style="fill-rule:nonzero;fill:rgb(100%,100%,100%);fill-opacity:1;stroke-width:1;stroke-linecap:round;stroke-linejoin:round;stroke:rgb(0%,0%,100%);stroke-opacity:1;stroke-miterlimit:4;" d="M 735.386854 381.012496 C 735.386854 547.831491 600.162363 683.058068 433.355915 683.058068 C 266.549467 683.058068 131.324976 547.831491 131.324976 381.012496 C 131.324976 214.205487 266.549467 78.97891 433.355915 78.97891 C 600.162363 78.97891 735.386854 214.205487 735.386854 381.012496 Z M 735.386854 381.012496 " transform="matrix(0.325789,0,0,0.325929,-39.753017,-23.257116)"/>
<path style=" stroke:none;fill-rule:nonzero;fill:rgb(3.529412%,17.647059%,47.058824%);fill-opacity:1;" d="M 0.632812 200.929688 C 0.855469 200.707031 1.429688 200.683594 1.914062 200.875 C 2.445312 201.089844 2.289062 201.246094 1.511719 201.277344 C 0.808594 201.308594 0.414062 201.152344 0.632812 200.929688 Z M 88.847656 200.359375 C 65.238281 196.371094 48.113281 187.707031 32.128906 171.667969 C 20.253906 159.757812 12.445312 147.277344 7.527344 132.363281 C 5.558594 126.390625 3.121094 114.851562 3.121094 111.496094 C 3.121094 107.640625 3.839844 104.484375 3.132812 109.21875 C 2.582031 112.90625 2.605469 115.03125 2.585938 100.554688 C 2.574219 89.582031 2.621094 90.355469 2.964844 92.011719 C 3.269531 93.480469 2.933594 89.335938 2.953125 90.527344 C 3.019531 94.238281 2.925781 92.757812 3.417969 88.375 C 5.78125 67.402344 16.074219 46.703125 32.0625 30.761719 C 43.792969 19.066406 55.035156 12.011719 70.675781 6.53125 C 104.484375 -5.320312 143.683594 3.074219 170.09375 27.824219 C 183.308594 40.207031 191.371094 52.648438 197.339844 69.882812 C 200.199219 78.132812 201.5 85.300781 201.621094 95.234375 C 201.730469 104.191406 200.621094 102.519531 200.125 97.441406 C 197.335938 68.765625 182.066406 37.742188 158.894531 21.359375 C 134.75 4.292969 103.648438 -0.824219 74.679688 7.503906 C 67.851562 9.464844 54.449219 15.757812 48.386719 19.847656 C 33.566406 29.839844 23.09375 41.757812 15.253906 57.546875 C 8.933594 70.269531 6.097656 80.710938 5.195312 94.589844 C 4 112.914062 7.222656 129.003906 15.273438 144.9375 C 25.410156 164.996094 39.171875 178.742188 58.976562 188.597656 C 71.496094 194.828125 82.058594 197.6875 95.894531 198.589844 C 114.082031 199.777344 130.5625 196.507812 145.992188 188.644531 C 160.019531 181.5 168.175781 175.035156 177.988281 163.289062 C 190.707031 148.0625 198.742188 128.277344 199.90625 108.015625 C 200.664062 94.824219 202.585938 95.570312 201.605469 107.335938 L 200.199219 124.246094 L 197.445312 132.332031 C 191.9375 148.488281 185.035156 159.589844 173.019531 171.601562 C 157.730469 186.878906 141.761719 195.378906 120.199219 199.710938 C 112.964844 201.167969 95.722656 201.523438 88.847656 200.359375 Z M 93.847656 193.527344 C 65.882812 190.53125 40.273438 175.082031 25.386719 152.234375 C 11.15625 130.398438 6.636719 105.097656 12.484375 80.042969 C 20.960938 43.714844 50.367188 16.269531 87.84375 9.707031 C 95.070312 8.441406 111.523438 8.613281 118.761719 10.035156 C 157.40625 17.609375 186.078125 46.289062 193.671875 84.953125 C 195.234375 92.929688 195.238281 108.625 193.675781 117.238281 C 186.449219 157.0625 154.46875 187.710938 114.605469 193.019531 C 108.007812 193.898438 99.3125 194.113281 93.847656 193.527344 Z M 65.695312 128.3125 C 68.195312 127.007812 70.878906 123.964844 71.640625 121.578125 L 72.277344 119.574219 L 84.566406 119.363281 C 91.324219 119.246094 104.722656 119.355469 114.34375 119.605469 C 131.433594 120.050781 131.84375 120.09375 132.273438 121.484375 C 134.273438 127.929688 142.761719 131.214844 149.078125 127.988281 C 152.136719 126.429688 153.539062 124.910156 154.863281 121.742188 L 155.890625 119.28125 L 164.0625 119.09375 L 172.234375 118.910156 L 172.570312 98.886719 C 172.753906 87.875 172.753906 77.664062 172.570312 76.195312 L 172.234375 73.523438 L 125.257812 73.355469 C 79.652344 73.1875 78.246094 73.21875 77.085938 74.464844 C 76.042969 75.585938 75.09375 75.722656 69.589844 75.558594 C 66.125 75.453125 62.9375 75.585938 62.503906 75.855469 C 62.070312 76.121094 60.75 80.210938 59.566406 84.945312 L 57.414062 93.546875 L 49.445312 93.886719 C 38.035156 94.375 36.476562 95.761719 36.476562 105.453125 L 36.476562 111.144531 L 34.644531 111.355469 C 32.953125 111.550781 32.792969 111.824219 32.601562 114.839844 C 32.464844 117.003906 32.6875 118.300781 33.269531 118.667969 C 33.75 118.972656 37.628906 119.226562 41.890625 119.230469 L 49.640625 119.242188 L 50.765625 122.191406 C 51.792969 124.886719 54.613281 127.78125 57.160156 128.761719 C 59.078125 129.5 63.910156 129.246094 65.695312 128.3125 Z M 67.363281 93.4375 C 67.160156 92.90625 67.558594 90.3125 68.246094 87.671875 L 69.5 82.867188 L 78.171875 82.867188 L 78.371094 87.769531 C 78.492188 90.796875 78.269531 93.027344 77.789062 93.605469 C 76.691406 94.929688 67.882812 94.789062 67.363281 93.4375 Z M 67.363281 93.4375 "/>
</g>
</svg>
