<?xml version="1.0" encoding="UTF-8"?>
<svg xmlns="http://www.w3.org/2000/svg" xmlns:xlink="http://www.w3.org/1999/xlink" width="250px" height="200px" viewBox="0 0 202 200" version="1.1">
<g id="surface1">
<path style="fill-rule:nonzero;fill:rgb(100%,100%,100%);fill-opacity:1;stroke-width:1;stroke-linecap:round;stroke-linejoin:round;stroke:rgb(0%,0%,100%);stroke-opacity:1;stroke-miterlimit:4;" d="M 735.386854 381.012496 C 735.386854 547.831491 600.162363 683.058068 433.355915 683.058068 C 266.549467 683.058068 131.324976 547.831491 131.324976 381.012496 C 131.324976 214.205487 266.549467 78.97891 433.355915 78.97891 C 600.162363 78.97891 735.386854 214.205487 735.386854 381.012496 Z M 735.386854 381.012496 " transform="matrix(0.325789,0,0,0.325929,-39.753017,-23.257116)"/>
<path style=" stroke:none;fill-rule:nonzero;fill:rgb(3.529412%,17.647059%,47.058824%);fill-opacity:1;" d="M 0.628906 199.726562 C 0.851562 199.507812 1.421875 199.484375 1.902344 199.675781 C 2.429688 199.886719 2.273438 200.042969 1.5 200.078125 C 0.800781 200.105469 0.410156 199.949219 0.628906 199.726562 Z M 88.3125 199.164062 C 80.796875 197.894531 77.132812 197.015625 71.070312 195.039062 C 35.480469 183.4375 8.566406 151.429688 3.660156 114.867188 C 3.199219 111.410156 2.632812 108.582031 2.402344 108.582031 C 2.171875 108.582031 2.6875 107.414062 2.523438 104.929688 C 2.277344 101.21875 2.300781 114.796875 2.28125 100.40625 C 2.269531 89.5 2.015625 93.921875 2.355469 95.566406 C 2.65625 97.027344 2.769531 93.019531 2.792969 94.203125 C 2.859375 97.894531 2.910156 92.203125 3.398438 87.847656 C 5.746094 67.003906 15.976562 46.429688 31.871094 30.582031 C 43.902344 18.585938 55.390625 11.496094 71.46875 6.140625 C 113.824219 -7.964844 160.785156 8.9375 185.589844 47.214844 C 190.066406 54.125 193.039062 60.394531 196.171875 69.535156 C 198.945312 77.613281 201.394531 87.660156 201.53125 97.46875 C 201.65625 106.292969 199.953125 102.714844 199.46875 96.664062 C 197.183594 68.273438 181.238281 37.871094 158.601562 21.738281 C 129.035156 0.664062 90.433594 -2.375 58.472656 13.847656 C 38.921875 23.773438 24.9375 37.679688 15.386719 56.6875 C 8.949219 69.503906 6.148438 79.667969 5.164062 93.820312 C 3.90625 111.898438 7.152344 128.1875 15.179688 144.070312 C 25.328125 164.148438 39.746094 178.433594 59.5 187.984375 C 71.457031 193.765625 81.9375 196.53125 95.136719 197.394531 C 117.027344 198.820312 137.09375 193.609375 155.394531 181.742188 C 180.40625 165.527344 196.539062 137.917969 198.730469 107.585938 C 199.222656 100.796875 202.679688 96.222656 201.234375 106.929688 L 198.996094 123.507812 L 196.261719 131.542969 C 190.78125 147.625 183.871094 158.734375 171.953125 170.597656 C 157.195312 185.296875 141.117188 194 121.015625 198.183594 C 112.339844 199.984375 96.066406 200.472656 88.3125 199.164062 Z M 93.617188 192.394531 C 65.394531 189.007812 41.742188 175.1875 26.425781 153.140625 C 22.519531 147.515625 16.5625 135.691406 14.464844 129.394531 C 9.300781 113.910156 8.566406 96.03125 12.40625 79.566406 C 20.105469 46.59375 45.710938 20.28125 78.421875 11.734375 C 87.828125 9.277344 98.460938 8.128906 106.546875 8.691406 C 150.089844 11.738281 184.121094 41.730469 192.507812 84.449219 C 194.050781 92.292969 194.066406 107.984375 192.546875 116.359375 C 185.300781 156.21875 153.59375 186.589844 113.734375 191.851562 C 106.890625 192.753906 98.503906 192.980469 93.617188 192.394531 Z M 63.925781 136.875 C 71.136719 135.363281 77.523438 129.785156 80.507812 122.390625 C 81.945312 118.832031 82.125 117.535156 81.878906 112.605469 C 81.554688 106.171875 80.121094 102.246094 76.453125 97.769531 C 74.195312 95.011719 74.171875 94.925781 75.261719 93.128906 C 75.875 92.121094 76.726562 91.378906 77.160156 91.480469 C 77.59375 91.582031 82.742188 95.773438 88.601562 100.800781 L 99.253906 109.9375 L 99.253906 112.757812 C 99.253906 116.058594 100.5 118.113281 103.421875 119.625 C 105.183594 120.535156 106.859375 120.644531 113.832031 120.289062 L 122.144531 119.867188 L 123.726562 123.316406 C 127.824219 132.257812 138.917969 138.226562 148.171875 136.472656 C 164.976562 133.285156 173.09375 113.589844 163.433594 99.4375 C 160.691406 95.417969 155.480469 91.519531 151.175781 90.269531 C 147.574219 89.222656 139.914062 89.238281 136.703125 90.300781 C 135.546875 90.683594 135.035156 90.078125 133.066406 86.011719 L 130.777344 81.273438 L 132.183594 78.839844 C 132.960938 77.5 134.148438 76.320312 134.824219 76.214844 C 139.09375 75.550781 139.042969 75.601562 139.042969 71.773438 C 139.042969 66.273438 138.011719 66.039062 129.582031 69.589844 C 124.042969 71.925781 122.753906 72.734375 122.578125 73.980469 C 122.421875 75.074219 122.75 75.609375 123.738281 75.867188 C 125.199219 76.25 125.359375 76.65625 124.714844 78.339844 C 124.359375 79.265625 121.921875 79.390625 104.15625 79.390625 C 84.882812 79.390625 84.003906 79.335938 84.003906 78.144531 C 84.003906 77.460938 83.535156 75.78125 82.96875 74.417969 C 81.3125 70.457031 81.792969 70.101562 88.824219 70.101562 C 95.527344 70.101562 96.601562 69.640625 96.601562 66.761719 C 96.601562 64.214844 94.683594 63.710938 86.503906 64.113281 C 80.253906 64.421875 79.210938 64.648438 77.890625 65.972656 C 76.324219 67.539062 75.988281 71.230469 77 75.742188 C 77.375 77.414062 76.792969 78.835938 73.375 84.597656 C 69.515625 91.097656 69.203125 91.441406 67.53125 91.003906 C 66.5625 90.75 63.183594 90.394531 60.023438 90.210938 C 54.804688 89.90625 53.914062 90.042969 50.261719 91.683594 C 45.515625 93.8125 40.203125 99.078125 38.0625 103.769531 C 36.902344 106.320312 36.625 108.191406 36.609375 113.554688 C 36.59375 119.386719 36.804688 120.648438 38.367188 123.984375 C 41.429688 130.523438 48.019531 135.683594 55.097656 137.085938 C 58.945312 137.847656 59.332031 137.839844 63.925781 136.875 Z M 52.171875 130.421875 C 45.871094 127.570312 42.222656 122.261719 41.722656 115.214844 C 41.339844 109.816406 42.316406 106.117188 45.085938 102.484375 C 49.136719 97.175781 56.058594 94.378906 62.226562 95.570312 C 66.398438 96.371094 66.421875 96.632812 62.863281 102.664062 C 61.054688 105.734375 58.65625 109.125 57.53125 110.195312 C 56.40625 111.269531 55.488281 112.804688 55.488281 113.605469 C 55.488281 115.378906 57.308594 117.605469 59.199219 118.152344 C 60.925781 118.652344 64.109375 116.300781 64.109375 114.523438 C 64.109375 112.777344 70.910156 100.566406 71.730469 100.835938 C 72.097656 100.957031 73.292969 102.503906 74.386719 104.269531 C 77.140625 108.710938 77.558594 115.976562 75.359375 121.09375 C 73.582031 125.230469 68.683594 129.886719 64.929688 131.011719 C 60.9375 132.207031 55.574219 131.960938 52.171875 130.421875 Z M 143.019531 131.304688 C 138.429688 130.632812 135.0625 128.953125 132.21875 125.910156 C 129.601562 123.109375 127.882812 120.140625 128.535156 119.554688 C 128.660156 119.445312 132.628906 119.011719 137.351562 118.597656 C 144.613281 117.960938 146.175781 117.625 147.464844 116.414062 C 149.703125 114.3125 149.4375 111.734375 146.714844 109.089844 C 144.304688 106.75 139.042969 98.015625 139.042969 96.359375 C 139.042969 94.203125 148.167969 94.167969 152.304688 96.308594 C 155.1875 97.800781 159.070312 101.839844 160.613281 104.953125 C 161.601562 106.949219 161.917969 108.949219 161.917969 113.222656 C 161.917969 118.140625 161.691406 119.246094 160.152344 121.847656 C 156.246094 128.457031 149.398438 132.238281 143.019531 131.304688 Z M 129.261719 106.8125 C 128.804688 106.628906 128.429688 106.125 128.429688 105.695312 C 128.429688 104.671875 131.632812 99.957031 132.328125 99.957031 C 132.835938 99.957031 136.390625 105.984375 136.390625 106.84375 C 136.390625 107.328125 130.464844 107.300781 129.261719 106.8125 Z M 117.613281 106.128906 C 117.277344 105.585938 124.8125 92.035156 126.25 90.597656 C 126.855469 89.992188 127.292969 90.351562 128.152344 92.15625 C 129.257812 94.476562 129.25 94.535156 127.445312 96.898438 C 126.441406 98.214844 124.8125 100.859375 123.828125 102.777344 C 122.320312 105.703125 121.707031 106.289062 119.988281 106.460938 C 118.867188 106.574219 117.796875 106.421875 117.613281 106.128906 Z M 94.324219 96.890625 C 88.648438 91.921875 84.003906 87.59375 84.003906 87.273438 C 84.003906 86.949219 91.894531 86.6875 101.574219 86.6875 C 113.320312 86.6875 119.148438 86.917969 119.148438 87.378906 C 119.148438 88.097656 110.859375 103.640625 109.699219 105.097656 C 109.335938 105.554688 108.050781 105.925781 106.839844 105.925781 C 104.964844 105.925781 103.128906 104.601562 94.324219 96.890625 Z M 94.324219 96.890625 "/>
</g>
</svg>
