<?xml version="1.0" encoding="UTF-8" standalone="no"?>
<!-- Created with Inkscape (http://www.inkscape.org/) -->

<svg
   xmlns:dc="http://purl.org/dc/elements/1.1/"
   xmlns:cc="http://creativecommons.org/ns#"
   xmlns:rdf="http://www.w3.org/1999/02/22-rdf-syntax-ns#"
   xmlns:svg="http://www.w3.org/2000/svg"
   xmlns="http://www.w3.org/2000/svg"
   xmlns:sodipodi="http://sodipodi.sourceforge.net/DTD/sodipodi-0.dtd"
   xmlns:inkscape="http://www.inkscape.org/namespaces/inkscape"
   width="678.02466"
   height="670.93048"
   id="svg2"
   version="1.1"
   inkscape:version="0.48.0 r9654"
   sodipodi:docname="señal r405 motocicletas.svg">
  <defs
     id="defs4" />
  <sodipodi:namedview
     id="base"
     pagecolor="#ffffff"
     bordercolor="#666666"
     borderopacity="1.0"
     inkscape:pageopacity="0.0"
     inkscape:pageshadow="2"
     inkscape:zoom="0.7"
     inkscape:cx="392.99376"
     inkscape:cy="300.39995"
     inkscape:document-units="px"
     inkscape:current-layer="layer1"
     showgrid="false"
     fit-margin-top="0"
     fit-margin-left="0"
     fit-margin-right="0"
     fit-margin-bottom="0"
     inkscape:window-width="1280"
     inkscape:window-height="750"
     inkscape:window-x="-8"
     inkscape:window-y="-8"
     inkscape:window-maximized="1" />
  <metadata
     id="metadata7">
    <rdf:RDF>
      <cc:Work
         rdf:about="">
        <dc:format>image/svg+xml</dc:format>
        <dc:type
           rdf:resource="http://purl.org/dc/dcmitype/StillImage" />
        <dc:title></dc:title>
      </cc:Work>
    </rdf:RDF>
  </metadata>
  <g
     inkscape:label="Capa 1"
     inkscape:groupmode="layer"
     id="layer1"
     transform="translate(-24.684594,-76.980789)">
    <path
       sodipodi:type="arc"
       style="fill:#ffffff;fill-opacity:1;fill-rule:nonzero;stroke:#0000ff;stroke-width:1;stroke-linecap:round;stroke-linejoin:round;stroke-miterlimit:4;stroke-opacity:1;stroke-dasharray:none;stroke-dashoffset:0"
       id="path3793"
       sodipodi:cx="433.35544"
       sodipodi:cy="381.01669"
       sodipodi:rx="302.03561"
       sodipodi:ry="302.03561"
       d="m 735.39105,381.01669 c 0,166.80967 -135.22595,302.03562 -302.03561,302.03562 -166.80967,0 -302.03562,-135.22595 -302.03562,-302.03562 0,-166.80966 135.22595,-302.035611 302.03562,-302.035611 166.80966,0 302.03561,135.225951 302.03561,302.035611 z"
       transform="matrix(1.0934907,0,0,1.0934907,-108.74385,-1.0468364)" />
    <path
       inkscape:connector-curvature="0"
       id="path2997"
       d="m 26.800653,747.06796 c 0.739575,-0.73957 2.659236,-0.81863 4.265906,-0.17569 1.77551,0.71049 1.248115,1.23788 -1.344683,1.34467 -2.346255,0.0967 -3.660799,-0.4294 -2.921223,-1.16898 z M 321.10206,745.17328 C 295.87884,740.91085 283.57285,737.9694 263.23407,731.34137 143.7662,692.40899 53.437295,585.02266 36.974635,462.35582 c -1.556616,-11.59874 -3.458722,-21.08862 -4.2269,-21.08862 -0.768168,0 0.954548,-3.91461 0.402469,-12.25068 -0.824613,-12.45117 -0.740595,33.11127 -0.805416,-15.16808 -0.04909,-36.59707 -0.895558,-21.76203 0.247061,-16.23795 1.012814,4.89651 1.394119,-8.55029 1.464668,-4.57187 0.219436,12.37526 0.390162,-6.71295 2.036872,-21.32427 7.88194,-69.93723 42.215645,-138.96512 95.565311,-192.13407 40.38283,-40.24602 78.93491,-64.03062 132.90661,-81.996348 142.16888,-47.324179 299.78967,9.384078 383.03447,137.806778 15.02773,23.18352 25.00297,44.2086 35.52465,74.87652 9.30111,27.11029 17.52457,60.81473 17.98748,93.72065 0.41649,29.60252 -5.29492,17.60469 -6.92849,-2.70561 C 686.52336,306.04423 632.99274,204.03222 557.02532,149.91224 457.78556,79.212774 328.21321,69.007561 220.94588,123.44238 c -65.61648,33.29829 -112.56092,79.95335 -144.618427,143.727 -21.610664,42.99118 -31.004919,77.10173 -34.30834,124.57374 -4.221225,60.66133 6.675372,115.3041 33.621122,168.59858 34.053805,67.35316 82.444415,115.28016 148.747835,147.32272 40.13236,19.39487 75.31604,28.68086 119.61371,31.56956 73.47934,4.79171 140.82686,-12.69073 202.25467,-52.50238 83.94374,-54.40438 138.10043,-147.03992 145.45549,-248.80293 1.6465,-22.77931 13.25151,-38.11669 8.40181,-2.20053 l -7.50989,55.61714 -9.18592,26.95819 c -18.38773,53.96317 -41.5869,91.22654 -81.57845,131.03421 -49.53555,49.30776 -103.50314,78.51826 -170.97692,92.54302 -29.112,6.05108 -83.73979,7.68981 -109.76051,3.29258 z m 17.80552,-22.71107 C 244.17764,711.09994 164.78567,664.73925 113.3789,590.76549 100.27006,571.90202 80.277487,532.2296 73.229497,511.09472 55.907923,459.15236 53.432437,399.16738 66.330948,343.93212 92.165613,233.30038 178.11578,145.01965 287.90622,116.3488 c 31.56687,-8.24341 67.25764,-12.10112 94.40229,-10.20365 146.14028,10.21545 260.37251,110.84539 288.52068,254.16474 5.1688,26.31741 5.22845,78.96309 0.12133,107.05034 -24.31695,133.73372 -130.74299,235.63457 -264.52736,253.27984 -22.96183,3.02849 -51.12176,3.78849 -67.51558,1.82214 z M 239.24732,536.20237 c 24.20226,-5.07199 45.63485,-23.78794 55.65835,-48.60358 4.82047,-11.93445 5.43066,-16.28946 4.59891,-32.82785 -1.0857,-21.58791 -5.90064,-34.74915 -18.20735,-49.76787 -7.58657,-9.2584 -7.65903,-9.5406 -3.99835,-15.57378 2.05056,-3.37949 4.91864,-5.8684 6.37358,-5.53088 1.45484,0.33752 18.73463,14.40784 38.39939,31.26742 l 35.75409,30.65373 0,9.4699 c 0,11.0697 4.18662,17.96093 13.99235,23.03171 5.91079,3.0566 11.53647,3.41583 34.94101,2.23129 l 27.89585,-1.41185 5.30603,11.56595 c 13.7634,30.00147 50.99018,50.02789 82.0475,44.13804 56.40915,-10.6978 83.64839,-76.76714 51.22702,-124.25248 -9.2059,-13.48322 -26.69148,-26.55684 -41.13484,-30.75563 -12.0871,-3.51384 -37.80509,-3.45773 -48.58666,0.10593 -3.87804,1.28188 -5.59832,-0.74799 -12.20095,-14.39615 l -7.6863,-15.8884 4.72967,-8.16839 c 2.60122,-4.49262 6.58932,-8.45778 8.86238,-8.81146 14.31998,-2.22825 14.14844,-2.04759 14.14844,-14.90088 0,-18.44556 -3.45172,-19.24125 -31.74704,-7.31836 -18.59423,7.83513 -22.91704,10.54196 -23.51492,14.72418 -0.52472,3.67047 0.58036,5.46754 3.89495,6.33433 4.90655,1.28309 5.44521,2.64741 3.27646,8.29883 -1.19084,3.10347 -9.36577,3.52058 -68.99645,3.52058 -64.69527,7e-5 -67.64544,-0.18222 -67.64544,-4.17952 0,-2.29875 -1.56459,-7.92426 -3.47692,-12.50111 -5.55312,-13.29047 -3.93984,-14.47899 19.65462,-14.47899 22.5072,0 26.11049,-1.54785 26.11049,-11.21634 0,-8.54433 -6.43621,-10.23045 -33.88892,-8.87808 -20.97869,1.03345 -24.48502,1.78888 -28.91862,6.23033 -5.25653,5.26578 -6.38261,17.64477 -2.98214,32.78248 1.25921,5.60563 -0.69483,10.37354 -12.17677,29.71262 -12.94508,21.80353 -13.99348,22.95296 -19.60244,21.49098 -3.25915,-0.84956 -14.59997,-2.04742 -25.20178,-2.66195 -17.51806,-1.01543 -20.50645,-0.56518 -32.76746,4.93727 -15.93081,7.14931 -33.76287,24.81243 -40.94269,40.55485 -3.90059,8.5523 -4.83421,14.82871 -4.88339,32.83064 -0.0533,19.56618 0.6605,23.79613 5.90636,34.98863 10.28157,21.93654 32.39104,39.24576 56.14526,43.95534 12.91997,2.56152 14.21248,2.53093 29.63672,-0.70148 z M 199.8018,514.54022 c -21.15794,-9.56626 -33.4007,-27.3709 -35.07956,-51.0161 -1.28565,-18.10758 1.99512,-30.51579 11.2908,-42.70328 13.59206,-17.82031 36.82402,-27.19268 57.52692,-23.20777 14.00342,2.69535 14.08182,3.56604 2.14384,23.81185 -6.07415,10.30118 -14.12856,21.67111 -17.89878,25.26649 -3.77013,3.59539 -6.85475,8.74263 -6.85475,11.43832 0,5.94563 6.10089,13.42257 12.44803,15.25558 5.79703,1.67417 16.48596,-6.21924 16.48596,-12.17435 0,-5.8583 22.8205,-46.83346 25.57666,-45.92383 1.23441,0.40743 5.24916,5.58985 8.92152,11.51648 9.23819,14.9088 10.64343,39.27788 3.25536,56.45182 -5.96551,13.86731 -22.40514,29.49069 -35.00301,33.26509 -13.40113,4.01507 -31.39357,3.18284 -42.81299,-1.9803 z m 304.91983,2.96999 c -15.40189,-2.25 -26.70408,-7.89322 -36.25207,-18.10076 -8.78747,-9.3945 -14.56,-19.35197 -12.36,-21.32076 0.41782,-0.37391 13.73285,-1.8172 29.58906,-3.20731 24.37618,-2.13706 29.61908,-3.26937 33.9418,-7.33033 7.50828,-7.0537 6.62498,-15.69781 -2.51083,-24.57034 -8.09037,-7.85733 -25.76215,-37.16119 -25.76215,-42.71967 0,-7.23314 30.62762,-7.34997 44.51256,-0.16983 9.68429,5.00795 22.71453,18.55772 27.89625,29.00848 3.31716,6.69026 4.37754,13.41168 4.37754,27.74734 0,16.49122 -0.7598,20.20334 -5.92205,28.93398 -13.11233,22.17588 -36.09773,34.85725 -57.51011,31.72918 z M 458.5385,435.34179 c -1.53017,-0.61743 -2.7821,-2.309 -2.7821,-3.75901 0,-3.42928 10.75031,-19.24957 13.08066,-19.24957 1.70173,0 13.62761,20.22816 13.62761,23.11455 0,1.61315 -19.88397,1.52508 -23.92617,-0.10595 z m -39.08602,-2.29777 c -1.12793,-1.82497 24.15297,-47.28693 28.9799,-52.11384 2.02802,-2.02811 3.49762,-0.82272 6.38896,5.24062 3.70793,7.77559 3.67821,7.97546 -2.37226,15.90802 -3.37013,4.41843 -8.83676,13.29062 -12.14817,19.71598 -5.0611,9.82049 -7.11383,11.79116 -12.87929,12.36435 -3.77217,0.37503 -7.35835,-0.12687 -7.96914,-1.11513 z m -78.1792,-30.99297 C 322.22219,385.37871 306.635,370.85607 306.635,369.77852 c 0,-1.0791 26.49369,-1.95914 58.98085,-1.95914 39.42543,0 58.98083,0.76901 58.98083,2.31939 0,2.40967 -27.81918,54.55115 -31.71505,59.44355 -1.21842,1.53016 -5.53518,2.78212 -9.59277,2.78212 -6.29622,0 -12.4541,-4.44285 -42.01558,-30.31339 z"
       style="fill:#092d78;fill-opacity:1"
       sodipodi:nodetypes="sscsssssssssssssssssssssssssscssssssssssssssssssscscssscsssscsccssssscssssssssscsssssssssssssssscsssscsssssssssscccsssccscssssssssscss" />
  </g>
</svg>
