<?xml version="1.0" encoding="UTF-8"?>
<svg xmlns="http://www.w3.org/2000/svg" xmlns:xlink="http://www.w3.org/1999/xlink" width="250px" height="200px" viewBox="0 0 201 200" version="1.1">
<g id="surface1">
<path style="fill-rule:nonzero;fill:rgb(100%,100%,100%);fill-opacity:1;stroke-width:1;stroke-linecap:round;stroke-linejoin:round;stroke:rgb(0%,0%,100%);stroke-opacity:1;stroke-miterlimit:4;" d="M 750.631457 338.734289 C 750.666775 501.727056 618.543254 633.875093 455.552061 633.875093 C 292.560868 633.875093 160.437347 501.727056 160.472665 338.734289 C 160.437347 175.753278 292.560868 43.605241 455.552061 43.605241 C 618.543254 43.605241 750.666775 175.753278 750.631457 338.734289 Z M 750.631457 338.734289 " transform="matrix(0.33181,0,0,0.33231,-51.011985,-12.021691)"/>
<path style=" stroke:none;fill-rule:nonzero;fill:rgb(3.529412%,17.647059%,47.058824%);fill-opacity:1;" d="M -0.417969 198.917969 C -0.199219 198.699219 0.375 198.675781 0.851562 198.867188 C 1.378906 199.078125 1.222656 199.234375 0.453125 199.269531 C -0.246094 199.296875 -0.640625 199.140625 -0.417969 198.917969 Z M 87.207031 198.355469 C 79.699219 197.082031 76.035156 196.207031 69.976562 194.230469 C 34.40625 182.621094 7.511719 150.597656 2.609375 114.019531 C 2.148438 110.5625 1.582031 107.730469 1.351562 107.730469 C 1.125 107.730469 1.515625 99.40625 1.148438 101.871094 C 0.601562 105.539062 1.136719 112.511719 1.117188 98.113281 C 1.101562 87.199219 1.410156 97.59375 1.421875 96.382812 C 1.433594 94.890625 1.328125 92.855469 1.347656 94.042969 C 1.414062 97.734375 1.859375 91.347656 2.347656 86.992188 C 4.695312 66.136719 14.917969 45.554688 30.800781 29.699219 C 42.824219 17.699219 54.304688 10.605469 70.375 5.25 C 112.703125 -8.863281 159.632812 8.046875 184.417969 46.339844 C 188.894531 53.253906 191.863281 59.523438 194.996094 68.667969 C 197.765625 76.753906 199.785156 89.554688 199.921875 99.367188 C 200.046875 108.195312 198.023438 102.960938 197.539062 94.878906 C 195.828125 66.441406 180.070312 36.992188 157.453125 20.851562 C 127.902344 -0.230469 89.324219 -3.273438 57.386719 12.960938 C 37.851562 22.890625 23.871094 36.800781 14.328125 55.816406 C 7.894531 68.636719 5.097656 78.808594 4.113281 92.964844 C 2.855469 111.054688 6.101562 127.347656 14.125 143.238281 C 24.261719 163.324219 38.671875 177.613281 58.410156 187.167969 C 70.359375 192.953125 80.835938 195.722656 94.027344 196.582031 C 115.902344 198.011719 135.957031 192.796875 154.246094 180.925781 C 179.238281 164.703125 195.582031 133.5625 197.773438 103.214844 C 198.261719 96.421875 200.824219 98.566406 199.488281 109.289062 L 197.820312 122.664062 L 195.085938 130.703125 C 189.609375 146.792969 182.703125 157.90625 170.792969 169.777344 C 156.046875 184.480469 139.976562 193.191406 119.886719 197.371094 C 111.21875 199.175781 94.953125 199.664062 87.207031 198.355469 Z M 92.507812 191.582031 C 64.304688 188.195312 40.664062 174.371094 25.359375 152.3125 C 21.457031 146.6875 15.503906 134.855469 13.40625 128.554688 C 8.246094 113.066406 7.511719 95.179688 11.351562 78.707031 C 19.042969 45.71875 44.632812 19.394531 77.324219 10.84375 C 86.722656 8.386719 97.347656 7.234375 105.429688 7.800781 C 148.941406 10.847656 182.957031 40.855469 191.335938 83.589844 C 192.875 91.4375 192.894531 107.136719 191.371094 115.511719 C 184.132812 155.390625 152.445312 185.777344 112.609375 191.039062 C 105.773438 191.941406 97.390625 192.167969 92.507812 191.582031 Z M 130.222656 158.785156 C 134.203125 154.046875 133.566406 150.984375 125.976562 138.367188 L 119.855469 128.183594 L 114.160156 103.316406 L 115.410156 92.824219 C 116.097656 87.050781 116.824219 82.164062 117.027344 81.960938 C 117.226562 81.757812 119.039062 83.21875 121.054688 85.207031 L 124.714844 88.816406 L 124.261719 96.269531 C 123.863281 102.824219 123.9375 103.773438 124.894531 104.140625 C 126.765625 104.859375 129.441406 103.753906 131.988281 101.199219 C 134.296875 98.890625 134.476562 98.414062 134.890625 93.445312 C 135.132812 90.535156 135.484375 87.347656 135.667969 86.363281 C 135.960938 84.796875 134.636719 83.039062 125.15625 72.425781 C 117.257812 63.582031 113.851562 60.226562 112.632812 60.078125 C 111.652344 59.964844 108.085938 61.257812 104.019531 63.210938 C 98.054688 66.070312 96.433594 67.21875 92.507812 71.371094 C 89.996094 74.03125 82.929688 81.320312 76.804688 87.566406 C 70.679688 93.8125 65.671875 99.21875 65.671875 99.574219 C 65.671875 100.941406 68.382812 102.59375 71.125 102.902344 C 73.953125 103.222656 74.089844 103.140625 83.21875 95.523438 C 88.296875 91.289062 92.6875 87.820312 92.976562 87.820312 C 93.617188 87.820312 93.585938 95.527344 92.925781 100.15625 C 92.519531 102.996094 91.46875 104.878906 86.265625 112.082031 C 82.867188 116.78125 79.828125 121.238281 79.507812 121.980469 C 78.921875 123.335938 72.296875 151.753906 72.296875 152.910156 C 72.296875 153.84375 77.347656 153.648438 79.804688 152.621094 C 83.929688 150.894531 85.109375 148.605469 87.523438 137.671875 L 89.746094 127.589844 L 94.972656 122.472656 C 97.84375 119.660156 100.574219 117.269531 101.035156 117.164062 C 101.558594 117.046875 103.101562 120.0625 105.109375 125.128906 C 108.789062 134.402344 111.851562 139.90625 118.347656 148.898438 C 120.847656 152.355469 123.789062 156.453125 124.890625 158.003906 C 125.992188 159.558594 127.253906 160.828125 127.699219 160.828125 C 128.144531 160.828125 129.28125 159.90625 130.222656 158.785156 Z M 108.386719 57.027344 C 111.675781 54.515625 112.933594 51.789062 112.570312 47.976562 C 111.714844 39.089844 101.554688 35.136719 95.398438 41.300781 C 90.128906 46.574219 90.976562 53.867188 97.316406 57.808594 C 100.632812 59.875 105.070312 59.558594 108.386719 57.027344 Z M 108.386719 57.027344 "/>
</g>
</svg>
