<?xml version="1.0" encoding="UTF-8"?>
<svg xmlns="http://www.w3.org/2000/svg" xmlns:xlink="http://www.w3.org/1999/xlink" width="250px" height="200px" viewBox="0 0 202 200" version="1.1">
<g id="surface1">
<path style="fill-rule:nonzero;fill:rgb(100%,100%,100%);fill-opacity:1;stroke-width:3;stroke-linecap:round;stroke-linejoin:round;stroke:rgb(0%,0%,100%);stroke-opacity:1;stroke-miterlimit:4;" d="M 747.143454 378.789385 C 747.167392 543.31321 613.811598 676.695708 449.289184 676.695708 C 284.766771 676.695708 151.399009 543.31321 151.422946 378.789385 C 151.399009 214.26556 284.766771 80.871098 449.289184 80.871098 C 613.811598 80.871098 747.167392 214.26556 747.143454 378.789385 Z M 747.143454 378.789385 " transform="matrix(0.326371,0,0,0.32651,-44.697372,-23.12401)"/>
<path style=" stroke:none;fill-rule:nonzero;fill:rgb(3.529412%,17.647059%,47.058824%);fill-opacity:1;" d="M 1.03125 198.730469 C 1.25 198.511719 1.816406 198.488281 2.292969 198.679688 C 2.816406 198.886719 2.660156 199.042969 1.894531 199.074219 C 1.199219 199.105469 0.8125 198.949219 1.03125 198.730469 Z M 88.074219 198.167969 C 66.585938 194.535156 49.320312 186.289062 34.890625 172.769531 C 18.847656 157.738281 9 140.238281 4.808594 119.3125 C 4.078125 115.679688 3.484375 111.707031 3.484375 110.476562 C 3.484375 106.675781 3.71875 113.433594 3.097656 108.75 C 2.660156 105.46875 2.640625 116.84375 2.621094 102.558594 C 2.609375 91.726562 2.378906 98.132812 2.824219 95.402344 C 3.0625 93.941406 3.8125 86.546875 3.195312 90.597656 C 2.640625 94.21875 3.289062 91.988281 3.777344 87.664062 C 6.109375 66.96875 16.265625 46.542969 32.042969 30.8125 C 43.617188 19.273438 54.710938 12.3125 70.144531 6.902344 C 103.503906 -4.792969 142.1875 3.492188 168.25 27.914062 C 181.308594 40.148438 189.355469 52.585938 195.152344 69.480469 C 197.902344 77.503906 199.75 89.65625 199.886719 99.390625 C 200.011719 108.152344 198.308594 105.023438 197.976562 97.5 C 195.855469 49.574219 155.078125 7.066406 107.835938 4.265625 C 89.523438 3.179688 74.015625 6.300781 58.453125 14.199219 C 39.042969 24.054688 25.160156 37.859375 15.679688 56.730469 C 9.285156 69.449219 6.507812 79.542969 5.53125 93.589844 C 4.28125 111.539062 7.503906 127.707031 15.476562 143.476562 C 25.546875 163.40625 39.859375 177.589844 59.46875 187.070312 C 71.265625 192.773438 81.882812 195.566406 95.027344 196.421875 C 116.570312 197.828125 136.558594 192.617188 154.667969 180.875 C 179.339844 164.878906 195.945312 136.292969 198.117188 106.53125 C 198.65625 99.136719 200.714844 99.289062 199.589844 110.484375 L 198.707031 119.296875 L 195.238281 131.039062 C 190.457031 147.214844 182.9375 158.03125 171.109375 169.8125 C 155.949219 184.90625 140.246094 193.261719 119.015625 197.53125 C 111.875 198.964844 94.863281 199.316406 88.074219 198.167969 Z M 93.339844 191.449219 C 65.324219 188.085938 41.839844 174.367188 26.636719 152.480469 C 22.757812 146.898438 16.847656 135.160156 14.761719 128.90625 C 9.636719 113.535156 8.90625 95.785156 12.722656 79.441406 C 23.757812 32.164062 70.660156 1.546875 118.285156 10.539062 C 155.371094 17.539062 184.089844 46.460938 191.515625 84.289062 C 193.058594 92.15625 193.0625 107.648438 191.519531 116.148438 C 184.394531 155.414062 152.804688 185.691406 113.496094 190.925781 C 107.039062 191.785156 98.089844 192.019531 93.339844 191.449219 Z M 70.050781 142.203125 C 75.839844 140.972656 81.46875 138.050781 85.976562 133.929688 C 90.96875 129.363281 93.148438 124.804688 93.535156 118.128906 C 93.941406 111.078125 92.570312 107.125 88.152344 102.636719 L 84.785156 99.210938 L 87.554688 96.414062 C 91.886719 92.046875 93.339844 88.484375 93.339844 82.230469 C 93.339844 77.789062 93.050781 76.371094 91.496094 73.199219 C 86.617188 63.261719 71.257812 56.210938 58.726562 58.15625 C 48.152344 59.796875 39.277344 65.664062 35.253906 73.667969 C 33.609375 76.9375 32.21875 83.25 32.976562 84.007812 C 33.679688 84.714844 49.441406 86.699219 50.652344 86.234375 C 51.140625 86.046875 51.539062 85.253906 51.539062 84.46875 C 51.539062 80.152344 57.242188 75.972656 63.128906 75.972656 C 67.066406 75.972656 71.890625 78.199219 73.121094 80.582031 C 74.71875 83.667969 72.910156 89.546875 69.972656 90.839844 C 69.429688 91.082031 66.480469 91.390625 63.417969 91.53125 C 60.355469 91.671875 57.605469 92.03125 57.308594 92.332031 C 57.007812 92.632812 56.847656 96.410156 56.949219 100.726562 L 57.136719 108.574219 L 64.199219 108.902344 C 70.835938 109.210938 71.375 109.34375 73.085938 111.058594 C 75.730469 113.707031 75.664062 117.890625 72.933594 120.796875 C 66.25 127.902344 54.132812 124.761719 51.835938 115.324219 C 51.3125 113.160156 51.691406 113.175781 41.914062 114.855469 C 31.121094 116.707031 31.671875 116.453125 32.171875 119.324219 C 33.097656 124.609375 35.808594 129.257812 40.515625 133.617188 C 49.125 141.589844 59.164062 144.511719 70.050781 142.203125 Z M 148.589844 140.886719 C 154.394531 138.699219 157.277344 136.730469 161.753906 131.894531 C 167.941406 125.207031 171.148438 116.253906 171.808594 103.835938 C 172.613281 88.664062 168.746094 76.050781 160.71875 67.691406 C 154.160156 60.859375 143.109375 56.777344 134.089844 57.859375 C 117.078125 59.898438 105.917969 72.039062 102.824219 91.871094 C 101.191406 102.339844 103.332031 116.496094 107.917969 125.550781 C 110.292969 130.242188 116.835938 136.601562 121.941406 139.179688 C 130.378906 143.4375 140.144531 144.066406 148.589844 140.886719 Z M 132.980469 123.128906 C 128.785156 121.980469 125.300781 119.101562 123.292969 115.125 C 121.71875 112.007812 121.648438 111.367188 121.6875 100.339844 C 121.730469 87.652344 122.09375 86.039062 125.875 81.730469 C 131.296875 75.554688 142.941406 75.554688 148.359375 81.730469 C 151.585938 85.402344 152.269531 87.800781 152.703125 96.917969 C 153.222656 107.882812 152.3125 113.425781 149.316406 117.542969 C 145.664062 122.566406 139.113281 124.804688 132.980469 123.128906 Z M 132.980469 123.128906 "/>
</g>
</svg>
