<?xml version="1.0" encoding="UTF-8"?>
<svg xmlns="http://www.w3.org/2000/svg" xmlns:xlink="http://www.w3.org/1999/xlink" width="250px" height="200px" viewBox="0 0 201 200" version="1.1">
<g id="surface1">
<path style=" stroke:none;fill-rule:nonzero;fill:rgb(100%,100%,100%);fill-opacity:1;" d="M 198.898438 100.179688 C 198.910156 154.152344 155.179688 197.914062 101.234375 197.914062 C 47.289062 197.914062 3.558594 154.152344 3.570312 100.179688 C 3.558594 46.207031 47.289062 2.449219 101.234375 2.449219 C 155.179688 2.449219 198.910156 46.207031 198.898438 100.179688 Z M 198.898438 100.179688 "/>
<path style=" stroke:none;fill-rule:nonzero;fill:rgb(3.529412%,17.647059%,47.058824%);fill-opacity:1;" d="M 92.679688 199.832031 C 92.226562 199.773438 90.679688 199.589844 89.242188 199.425781 C 76.449219 197.964844 64.320312 194.027344 52.335938 187.433594 C 43.820312 182.75 36.898438 177.382812 29.292969 169.566406 C 16.8125 156.738281 8.070312 140.78125 3.769531 122.96875 C 0.441406 109.203125 0.4375 92.582031 3.75 77.714844 C 4.4375 74.636719 7.3125 65.578125 8.597656 62.445312 C 11.203125 56.09375 17.039062 45.996094 21.558594 40.023438 C 26.574219 33.402344 35.394531 24.601562 41.261719 20.367188 C 48.519531 15.128906 55.21875 11.289062 62.433594 8.234375 C 68.257812 5.765625 70.566406 4.976562 76.457031 3.449219 C 82.65625 1.839844 86.933594 1.152344 93.160156 0.757812 C 95.996094 0.578125 98.316406 0.335938 98.316406 0.214844 C 98.316406 -0.105469 103.753906 -0.0507812 103.953125 0.273438 C 104.046875 0.421875 104.949219 0.550781 105.960938 0.550781 C 111.511719 0.566406 118.015625 1.496094 125.324219 3.324219 C 134.113281 5.519531 141.804688 8.582031 149.726562 13.042969 C 153.894531 15.390625 155.835938 16.65625 161.796875 20.90625 C 165.550781 23.578125 173.835938 31.46875 177.542969 35.898438 C 183.445312 42.949219 187.589844 49.523438 191.808594 58.519531 C 195.515625 66.429688 198.941406 77.671875 199.8125 84.789062 C 199.992188 86.257812 200.226562 87.40625 200.332031 87.339844 C 200.710938 87.105469 200.875 91.054688 200.875 100.410156 C 200.875 109.738281 200.699219 113.941406 200.335938 113.355469 C 200.234375 113.191406 200.003906 114.328125 199.824219 115.878906 C 199.375 119.722656 197.625 126.941406 195.972656 131.773438 C 194.570312 135.855469 193.125 139.644531 192.636719 140.503906 C 192.484375 140.769531 191.761719 142.289062 191.03125 143.875 C 189.617188 146.945312 185.476562 154.371094 184.664062 155.292969 C 184.394531 155.597656 183.613281 156.710938 182.921875 157.769531 C 179.695312 162.714844 172.570312 170.582031 166.378906 176.035156 C 163.140625 178.886719 160.609375 180.785156 155.097656 184.5 C 150.007812 187.925781 139.925781 192.730469 133.375 194.847656 C 125.457031 197.40625 122.351562 198.132812 114.125 199.363281 C 111.519531 199.753906 94.804688 200.121094 92.679688 199.832031 Z M 112.339844 198.347656 C 113.320312 198.191406 115.734375 197.820312 117.699219 197.523438 C 127.386719 196.0625 138.414062 192.308594 147.808594 187.277344 C 149.246094 186.507812 150.792969 185.691406 151.246094 185.460938 C 152.277344 184.9375 155.050781 183.121094 157.570312 181.316406 C 158.628906 180.5625 160.113281 179.515625 160.871094 178.996094 C 163.042969 177.5 168.839844 172.304688 172.152344 168.882812 C 175.738281 165.171875 178.988281 161.300781 181.308594 157.976562 C 182.234375 156.652344 183.351562 155.074219 183.789062 154.46875 C 184.230469 153.863281 185.535156 151.679688 186.691406 149.621094 C 193.152344 138.097656 197.121094 126.390625 198.886719 113.640625 C 199.558594 108.773438 199.632812 107.476562 199.621094 100.273438 C 199.613281 93.148438 199.535156 91.734375 198.878906 87.066406 C 197.914062 80.199219 196.835938 75.527344 194.78125 69.324219 C 191.289062 58.773438 186.332031 49.308594 179.679688 40.492188 C 175 34.292969 165.855469 25.191406 160.59375 21.503906 C 159.6875 20.867188 157.707031 19.476562 156.195312 18.414062 C 150.125 14.15625 141.878906 9.984375 133.601562 6.988281 C 130.253906 5.777344 121.25 3.496094 117.5625 2.929688 C 110.84375 1.894531 109.820312 1.824219 101.203125 1.820312 C 92.554688 1.816406 91.660156 1.878906 84.84375 2.929688 C 81.511719 3.441406 72.589844 5.660156 69.167969 6.828125 C 66.457031 7.75 60.269531 10.363281 57.484375 11.757812 C 53.996094 13.507812 48.175781 16.941406 45.796875 18.65625 C 44.511719 19.585938 42.777344 20.808594 41.949219 21.378906 C 38.46875 23.765625 30.925781 30.808594 27.132812 35.210938 C 23.046875 39.949219 21.671875 41.753906 18.363281 46.726562 C 11.261719 57.394531 5.808594 71.339844 3.878906 83.765625 C 2.8125 90.628906 2.628906 93.097656 2.628906 100.363281 C 2.628906 116.644531 5.800781 130.417969 12.691406 144.015625 C 18.097656 154.6875 23.09375 161.617188 31.351562 169.894531 C 39.359375 177.921875 46.136719 182.960938 55.207031 187.625 C 64.917969 192.617188 76.191406 196.40625 84.703125 197.53125 C 85.914062 197.691406 87.574219 197.953125 88.394531 198.113281 C 89.214844 198.273438 91.257812 198.507812 92.933594 198.632812 C 96.769531 198.917969 109.960938 198.722656 112.339844 198.347656 Z M 95.839844 193.945312 C 88.992188 193.464844 85.171875 192.847656 77.28125 190.949219 C 65.355469 188.082031 51.550781 181.039062 41.714844 172.808594 C 35.804688 167.863281 28.691406 160.324219 24.921875 155.019531 C 21.496094 150.191406 17.285156 142.753906 15.347656 138.097656 C 12.664062 131.660156 9.996094 123.410156 9.507812 120.039062 C 9.359375 119.003906 9.058594 117.289062 8.839844 116.226562 C 5.875 101.929688 7.519531 83.339844 13.046875 68.636719 C 15.554688 61.957031 16.011719 60.878906 17.738281 57.605469 C 21.082031 51.261719 24.234375 46.375 27.949219 41.785156 C 31.347656 37.585938 39.167969 29.820312 42.917969 26.917969 C 49.878906 21.535156 57.472656 17 64.703125 13.914062 C 72.324219 10.664062 82.480469 8.066406 91.578125 7.046875 C 95.808594 6.570312 106.058594 6.472656 109.175781 6.875 C 110.386719 7.03125 112.488281 7.28125 113.851562 7.4375 C 120.429688 8.179688 130.945312 11.03125 137.65625 13.894531 C 144.144531 16.664062 152 21.234375 157.691406 25.546875 C 165.109375 31.167969 173.113281 39.429688 178.113281 46.628906 C 181.257812 51.148438 185.703125 59.132812 187.003906 62.585938 C 187.382812 63.59375 187.941406 64.90625 188.242188 65.5 C 189.796875 68.542969 192.632812 78.636719 193.574219 84.453125 C 194.765625 91.816406 194.933594 93.769531 194.925781 100.410156 C 194.921875 107.070312 194.753906 109.066406 193.570312 116.367188 C 192.613281 122.253906 190.1875 130.925781 188.371094 134.933594 C 187.960938 135.84375 187.320312 137.390625 186.945312 138.375 C 185.445312 142.324219 180.441406 150.933594 176.796875 155.84375 C 164.953125 171.78125 148.425781 183.679688 130.074219 189.484375 C 118.769531 193.058594 106.332031 194.679688 95.839844 193.945312 Z M 114.40625 169.648438 C 121.578125 168.300781 129.242188 165.664062 135.054688 162.546875 C 136.195312 161.9375 137.171875 161.476562 137.21875 161.527344 C 137.347656 161.65625 140.039062 166.277344 141 168.015625 C 141.828125 169.511719 142.386719 169.808594 142.8125 168.980469 C 142.949219 168.714844 143.460938 167.074219 143.949219 165.335938 C 144.4375 163.59375 146 158.078125 147.421875 153.070312 C 148.84375 148.066406 150.007812 143.644531 150.007812 143.246094 C 150.007812 142.601562 149.839844 142.46875 148.566406 142.105469 C 142.839844 140.472656 123.667969 135.347656 123.289062 135.347656 C 123.03125 135.347656 122.742188 135.472656 122.648438 135.628906 C 122.550781 135.78125 123.535156 137.761719 124.832031 140.023438 C 126.125 142.285156 127.1875 144.207031 127.1875 144.296875 C 127.1875 144.621094 120.371094 147.703125 117.5625 148.648438 C 109.207031 151.464844 100.003906 152.050781 91.441406 150.304688 C 88.914062 149.789062 83.09375 147.925781 80.851562 146.917969 C 78.453125 145.835938 73.753906 142.957031 71.34375 141.089844 C 70.199219 140.203125 69.082031 139.476562 68.863281 139.476562 C 68.644531 139.476562 65.996094 142.46875 62.976562 146.128906 C 56.394531 154.105469 56.710938 153.675781 56.992188 154.179688 C 57.789062 155.605469 67.183594 161.710938 72.132812 164.019531 C 78.484375 166.980469 87.953125 169.683594 94.054688 170.277344 C 95.261719 170.394531 99.46875 170.460938 103.402344 170.429688 C 109.808594 170.375 110.953125 170.296875 114.40625 169.648438 Z M 51.4375 110.023438 C 60.757812 100.679688 61.300781 100.078125 60.800781 99.707031 C 60.382812 99.398438 59.234375 99.308594 55.628906 99.308594 L 50.996094 99.308594 L 51.132812 98.414062 C 51.207031 97.921875 51.347656 96.285156 51.441406 94.769531 C 51.703125 90.550781 53.03125 84.90625 54.90625 80.015625 C 56.027344 77.089844 58.800781 72.007812 60.898438 69.035156 C 63.046875 65.992188 67.785156 61.265625 71.507812 58.460938 C 74.0625 56.53125 79.4375 53.578125 83.125 52.078125 C 84.164062 51.652344 84.566406 51.339844 84.566406 50.957031 C 84.566406 50.21875 78.597656 34.347656 78.152344 33.902344 C 77.453125 33.203125 71.105469 35.988281 65.042969 39.65625 C 60.734375 42.265625 56.875 45.390625 52.074219 50.164062 C 43.699219 58.496094 38.617188 66.820312 34.761719 78.539062 C 33.066406 83.683594 31.5 92.351562 31.5 96.574219 L 31.5 99.308594 L 27.121094 99.308594 C 22.484375 99.308594 21.875 99.398438 21.875 100.058594 C 21.875 100.542969 40.761719 119.941406 41.230469 119.941406 C 41.402344 119.941406 45.996094 115.476562 51.4375 110.023438 Z M 171.722656 111.707031 C 172.226562 110.765625 172.832031 104.261719 172.832031 99.796875 C 172.832031 95.078125 172.09375 88.246094 171.152344 84.222656 C 166.894531 66.078125 155.835938 50.367188 140.222656 40.292969 L 137.886719 38.785156 L 138.648438 37.480469 C 139.066406 36.761719 140.0625 35.066406 140.859375 33.710938 C 142.433594 31.039062 142.636719 30.257812 141.753906 30.257812 C 140.753906 30.257812 115.785156 36.609375 115.433594 36.953125 C 115.164062 37.21875 115.828125 40.035156 118.644531 50.585938 C 120.597656 57.902344 122.316406 64.011719 122.464844 64.160156 C 122.617188 64.3125 122.855469 64.363281 122.992188 64.277344 C 123.132812 64.191406 124.269531 62.378906 125.523438 60.253906 C 126.773438 58.128906 127.902344 56.324219 128.035156 56.242188 C 128.167969 56.160156 129.683594 57.011719 131.402344 58.132812 C 136.515625 61.46875 142.289062 67.488281 146.234375 73.597656 C 147.941406 76.242188 150.59375 82.066406 151.640625 85.484375 C 153.511719 91.574219 154.140625 100.128906 153.160156 106.164062 C 152.929688 107.589844 152.839844 108.851562 152.957031 108.96875 C 153.167969 109.179688 169.640625 112.171875 170.828125 112.214844 C 171.167969 112.230469 171.5625 112.003906 171.722656 111.707031 Z M 0 99.996094 C 0 95.308594 0.0390625 93.425781 0.0820312 95.820312 C 0.128906 98.210938 0.128906 102.050781 0.0820312 104.347656 C 0.0390625 106.644531 0 104.6875 0 99.996094 Z M 0 99.996094 "/>
</g>
</svg>
