<?xml version="1.0" encoding="UTF-8" standalone="no"?>
<!-- Created with Inkscape (http://www.inkscape.org/) -->

<svg
   xmlns:dc="http://purl.org/dc/elements/1.1/"
   xmlns:cc="http://creativecommons.org/ns#"
   xmlns:rdf="http://www.w3.org/1999/02/22-rdf-syntax-ns#"
   xmlns:svg="http://www.w3.org/2000/svg"
   xmlns="http://www.w3.org/2000/svg"
   xmlns:sodipodi="http://sodipodi.sourceforge.net/DTD/sodipodi-0.dtd"
   xmlns:inkscape="http://www.inkscape.org/namespaces/inkscape"
   width="617.63678"
   height="613.92725"
   id="svg2"
   version="1.1"
   inkscape:version="0.48.0 r9654"
   sodipodi:docname="directiononespain.svg">
  <defs
     id="defs4" />
  <sodipodi:namedview
     id="base"
     pagecolor="#ffffff"
     bordercolor="#666666"
     borderopacity="1.0"
     inkscape:pageopacity="0.0"
     inkscape:pageshadow="2"
     inkscape:zoom="0.53915183"
     inkscape:cx="411.70811"
     inkscape:cy="439.59535"
     inkscape:document-units="px"
     inkscape:current-layer="layer1"
     showgrid="false"
     fit-margin-top="0"
     fit-margin-left="0"
     fit-margin-right="0"
     fit-margin-bottom="0"
     inkscape:window-width="1280"
     inkscape:window-height="750"
     inkscape:window-x="-8"
     inkscape:window-y="-8"
     inkscape:window-maximized="1" />
  <metadata
     id="metadata7">
    <rdf:RDF>
      <cc:Work
         rdf:about="">
        <dc:format>image/svg+xml</dc:format>
        <dc:type
           rdf:resource="http://purl.org/dc/dcmitype/StillImage" />
        <dc:title />
      </cc:Work>
    </rdf:RDF>
  </metadata>
  <g
     inkscape:label="Capa 1"
     inkscape:groupmode="layer"
     id="layer1"
     transform="translate(-6.6938286,-251.62091)">
    <path
       sodipodi:type="arc"
       style="fill:#ffffff;fill-opacity:1;fill-rule:nonzero;stroke:none"
       id="path2986"
       sodipodi:cx="395.99234"
       sodipodi:cy="392.28281"
       sodipodi:rx="297.68979"
       sodipodi:ry="297.68979"
       d="m 693.68213,392.28281 a 297.68979,297.68979 0 1 1 -595.379579,0 297.68979,297.68979 0 1 1 595.379579,0 z"
       transform="matrix(1.012461,0,0,1.012461,-83.55985,159.41347)" />
    <path
       inkscape:connector-curvature="0"
       id="path3054"
       d="m -67.563704,933.52111 c 0.71794,-0.7179 2.58141,-0.7946 4.14106,-0.1705 1.72355,0.6897 1.21159,1.2016 -1.30533,1.3053 -2.27759,0.094 -3.55366,-0.4168 -2.83573,-1.1348 z M 293.74381,859.00838 C 222.88001,854.44903 155.1746,823.41035 103.50155,771.79433 43.697676,712.05644 13.952166,640.33589 13.952166,555.87839 c 0,-167.09725 134.908524,-301.62608 302.477444,-301.62608 82.3699,0 155.421,30.21784 213.934,88.49452 58.2602,58.02485 88.564,130.62624 88.8656,212.90262 0.1814,49.53023 -9.8646,93.8536 -30.636,135.16586 -56.3714,112.11708 -168.8827,176.29775 -294.8494,168.19307 z m 87.5024,-8.04169 c 92.2833,-21.63563 166.1104,-80.16337 206.269,-163.52351 19.8462,-41.19617 26.9701,-71.16332 28.5877,-120.25488 0.9324,-28.2972 0.3916,-40.77042 -2.5293,-58.33493 -10.2996,-61.9353 -37.4571,-115.56261 -81.3893,-160.71731 -26.4529,-27.18906 -51.0063,-44.98038 -85.0413,-61.62072 -46.4644,-22.71734 -90.2661,-31.6459 -144.4117,-29.43696 -77.1819,3.14873 -142.64089,32.15385 -198.09982,87.77873 -44.306574,44.43917 -69.929744,91.62752 -83.370604,153.53769 -5.62945,25.92988 -5.70974,90.6194 -0.1448,116.66986 12.5547,58.77089 38.74799,108.13481 79.864034,150.51194 45.16791,46.55324 101.32509,76.62429 164.67649,88.1809 25.1986,4.59675 90.8389,3.01192 115.5896,-2.79081 z m -85.3419,-9.37736 C 231.63541,837.7664 169.53658,810.48806 122.1829,765.2781 78.618576,723.68592 52.632186,679.33446 38.314466,622.13818 c -5.25565,-20.99524 -5.83537,-27.19685 -5.9123,-63.2479 -0.0648,-30.37417 0.83209,-44.21928 3.73589,-57.66874 18.86948,-87.39735 74.504494,-159.9755 152.818854,-199.35849 44.7191,-22.48847 74.8997,-29.27754 129.6332,-29.16073 36.0511,0.0769 42.2527,0.65665 63.2479,5.9123 112.599,28.18646 197.0065,117.81448 216.5625,229.95649 4.2141,24.16555 4.1556,72.47634 -0.1174,97.02819 -17.5663,100.93174 -90.094,186.62319 -186.7891,220.69135 -37.6445,13.26313 -72.4239,17.8663 -115.5896,15.29868 z m 65.8969,-188.71499 c 0,-79.59726 0.7094,-115.58959 2.2781,-115.58959 1.253,0 14.483,2.91675 29.3999,6.48166 14.917,3.56491 30.301,6.48166 34.1867,6.48166 8.5033,0 12.8467,-4.46416 10.7551,-11.05408 -2.4661,-7.77019 -119.2437,-190.95762 -121.7308,-190.95762 -2.476,0 -115.4801,176.90605 -120.536,188.69703 -6.5011,15.16119 2.5484,16.58022 43.5757,6.83301 15.0052,-3.56491 28.1926,-6.48166 29.3051,-6.48166 1.2317,0 2.023,45.21405 2.023,115.58959 l 0,115.58958 45.3716,0 45.3716,0 0,-115.58958 z"
       style="fill:#124f90" />
  </g>
</svg>
