<?xml version="1.0" encoding="UTF-8"?>
<svg xmlns="http://www.w3.org/2000/svg" xmlns:xlink="http://www.w3.org/1999/xlink" width="250px" height="200px" viewBox="0 0 201 200" version="1.1">
<g id="surface1">
<path style=" stroke:none;fill-rule:nonzero;fill:rgb(100%,100%,100%);fill-opacity:1;" d="M 197.988281 100.363281 C 197.988281 154.859375 153.878906 199.035156 99.464844 199.035156 C 45.050781 199.035156 0.9375 154.859375 0.9375 100.363281 C 0.9375 45.867188 45.050781 1.6875 99.464844 1.6875 C 153.878906 1.6875 197.988281 45.867188 197.988281 100.363281 Z M 197.988281 100.363281 "/>
<path style=" stroke:none;fill-rule:nonzero;fill:rgb(3.529412%,17.647059%,47.058824%);fill-opacity:1;" d="M -16.609375 199.742188 C -16.359375 199.492188 -15.707031 199.464844 -15.160156 199.683594 C -14.558594 199.925781 -14.738281 200.105469 -15.617188 200.140625 C -16.414062 200.171875 -16.859375 199.996094 -16.609375 199.742188 Z M 88.933594 199.496094 C 75.175781 197.617188 69.351562 195.949219 57.585938 190.515625 C 41.203125 182.949219 30.664062 174.300781 18.984375 158.847656 C 8.265625 144.667969 2.179688 128.0625 0.503906 108.421875 C -0.828125 92.839844 0.585938 82.753906 6.570312 65.136719 C 8.398438 59.753906 16.058594 45.164062 17.871094 43.609375 C 18.113281 43.402344 19.265625 41.824219 20.433594 40.101562 C 23.730469 35.230469 37.410156 22.265625 43.648438 18.101562 C 46.746094 16.03125 51.488281 13.304688 54.1875 12.035156 C 67.207031 5.925781 67 5.992188 83.265625 2.753906 C 95.910156 0.234375 110.929688 0.832031 123.300781 4.351562 C 133.484375 7.246094 143.496094 10.976562 147.09375 13.21875 C 162.71875 22.953125 171.875 31.074219 179.710938 42.152344 C 192.410156 60.101562 197.554688 75.613281 198.253906 98.078125 C 198.59375 108.835938 198.421875 111.707031 197.019531 118.878906 C 194.464844 131.945312 188.988281 145.152344 181.175781 157.082031 C 175.722656 165.402344 159.777344 180.554688 151.246094 185.511719 C 145.71875 188.726562 131.929688 194.90625 130.285156 194.90625 C 129.503906 194.90625 128.1875 195.269531 127.363281 195.710938 C 122.460938 198.335938 98.050781 200.742188 88.933594 199.496094 Z M 110.117188 197.890625 C 114.378906 197.453125 119.722656 196.609375 121.992188 196.019531 C 127.894531 194.480469 139.488281 190.035156 145.457031 187.023438 C 156.421875 181.496094 171.660156 168.195312 179.496094 157.316406 C 182.839844 152.675781 190.445312 137.097656 192.355469 130.984375 C 195.152344 122.019531 195.320312 121.351562 196.523438 114.339844 C 198.007812 105.707031 198.007812 99.117188 196.515625 88.210938 C 195.03125 77.363281 192.496094 68.921875 187.667969 58.742188 C 181.546875 45.839844 177.410156 40.0625 167.378906 30.425781 C 155.375 18.886719 145.039062 12.515625 130.96875 7.976562 C 116.664062 3.363281 115.214844 3.136719 99.882812 3.15625 C 80.9375 3.179688 72.273438 5.046875 57.550781 12.285156 C 44.378906 18.761719 39.308594 22.175781 31.992188 29.507812 C 21.132812 40.382812 12.574219 52.859375 8.296875 64.035156 C 4.152344 74.871094 1.316406 89.929688 1.320312 101.101562 C 1.320312 111.03125 4.375 128.773438 6.59375 131.738281 C 6.90625 132.15625 7.394531 133.800781 7.683594 135.398438 C 7.96875 136.992188 9.203125 139.921875 10.425781 141.910156 C 11.644531 143.898438 12.644531 145.785156 12.644531 146.109375 C 12.644531 146.429688 14.925781 150.136719 17.710938 154.347656 C 22.191406 161.109375 32.488281 172.507812 38.324219 177.160156 C 51.921875 187.996094 72.109375 196.289062 88.554688 197.789062 C 99.332031 198.773438 101.441406 198.78125 110.117188 197.890625 Z M 86.289062 193.414062 C 72.707031 191.226562 67.210938 189.445312 55.539062 183.4375 C 43.773438 177.386719 32.804688 167.941406 24.082031 156.347656 C 10.285156 138.011719 2.867188 111.226562 5.847656 90.511719 C 7.839844 76.664062 10.304688 68.648438 15.785156 58.179688 C 19.054688 51.9375 23.292969 45.039062 24.734375 43.609375 C 24.945312 43.402344 26.105469 41.902344 27.316406 40.277344 C 30.6875 35.753906 37.597656 29.15625 42.15625 26.113281 C 57.542969 15.84375 60.269531 14.375 69.292969 11.546875 C 72.824219 10.441406 76.734375 9.199219 77.980469 8.785156 C 79.226562 8.375 84.21875 7.644531 89.074219 7.167969 C 106.90625 5.410156 126.089844 8.746094 141.039062 16.199219 C 150.023438 20.679688 160.78125 28.628906 167.644531 35.863281 C 171.714844 40.152344 184.105469 58.140625 184.105469 59.761719 C 184.105469 60.175781 185.09375 62.582031 186.308594 65.109375 C 188.535156 69.761719 190.71875 77.128906 192.441406 85.808594 C 193.726562 92.289062 192.964844 115.015625 191.269531 120.769531 C 190.59375 123.058594 189.707031 126.28125 189.300781 127.925781 C 188.890625 129.574219 188.28125 131.277344 187.941406 131.710938 C 187.601562 132.140625 186.625 134.539062 185.765625 137.035156 C 182.515625 146.503906 177.222656 154.472656 166.90625 165.425781 C 157.523438 175.386719 147.078125 182.355469 133.011719 188.042969 C 125.382812 191.128906 119.703125 192.394531 107.320312 193.769531 C 95.410156 195.09375 96.875 195.117188 86.289062 193.414062 Z M 71.546875 164.8125 L 75.875 164.832031 L 76.101562 134.84375 C 76.359375 101.265625 76.421875 99.003906 82.171875 89.914062 C 83.960938 87.082031 89.4375 84.378906 95.617188 83.277344 C 102.097656 82.117188 123.675781 81.8125 123.675781 82.878906 C 123.675781 83.253906 122.128906 86.882812 120.234375 90.941406 C 116.261719 99.460938 115.554688 102.152344 116.878906 103.75 C 118.261719 105.417969 120.066406 105.144531 123.375 102.761719 C 124.996094 101.59375 133.761719 95.617188 142.855469 89.480469 C 162.15625 76.453125 162.898438 75.925781 162.929688 75.246094 C 162.953125 74.738281 153.144531 67.449219 137.652344 56.472656 C 133.25 53.351562 129.234375 50.457031 128.730469 50.039062 C 124.984375 46.957031 120.476562 44.367188 118.847656 44.367188 C 115.285156 44.367188 115.503906 47.238281 119.820312 57.078125 C 121.957031 61.945312 123.695312 66.183594 123.691406 66.496094 C 123.683594 66.804688 118.835938 67.0625 112.914062 67.0625 C 95.902344 67.0625 87.097656 69.125 78.5625 75.097656 C 72.878906 79.074219 71.191406 80.847656 67.117188 87.109375 C 62.285156 94.53125 61.941406 97.277344 61.390625 133.0625 L 60.902344 164.644531 L 62.71875 164.644531 C 63.71875 164.644531 67.0625 165.007812 70.238281 164.738281 Z M 71.546875 164.8125 "/>
</g>
</svg>
