<?xml version="1.0" encoding="UTF-8" standalone="no"?>
<!-- Created with Inkscape (http://www.inkscape.org/) -->

<svg
   xmlns:dc="http://purl.org/dc/elements/1.1/"
   xmlns:cc="http://creativecommons.org/ns#"
   xmlns:rdf="http://www.w3.org/1999/02/22-rdf-syntax-ns#"
   xmlns:svg="http://www.w3.org/2000/svg"
   xmlns="http://www.w3.org/2000/svg"
   xmlns:sodipodi="http://sodipodi.sourceforge.net/DTD/sodipodi-0.dtd"
   xmlns:inkscape="http://www.inkscape.org/namespaces/inkscape"
   width="617.63678"
   height="613.92725"
   id="svg2"
   version="1.1"
   inkscape:version="0.48.0 r9654"
   sodipodi:docname="sentidoobligatorio400-d.svg">
  <defs
     id="defs4" />
  <sodipodi:namedview
     id="base"
     pagecolor="#ffffff"
     bordercolor="#666666"
     borderopacity="1.0"
     inkscape:pageopacity="0.0"
     inkscape:pageshadow="2"
     inkscape:zoom="0.55915942"
     inkscape:cx="245.76943"
     inkscape:cy="233.87998"
     inkscape:document-units="px"
     inkscape:current-layer="layer1"
     showgrid="false"
     fit-margin-top="0"
     fit-margin-left="0"
     fit-margin-right="0"
     fit-margin-bottom="0"
     inkscape:window-width="1280"
     inkscape:window-height="750"
     inkscape:window-x="-8"
     inkscape:window-y="-8"
     inkscape:window-maximized="1" />
  <metadata
     id="metadata7">
    <rdf:RDF>
      <cc:Work
         rdf:about="">
        <dc:format>image/svg+xml</dc:format>
        <dc:type
           rdf:resource="http://purl.org/dc/dcmitype/StillImage" />
        <dc:title></dc:title>
      </cc:Work>
    </rdf:RDF>
  </metadata>
  <g
     inkscape:label="Capa 1"
     inkscape:groupmode="layer"
     id="layer1"
     transform="translate(-6.6938286,-251.62091)">
    <path
       sodipodi:type="arc"
       style="fill:#ffffff;fill-opacity:1;fill-rule:nonzero;stroke:none"
       id="path3786"
       sodipodi:cx="-550.82678"
       sodipodi:cy="41.639648"
       sodipodi:rx="221.76144"
       sodipodi:ry="221.76144"
       d="m -329.06534,41.639648 a 221.76144,221.76144 0 1 1 -443.52289,0 221.76144,221.76144 0 1 1 443.52289,0 z"
       transform="matrix(-1.3660163,0,0,1.3660163,-492.82941,502.85153)" />
    <path
       inkscape:connector-curvature="0"
       id="path3767"
       d="m 671.93399,863.04467 c -0.77171,-0.7717 -2.77475,-0.85419 -4.4512,-0.18333 -1.85263,0.74134 -1.30233,1.29165 1.40309,1.40308 2.44816,0.10079 3.81981,-0.44805 3.04811,-1.21975 z m -324.50226,-0.7584 c 42.29786,-5.76713 60.19782,-10.88845 96.37819,-27.57456 50.36665,-23.2287 82.77076,-49.77127 118.69015,-97.22048 32.95057,-43.52741 51.66393,-94.512 56.81705,-154.79818 4.08894,-47.83634 -0.25821,-78.80871 -18.65136,-132.88617 -5.62301,-16.53216 -29.17251,-61.32249 -34.74765,-66.08883 -0.74703,-0.63865 -4.29195,-5.48815 -7.87762,-10.77666 -10.1389,-14.9539 -52.1994,-54.75326 -71.37974,-67.54242 -9.51764,-6.34622 -24.09773,-14.72194 -32.40018,-18.6127 -40.03711,-18.76252 -39.40034,-18.55951 -89.40649,-28.50348 -38.88045,-7.73157 -85.05183,-5.89179 -123.09,4.90474 -31.30758,8.88617 -62.0983,20.34353 -73.15452,27.22111 -48.04553,29.88703 -76.193322,54.81911 -100.293752,88.83582 -39.03595,55.09758 -54.8521,102.72599 -57.01169,171.68393 -1.03447,33.03138 -0.51004,41.84413 3.80051,63.86506 7.85143,40.11002 24.69299,80.65251 48.718539,117.27947 16.757711,25.54714 65.792123,72.06136 92.013373,87.28419 16.99603,9.86711 59.39465,28.8341 64.45546,28.8341 2.39782,0 6.44064,1.11369 8.98405,2.47487 15.06335,8.06168 90.11794,15.44302 118.15568,11.62019 z m -65.13855,-4.92845 c -13.10546,-1.34488 -29.53235,-3.931 -36.50421,-5.74693 -18.15546,-4.72891 -53.79909,-18.36942 -72.15354,-27.61258 C 139.92515,807.02207 93.074528,766.19583 68.978688,732.79903 58.698757,718.55108 35.313528,670.72728 29.445168,651.9513 c -8.59921,-27.51342 -9.11499,-29.56887 -12.82067,-51.09205 -4.56275,-26.5011 -4.55435,-46.73455 0.0334,-80.21489 4.5638,-33.30676 12.35736,-59.22763 27.20403,-90.479 18.816739,-39.60811 31.53673,-57.33639 62.371322,-86.92906 36.90999,-35.42336 68.68927,-54.98594 111.9566,-68.91787 43.98277,-14.1623 48.42792,-14.85048 95.56754,-14.79531 58.2512,0.0682 84.88844,5.80394 130.1636,28.02796 40.49023,19.87526 56.08214,30.36579 78.58291,52.87209 33.38176,33.38994 59.70049,71.68508 72.84876,105.99875 12.74449,33.25992 21.46166,79.48982 21.45749,113.79593 -0.004,30.47566 -9.39613,84.94636 -16.21811,94.05581 -0.95656,1.27731 -2.46189,6.3295 -3.34517,11.22709 -0.88329,4.89761 -4.67728,13.89624 -8.4311,19.99696 -3.75381,6.10074 -6.82512,11.9001 -6.82512,12.88746 0,0.98738 -7.01043,12.3675 -15.57873,25.28919 -13.77085,20.7675 -45.43174,55.75339 -63.38171,70.03798 -41.80297,33.26682 -103.87941,58.7232 -154.43733,63.33184 -33.13088,3.02008 -39.62667,3.0508 -66.29974,0.31364 z m 73.26683,-13.74613 c 41.75447,-6.71192 58.65721,-12.18634 94.54701,-30.62167 36.17626,-18.58248 69.89827,-47.58154 96.71395,-83.16861 42.41601,-56.29032 65.22862,-138.52877 56.06634,-202.11668 -6.12582,-42.51432 -13.69991,-67.11752 -30.55775,-99.26194 -10.04758,-19.15866 -23.07735,-40.34203 -27.50994,-44.72474 -0.64591,-0.63865 -4.2209,-5.24451 -7.94442,-10.23525 -10.36347,-13.89046 -31.60608,-34.13551 -45.62099,-43.47862 -47.30634,-31.53701 -55.69849,-36.03453 -83.44096,-44.71765 -10.85706,-3.39815 -22.87531,-7.21426 -26.70721,-8.48023 -3.83191,-1.26598 -19.184,-3.50274 -34.11574,-4.97058 -54.8205,-5.38905 -113.80172,4.84907 -159.76475,27.73239 -27.62963,13.75579 -60.70158,38.16009 -81.8049,60.36511 -12.515562,13.16892 -50.607033,68.38979 -50.607033,73.36455 0,1.26855 -3.0481,8.65943 -6.77359,16.42418 -6.852819,14.28286 -13.565429,36.89766 -18.862469,63.54769 -3.95227,19.88445 -1.6048,89.6607 3.61089,107.32972 2.07373,7.02516 4.79728,16.91212 6.05231,21.97104 1.25503,5.05893 3.13353,10.28425 4.17443,11.61183 1.04091,1.32758 4.049209,8.68419 6.685099,16.34799 9.99836,29.07008 26.275891,53.53291 57.991803,87.15347 28.8504,30.58298 60.95813,51.97891 104.20706,69.44141 23.4602,9.47246 40.92989,13.36057 78.99136,17.58049 36.62979,4.06122 32.12593,4.13741 64.6695,-1.0939 z m 45.31974,-87.80513 -13.29715,0.0629 -0.70505,-92.06654 c -0.78941,-103.08262 -0.97948,-110.03167 -18.65686,-137.93645 -5.50573,-8.6911 -22.33831,-16.98778 -41.34176,-20.37709 -19.92699,-3.55401 -86.27611,-4.49452 -86.27611,-1.22295 0,1.15923 4.76246,12.30013 10.58326,24.75751 12.21957,26.15181 14.38949,34.41639 10.32282,39.31642 -4.25815,5.13076 -9.80605,4.29041 -19.97704,-3.02595 -4.98152,-3.58339 -31.93311,-21.9331 -59.89242,-40.7771 -59.3401,-39.99406 -61.63044,-41.61549 -61.72668,-43.69905 -0.0721,-1.56388 30.08718,-23.93151 77.71879,-57.64 13.53663,-9.57976 25.88293,-18.46281 27.4362,-19.74011 11.51541,-9.46948 25.38118,-17.41775 30.38533,-17.41775 10.95134,0 10.27586,8.80801 -2.99254,39.02102 -6.56175,14.94153 -11.91406,27.95021 -11.89406,28.90818 0.0209,0.95798 14.92856,1.74321 33.1301,1.74495 52.31002,0.005 79.37782,6.32605 105.61275,24.66334 17.47892,12.21714 22.67224,17.65791 35.19899,36.87618 14.85829,22.79528 15.90939,31.21794 17.60613,141.08372 l 1.4974,96.95878 -5.58183,0 c -3.07001,0 -13.35393,1.11252 -23.1264,0.28643 z"
       style="fill:#092d78;fill-opacity:1"
       sodipodi:nodetypes="sscssssssssssssssssssssscsssssssssssssssssssssccssssssssssssssssssssssssccsssssssscsssscsssscscc" />
  </g>
</svg>
