<?xml version="1.0" encoding="UTF-8"?>
<svg xmlns="http://www.w3.org/2000/svg" xmlns:xlink="http://www.w3.org/1999/xlink" width="250px" height="200px" viewBox="0 0 201 200" version="1.1">
<g id="surface1">
<path style=" stroke:none;fill-rule:nonzero;fill:rgb(100%,100%,100%);fill-opacity:1;" d="M -16.265625 100.363281 C -16.265625 154.859375 27.84375 199.035156 82.257812 199.035156 C 136.671875 199.035156 180.785156 154.859375 180.785156 100.363281 C 180.785156 45.867188 136.671875 1.6875 82.257812 1.6875 C 27.84375 1.6875 -16.265625 45.867188 -16.265625 100.363281 Z M -16.265625 100.363281 "/>
<path style=" stroke:none;fill-rule:nonzero;fill:rgb(3.529412%,17.647059%,47.058824%);fill-opacity:1;" d="M 216.363281 199.160156 C 216.113281 198.910156 215.460938 198.882812 214.917969 199.101562 C 214.3125 199.34375 214.492188 199.523438 215.375 199.558594 C 216.167969 199.589844 216.617188 199.414062 216.363281 199.160156 Z M 110.824219 198.914062 C 124.578125 197.035156 130.402344 195.367188 142.167969 189.933594 C 158.550781 182.367188 169.089844 173.71875 180.773438 158.265625 C 191.488281 144.085938 197.574219 127.476562 199.25 107.839844 C 200.582031 92.257812 199.167969 82.171875 193.183594 64.554688 C 191.355469 59.171875 183.695312 44.582031 181.882812 43.027344 C 181.640625 42.820312 180.488281 41.242188 179.320312 39.519531 C 176.023438 34.648438 162.34375 21.683594 156.105469 17.515625 C 153.011719 15.449219 148.269531 12.722656 145.566406 11.453125 C 132.546875 5.34375 132.753906 5.410156 116.488281 2.171875 C 103.84375 -0.347656 88.828125 0.25 76.453125 3.769531 C 66.273438 6.664062 56.257812 10.394531 52.660156 12.632812 C 37.035156 22.371094 27.878906 30.492188 20.042969 41.570312 C 7.347656 59.519531 2.203125 75.03125 1.5 97.496094 C 1.164062 108.253906 1.332031 111.125 2.734375 118.296875 C 5.289062 131.363281 10.765625 144.570312 18.582031 156.5 C 24.03125 164.820312 39.980469 179.972656 48.507812 184.929688 C 54.035156 188.144531 67.824219 194.324219 69.472656 194.324219 C 70.25 194.324219 71.566406 194.683594 72.394531 195.128906 C 77.292969 197.753906 101.703125 200.160156 110.824219 198.914062 Z M 89.636719 197.308594 C 85.375 196.871094 80.03125 196.027344 77.765625 195.4375 C 71.859375 193.894531 60.265625 189.453125 54.296875 186.441406 C 43.332031 180.914062 28.09375 167.613281 20.257812 156.734375 C 16.914062 152.09375 9.308594 136.515625 7.398438 130.402344 C 4.601562 121.4375 4.433594 120.769531 3.230469 113.757812 C 1.746094 105.125 1.75 98.535156 3.242188 87.628906 C 4.726562 76.78125 7.261719 68.335938 12.089844 58.15625 C 18.207031 45.257812 22.347656 39.480469 32.375 29.84375 C 44.378906 18.304688 54.714844 11.929688 68.789062 7.394531 C 83.09375 2.78125 84.539062 2.554688 99.871094 2.574219 C 118.816406 2.597656 127.480469 4.464844 142.203125 11.703125 C 155.375 18.175781 160.445312 21.59375 167.761719 28.925781 C 178.621094 39.800781 187.179688 52.277344 191.457031 63.453125 C 195.601562 74.285156 198.4375 89.34375 198.4375 100.519531 C 198.433594 110.445312 195.378906 128.191406 193.160156 131.15625 C 192.851562 131.574219 192.359375 133.21875 192.074219 134.8125 C 191.785156 136.410156 190.550781 139.339844 189.332031 141.328125 C 188.109375 143.316406 187.109375 145.203125 187.109375 145.527344 C 187.109375 145.847656 184.832031 149.554688 182.042969 153.761719 C 177.566406 160.527344 167.269531 171.925781 161.429688 176.578125 C 147.832031 187.414062 127.644531 195.707031 111.199219 197.207031 C 100.425781 198.191406 98.3125 198.199219 89.636719 197.308594 Z M 113.464844 192.832031 C 127.046875 190.644531 132.542969 188.863281 144.21875 182.855469 C 155.984375 176.804688 166.949219 167.359375 175.671875 155.765625 C 189.46875 137.429688 196.886719 110.640625 193.90625 89.929688 C 191.914062 76.082031 189.453125 68.066406 183.96875 57.597656 C 180.699219 51.355469 176.464844 44.457031 175.023438 43.027344 C 174.8125 42.820312 173.648438 41.320312 172.4375 39.695312 C 169.066406 35.167969 162.15625 28.574219 157.601562 25.53125 C 142.214844 15.257812 139.484375 13.792969 130.460938 10.964844 C 126.929688 9.859375 123.019531 8.617188 121.773438 8.203125 C 120.527344 7.792969 115.535156 7.0625 110.679688 6.585938 C 92.847656 4.828125 73.664062 8.164062 58.714844 15.617188 C 49.730469 20.097656 38.972656 28.046875 32.109375 35.28125 C 28.039062 39.570312 15.652344 57.558594 15.652344 59.179688 C 15.652344 59.589844 14.660156 62 13.449219 64.527344 C 11.21875 69.179688 9.035156 76.546875 7.3125 85.226562 C 6.027344 91.703125 6.789062 114.433594 8.488281 120.1875 C 9.160156 122.476562 10.046875 125.695312 10.457031 127.34375 C 10.863281 128.992188 11.476562 130.695312 11.8125 131.128906 C 12.152344 131.558594 13.128906 133.957031 13.988281 136.453125 C 17.238281 145.921875 22.535156 153.890625 32.847656 164.839844 C 42.230469 174.804688 52.675781 181.773438 66.742188 187.460938 C 74.371094 190.546875 80.054688 191.8125 92.433594 193.1875 C 104.347656 194.511719 102.882812 194.535156 113.464844 192.832031 Z M 128.207031 164.230469 L 123.882812 164.25 L 123.652344 134.261719 C 123.394531 100.683594 123.332031 98.421875 117.582031 89.332031 C 115.792969 86.5 110.320312 83.796875 104.136719 82.691406 C 97.65625 81.535156 76.078125 81.230469 76.078125 82.296875 C 76.078125 82.671875 77.625 86.300781 79.519531 90.359375 C 83.492188 98.878906 84.199219 101.570312 82.875 103.164062 C 81.492188 104.835938 79.6875 104.5625 76.378906 102.179688 C 74.757812 101.011719 65.992188 95.035156 56.898438 88.898438 C 37.601562 75.871094 36.855469 75.34375 36.824219 74.664062 C 36.800781 74.152344 46.609375 66.867188 62.101562 55.886719 C 66.503906 52.769531 70.519531 49.875 71.023438 49.457031 C 74.769531 46.375 79.28125 43.785156 80.90625 43.785156 C 84.46875 43.785156 84.25 46.652344 79.933594 56.496094 C 77.800781 61.363281 76.058594 65.597656 76.066406 65.910156 C 76.070312 66.222656 80.921875 66.480469 86.839844 66.480469 C 103.855469 66.480469 112.65625 68.539062 121.191406 74.515625 C 126.875 78.492188 128.566406 80.265625 132.640625 86.527344 C 137.472656 93.949219 137.8125 96.695312 138.363281 132.480469 L 138.851562 164.0625 L 137.035156 164.0625 C 136.039062 164.0625 132.691406 164.425781 129.515625 164.15625 Z M 128.207031 164.230469 "/>
</g>
</svg>
