<?xml version="1.0" encoding="UTF-8"?>
<svg xmlns="http://www.w3.org/2000/svg" xmlns:xlink="http://www.w3.org/1999/xlink" width="250px" height="200px" viewBox="0 0 202 200" version="1.1">
<g id="surface1">
<path style="fill-rule:nonzero;fill:rgb(100%,100%,100%);fill-opacity:1;stroke-width:1;stroke-linecap:round;stroke-linejoin:round;stroke:rgb(0%,0%,100%);stroke-opacity:1;stroke-miterlimit:4;" d="M 735.386854 381.012496 C 735.386854 547.831491 600.162363 683.058068 433.355915 683.058068 C 266.549467 683.058068 131.324976 547.831491 131.324976 381.012496 C 131.324976 214.205487 266.549467 78.97891 433.355915 78.97891 C 600.162363 78.97891 735.386854 214.205487 735.386854 381.012496 Z M 735.386854 381.012496 " transform="matrix(0.325789,0,0,0.325929,-39.753017,-23.257116)"/>
<path style=" stroke:none;fill-rule:nonzero;fill:rgb(3.529412%,17.647059%,47.058824%);fill-opacity:1;" d="M -0.488281 200.007812 C -0.265625 199.785156 0.308594 199.761719 0.789062 199.957031 C 1.320312 200.167969 1.164062 200.328125 0.386719 200.359375 C -0.316406 200.386719 -0.710938 200.230469 -0.488281 200.007812 Z M 87.683594 199.441406 C 80.125 198.164062 76.441406 197.28125 70.347656 195.292969 C 34.554688 183.625 7.492188 151.4375 2.558594 114.671875 C 2.09375 111.195312 1.523438 108.351562 1.292969 108.351562 C 1.0625 108.351562 1.28125 101.730469 1.265625 104.234375 C 1.25 107.917969 1.335938 94.351562 1.210938 99.359375 C 0.933594 110.328125 1.332031 94.582031 1.3125 96.273438 C 1.296875 97.742188 1.351562 91.613281 1.371094 92.808594 C 1.4375 96.515625 1.800781 91.886719 2.296875 87.503906 C 4.65625 66.542969 14.945312 45.855469 30.925781 29.917969 C 43.023438 17.855469 54.574219 10.726562 70.746094 5.34375 C 113.339844 -8.84375 160.5625 8.15625 185.5 46.644531 C 190.003906 53.59375 192.992188 59.898438 196.144531 69.089844 C 198.929688 77.214844 200.886719 87.695312 201.027344 97.558594 C 201.152344 106.429688 199.1875 96.703125 198.699219 91.675781 C 195.925781 63.171875 181.125 37.246094 158.363281 21.027344 C 128.632812 -0.164062 89.8125 -3.222656 57.675781 13.09375 C 38.019531 23.074219 23.953125 37.058594 14.351562 56.171875 C 7.875 69.054688 5.0625 79.28125 4.070312 93.507812 C 2.804688 111.691406 6.070312 128.066406 14.144531 144.042969 C 24.347656 164.230469 38.84375 178.59375 58.707031 188.199219 C 70.730469 194.011719 81.273438 196.792969 94.542969 197.660156 C 116.558594 199.097656 136.734375 193.855469 155.136719 181.925781 C 180.289062 165.617188 197.269531 134.988281 199.355469 104.476562 C 200.0625 94.136719 202.566406 95.105469 200.816406 109.773438 L 199.515625 120.699219 L 196.230469 131.441406 C 191.234375 147.78125 183.773438 158.785156 171.789062 170.714844 C 156.949219 185.496094 140.78125 194.25 120.566406 198.453125 C 111.84375 200.265625 95.480469 200.757812 87.683594 199.441406 Z M 93.015625 192.632812 C 64.636719 189.226562 40.851562 175.332031 25.449219 153.160156 C 21.523438 147.507812 15.53125 135.617188 13.421875 129.28125 C 8.230469 113.714844 7.492188 95.734375 11.355469 79.179688 C 19.09375 46.019531 44.84375 19.558594 77.738281 10.964844 C 87.195312 8.496094 97.886719 7.339844 106.019531 7.910156 C 149.804688 10.96875 184.027344 41.132812 192.460938 84.085938 C 194.007812 91.976562 194.027344 107.753906 192.496094 116.171875 C 185.210938 156.257812 153.324219 186.796875 113.246094 192.085938 C 106.367188 192.996094 97.929688 193.222656 93.015625 192.632812 Z M 76.570312 130.832031 C 76.964844 130.355469 77.378906 127.429688 77.484375 124.328125 L 77.679688 118.691406 L 125.023438 118.691406 L 125.21875 124.328125 C 125.328125 127.429688 125.738281 130.355469 126.136719 130.832031 C 127.105469 132 136.402344 132.03125 137.152344 130.867188 C 137.449219 130.40625 137.84375 127.5 138.027344 124.402344 L 138.359375 118.773438 L 140.519531 118.214844 C 142.996094 117.574219 143.972656 115.214844 142.925781 112.402344 C 142.574219 111.460938 142.496094 109.9375 142.757812 109.019531 C 143.519531 106.320312 143.425781 96.058594 142.613281 93.734375 C 142.183594 92.492188 140.847656 90.941406 139.449219 90.050781 C 137.21875 88.632812 136.824219 87.867188 134.46875 80.332031 C 132.839844 75.121094 131.339844 71.582031 130.332031 70.574219 L 128.753906 68.992188 L 73.953125 68.992188 L 72.414062 70.535156 C 71.492188 71.453125 69.742188 75.480469 68.050781 80.554688 C 65.570312 88 64.980469 89.160156 63.230469 90.066406 C 60.367188 91.546875 59.335938 94.613281 59.390625 101.492188 C 59.417969 104.714844 59.675781 107.953125 59.964844 108.6875 C 60.265625 109.453125 60.140625 111.015625 59.671875 112.355469 C 58.5625 115.523438 59.398438 117.496094 62.144531 118.207031 L 64.34375 118.773438 L 64.539062 124.371094 C 64.648438 127.449219 65.058594 130.355469 65.457031 130.832031 C 65.925781 131.398438 67.855469 131.699219 71.011719 131.699219 C 74.167969 131.699219 76.101562 131.398438 76.570312 130.832031 Z M 64.792969 104.140625 C 62.679688 101.886719 62.828125 98.183594 65.101562 96.394531 C 66.066406 95.632812 67.253906 95.011719 67.738281 95.011719 C 69.597656 95.011719 71.953125 96.59375 72.671875 98.328125 C 74.851562 103.589844 68.605469 108.199219 64.792969 104.140625 Z M 130.996094 104.046875 C 128.453125 101.503906 129.207031 97.234375 132.464844 95.75 C 134.75 94.710938 135.597656 94.816406 137.605469 96.394531 C 138.96875 97.46875 139.359375 98.359375 139.359375 100.394531 C 139.359375 105.347656 134.441406 107.496094 130.996094 104.046875 Z M 71.242188 88.015625 C 70.886719 87.65625 74.238281 74.921875 75.027344 73.644531 C 75.273438 73.242188 85.328125 72.996094 101.367188 72.996094 C 125.40625 72.996094 127.355469 73.082031 127.90625 74.164062 C 128.773438 75.875 131.699219 87.5625 131.335938 87.871094 C 131.164062 88.015625 126.375 87.859375 120.691406 87.519531 C 110.820312 86.925781 74.371094 87.320312 72.503906 88.039062 C 72.011719 88.226562 71.445312 88.214844 71.242188 88.015625 Z M 71.242188 88.015625 "/>
</g>
</svg>
