<?xml version="1.0" encoding="UTF-8"?>
<svg xmlns="http://www.w3.org/2000/svg" xmlns:xlink="http://www.w3.org/1999/xlink" width="250px" height="200px" viewBox="0 0 133 200" version="1.1">
<g id="surface1">
<path style="fill-rule:nonzero;fill:rgb(100%,100%,100%);fill-opacity:1;stroke-width:0.8;stroke-linecap:butt;stroke-linejoin:miter;stroke:rgb(10.980392%,11.372549%,12.54902%);stroke-opacity:1;stroke-miterlimit:3.864;" d="M 150.955651 217.866797 C 150.955651 222.486602 147.212582 226.232988 142.5914 226.232988 L 8.763393 226.232988 C 4.142211 226.232988 0.399142 222.486602 0.399142 217.866797 L 0.399142 8.765215 C 0.399142 4.149844 4.142211 0.399023 8.763393 0.399023 L 142.5914 0.399023 C 147.212582 0.399023 150.955651 4.149844 150.955651 8.765215 Z M 150.955651 217.866797 " transform="matrix(0.880795,0,0,0.881057,0,0.000000000000012521)"/>
<path style=" stroke:none;fill-rule:nonzero;fill:rgb(9.803922%,25.098039%,54.509804%);fill-opacity:1;" d="M 129.71875 7.722656 C 129.71875 5.449219 127.878906 3.597656 125.59375 3.597656 L 7.71875 3.597656 C 5.4375 3.597656 3.59375 5.449219 3.59375 7.722656 L 3.59375 191.953125 C 3.59375 194.230469 5.4375 196.082031 7.71875 196.082031 L 125.59375 196.082031 C 127.875 196.082031 129.71875 194.234375 129.71875 191.953125 L 129.71875 7.722656 "/>
<path style=" stroke:none;fill-rule:nonzero;fill:rgb(100%,100%,100%);fill-opacity:1;" d="M 19.507812 123.421875 L 51.921875 123.421875 L 51.921875 135.949219 L 71.078125 135.949219 L 71.078125 148.472656 L 92.445312 148.472656 L 92.445312 161.003906 L 113.804688 161.003906 L 113.804688 172.792969 L 82.128906 172.792969 L 82.128906 161.003906 L 62.972656 161.003906 L 62.972656 148.472656 L 42.34375 148.472656 L 42.34375 135.949219 L 19.507812 135.949219 L 19.507812 123.421875 "/>
<path style=" stroke:none;fill-rule:nonzero;fill:rgb(100%,100%,100%);fill-opacity:1;" d="M 88.667969 67.238281 C 88.667969 67.238281 87.117188 65.9375 87.117188 67.628906 C 86.988281 67.628906 86.988281 140.421875 86.988281 140.421875 C 86.988281 140.421875 84.90625 147.050781 76.980469 146.140625 C 76.980469 146.269531 76.980469 91.808594 76.980469 91.808594 L 64.890625 108.3125 L 64.890625 127.816406 C 64.890625 127.816406 62.296875 135.222656 55.015625 134.320312 C 55.015625 134.183594 55.015625 104.414062 55.015625 104.414062 L 66.714844 88.171875 L 66.714844 67.242188 L 46.960938 90.644531 C 46.960938 90.644531 41.375 93.890625 37.605469 91.15625 C 37.867188 91.15625 64.375 57.105469 64.375 57.105469 C 64.375 57.105469 67.492188 51.511719 77.757812 51.511719 C 77.757812 51.511719 82.828125 51.125 86.34375 53.59375 C 86.34375 53.855469 105.054688 69.453125 105.054688 69.453125 L 105.054688 92.332031 C 105.054688 92.332031 98.164062 94.023438 96.476562 90.121094 C 96.476562 89.992188 96.476562 74.136719 96.476562 74.136719 L 88.667969 67.238281 "/>
<path style=" stroke:none;fill-rule:nonzero;fill:rgb(100%,100%,100%);fill-opacity:1;" d="M 65.152344 37.34375 C 65.152344 31.027344 70.277344 25.90625 76.589844 25.90625 C 82.90625 25.90625 88.023438 31.027344 88.023438 37.34375 C 88.023438 43.660156 82.90625 48.785156 76.589844 48.785156 C 70.28125 48.785156 65.152344 43.660156 65.152344 37.34375 "/>
</g>
</svg>
