<?xml version="1.0" encoding="UTF-8"?>
<svg xmlns="http://www.w3.org/2000/svg" xmlns:xlink="http://www.w3.org/1999/xlink" width="250px" height="200px" viewBox="0 0 129 200" version="1.1">
<g id="surface1">
<path style="fill-rule:nonzero;fill:rgb(100%,100%,100%);fill-opacity:1;stroke-width:0.8;stroke-linecap:butt;stroke-linejoin:miter;stroke:rgb(10.980392%,11.372549%,12.54902%);stroke-opacity:1;stroke-miterlimit:3.864;" d="M 147.022257 217.866797 C 147.022257 222.486602 143.376635 226.232988 138.876363 226.232988 L 8.54206 226.232988 C 4.041788 226.232988 0.400618 222.486602 0.400618 217.866797 L 0.400618 8.765215 C 0.400618 4.149844 4.041788 0.399023 8.54206 0.399023 L 138.876363 0.399023 C 143.376635 0.399023 147.022257 4.149844 147.022257 8.765215 Z M 147.022257 217.866797 " transform="matrix(0.877551,0,0,0.881057,0,-0.000000000000012521)"/>
<path style=" stroke:none;fill-rule:nonzero;fill:rgb(9.803922%,25.098039%,54.509804%);fill-opacity:1;" d="M 125.875 7.722656 C 125.875 5.449219 124.082031 3.597656 121.871094 3.597656 L 7.496094 3.597656 C 5.285156 3.597656 3.496094 5.449219 3.496094 7.722656 L 3.496094 191.953125 C 3.496094 194.230469 5.285156 196.082031 7.496094 196.082031 L 121.871094 196.082031 C 124.082031 196.082031 125.878906 194.234375 125.878906 191.953125 L 125.878906 7.722656 "/>
<path style=" stroke:none;fill-rule:nonzero;fill:rgb(100%,100%,100%);fill-opacity:1;" d="M 110.4375 123.421875 L 78.980469 123.421875 L 78.980469 135.949219 L 60.398438 135.949219 L 60.398438 148.472656 L 39.667969 148.472656 L 39.667969 161.003906 L 18.933594 161.003906 L 18.933594 172.792969 L 49.667969 172.792969 L 49.667969 161.003906 L 68.257812 161.003906 L 68.257812 148.472656 L 88.277344 148.472656 L 88.277344 135.949219 L 110.4375 135.949219 L 110.4375 123.421875 "/>
<path style=" stroke:none;fill-rule:nonzero;fill:rgb(100%,100%,100%);fill-opacity:1;" d="M 42.296875 36.5625 C 42.296875 30.316406 47.214844 25.253906 53.269531 25.253906 C 59.328125 25.253906 64.234375 30.316406 64.234375 36.5625 C 64.234375 42.8125 59.328125 47.875 53.269531 47.875 C 47.210938 47.871094 42.296875 42.8125 42.296875 36.5625 "/>
<path style=" stroke:none;fill-rule:nonzero;fill:rgb(100%,100%,100%);fill-opacity:1;" d="M 53.019531 97.007812 L 53.019531 138.34375 C 53.019531 138.34375 51.503906 144.839844 43.566406 144.839844 C 43.6875 144.839844 43.566406 68.152344 43.566406 68.152344 L 29.820312 88.558594 C 29.820312 88.558594 25.027344 93.496094 18.972656 91.152344 L 40.535156 57.625 C 40.535156 57.625 44.445312 51.121094 53.898438 51.121094 C 54.027344 50.996094 59.324219 50.34375 63.238281 53.460938 C 63.359375 53.589844 80.253906 68.796875 80.253906 68.796875 L 80.253906 91.546875 C 80.253906 91.546875 74.585938 91.9375 72.183594 88.816406 L 72.183594 72.441406 L 63.863281 64.769531 C 63.863281 64.769531 62.609375 63.601562 62.609375 65.292969 L 62.609375 101.167969 L 76.351562 122.230469 C 76.351562 122.230469 78.242188 128.199219 73.574219 132.359375 C 73.703125 132.109375 55.421875 105.71875 55.421875 105.71875 L 53.898438 97.65625 L 53.019531 97.007812 "/>
</g>
</svg>
