<?xml version="1.0" encoding="UTF-8"?>
<svg xmlns="http://www.w3.org/2000/svg" xmlns:xlink="http://www.w3.org/1999/xlink" width="250px" height="200px" viewBox="0 0 298 200" version="1.1">
<defs>
<clipPath id="clip1">
  <path d="M 186 17 L 282 17 L 282 108 L 186 108 Z M 186 17 "/>
</clipPath>
<clipPath id="clip2">
  <path d="M 292.785156 11.578125 C 292.785156 8.167969 290.03125 5.40625 286.628906 5.40625 L 11.558594 5.40625 C 8.152344 5.40625 5.394531 8.167969 5.394531 11.578125 L 5.394531 187.984375 C 5.394531 191.386719 8.152344 194.148438 11.558594 194.148438 L 286.625 194.148438 C 290.023438 194.148438 292.777344 191.386719 292.777344 187.984375 L 292.777344 11.578125 "/>
</clipPath>
<clipPath id="clip3">
  <path d="M 91 20 L 157 20 L 157 74 L 91 74 Z M 91 20 "/>
</clipPath>
<clipPath id="clip4">
  <path d="M 292.785156 11.578125 C 292.785156 8.167969 290.03125 5.40625 286.628906 5.40625 L 11.558594 5.40625 C 8.152344 5.40625 5.394531 8.167969 5.394531 11.578125 L 5.394531 187.984375 C 5.394531 191.386719 8.152344 194.148438 11.558594 194.148438 L 286.625 194.148438 C 290.023438 194.148438 292.777344 191.386719 292.777344 187.984375 L 292.777344 11.578125 "/>
</clipPath>
<clipPath id="clip5">
  <path d="M 150 110 L 168 110 L 168 129 L 150 129 Z M 150 110 "/>
</clipPath>
<clipPath id="clip6">
  <path d="M 292.785156 11.578125 C 292.785156 8.167969 290.03125 5.40625 286.628906 5.40625 L 11.558594 5.40625 C 8.152344 5.40625 5.394531 8.167969 5.394531 11.578125 L 5.394531 187.984375 C 5.394531 191.386719 8.152344 194.148438 11.558594 194.148438 L 286.625 194.148438 C 290.023438 194.148438 292.777344 191.386719 292.777344 187.984375 L 292.777344 11.578125 "/>
</clipPath>
<clipPath id="clip7">
  <path d="M 100 165 L 117 165 L 117 182 L 100 182 Z M 100 165 "/>
</clipPath>
<clipPath id="clip8">
  <path d="M 292.785156 11.578125 C 292.785156 8.167969 290.03125 5.40625 286.628906 5.40625 L 11.558594 5.40625 C 8.152344 5.40625 5.394531 8.167969 5.394531 11.578125 L 5.394531 187.984375 C 5.394531 191.386719 8.152344 194.148438 11.558594 194.148438 L 286.625 194.148438 C 290.023438 194.148438 292.777344 191.386719 292.777344 187.984375 L 292.777344 11.578125 "/>
</clipPath>
<clipPath id="clip9">
  <path d="M 134 128 L 195 128 L 195 184 L 134 184 Z M 134 128 "/>
</clipPath>
<clipPath id="clip10">
  <path d="M 292.785156 11.578125 C 292.785156 8.167969 290.03125 5.40625 286.628906 5.40625 L 11.558594 5.40625 C 8.152344 5.40625 5.394531 8.167969 5.394531 11.578125 L 5.394531 187.984375 C 5.394531 191.386719 8.152344 194.148438 11.558594 194.148438 L 286.625 194.148438 C 290.023438 194.148438 292.777344 191.386719 292.777344 187.984375 L 292.777344 11.578125 "/>
</clipPath>
<clipPath id="clip11">
  <path d="M 172 69 L 268 69 L 268 172 L 172 172 Z M 172 69 "/>
</clipPath>
<clipPath id="clip12">
  <path d="M 292.785156 11.578125 C 292.785156 8.167969 290.03125 5.40625 286.628906 5.40625 L 11.558594 5.40625 C 8.152344 5.40625 5.394531 8.167969 5.394531 11.578125 L 5.394531 187.984375 C 5.394531 191.386719 8.152344 194.148438 11.558594 194.148438 L 286.625 194.148438 C 290.023438 194.148438 292.777344 191.386719 292.777344 187.984375 L 292.777344 11.578125 "/>
</clipPath>
<clipPath id="clip13">
  <path d="M 212 27 L 257 27 L 257 97 L 212 97 Z M 212 27 "/>
</clipPath>
<clipPath id="clip14">
  <path d="M 292.785156 11.578125 C 292.785156 8.167969 290.03125 5.40625 286.628906 5.40625 L 11.558594 5.40625 C 8.152344 5.40625 5.394531 8.167969 5.394531 11.578125 L 5.394531 187.984375 C 5.394531 191.386719 8.152344 194.148438 11.558594 194.148438 L 286.625 194.148438 C 290.023438 194.148438 292.777344 191.386719 292.777344 187.984375 L 292.777344 11.578125 "/>
</clipPath>
<clipPath id="clip15">
  <path d="M 35 38 L 60 38 L 60 64 L 35 64 Z M 35 38 "/>
</clipPath>
<clipPath id="clip16">
  <path d="M 292.785156 11.578125 C 292.785156 8.167969 290.03125 5.40625 286.628906 5.40625 L 11.558594 5.40625 C 8.152344 5.40625 5.394531 8.167969 5.394531 11.578125 L 5.394531 187.984375 C 5.394531 191.386719 8.152344 194.148438 11.558594 194.148438 L 286.625 194.148438 C 290.023438 194.148438 292.777344 191.386719 292.777344 187.984375 L 292.777344 11.578125 "/>
</clipPath>
<clipPath id="clip17">
  <path d="M 12 64 L 78 64 L 78 121 L 12 121 Z M 12 64 "/>
</clipPath>
<clipPath id="clip18">
  <path d="M 292.785156 11.578125 C 292.785156 8.167969 290.03125 5.40625 286.628906 5.40625 L 11.558594 5.40625 C 8.152344 5.40625 5.394531 8.167969 5.394531 11.578125 L 5.394531 187.984375 C 5.394531 191.386719 8.152344 194.148438 11.558594 194.148438 L 286.625 194.148438 C 290.023438 194.148438 292.777344 191.386719 292.777344 187.984375 L 292.777344 11.578125 "/>
</clipPath>
<clipPath id="clip19">
  <path d="M 14 118 L 55 118 L 55 185 L 14 185 Z M 14 118 "/>
</clipPath>
<clipPath id="clip20">
  <path d="M 292.785156 11.578125 C 292.785156 8.167969 290.03125 5.40625 286.628906 5.40625 L 11.558594 5.40625 C 8.152344 5.40625 5.394531 8.167969 5.394531 11.578125 L 5.394531 187.984375 C 5.394531 191.386719 8.152344 194.148438 11.558594 194.148438 L 286.625 194.148438 C 290.023438 194.148438 292.777344 191.386719 292.777344 187.984375 L 292.777344 11.578125 "/>
</clipPath>
<clipPath id="clip21">
  <path d="M 98 45 L 104 45 L 104 51 L 98 51 Z M 98 45 "/>
</clipPath>
<clipPath id="clip22">
  <path d="M 292.785156 11.578125 C 292.785156 8.167969 290.03125 5.40625 286.628906 5.40625 L 11.558594 5.40625 C 8.152344 5.40625 5.394531 8.167969 5.394531 11.578125 L 5.394531 187.984375 C 5.394531 191.386719 8.152344 194.148438 11.558594 194.148438 L 286.625 194.148438 C 290.023438 194.148438 292.777344 191.386719 292.777344 187.984375 L 292.777344 11.578125 "/>
</clipPath>
<clipPath id="clip23">
  <path d="M 144 45 L 150 45 L 150 51 L 144 51 Z M 144 45 "/>
</clipPath>
<clipPath id="clip24">
  <path d="M 292.785156 11.578125 C 292.785156 8.167969 290.03125 5.40625 286.628906 5.40625 L 11.558594 5.40625 C 8.152344 5.40625 5.394531 8.167969 5.394531 11.578125 L 5.394531 187.984375 C 5.394531 191.386719 8.152344 194.148438 11.558594 194.148438 L 286.625 194.148438 C 290.023438 194.148438 292.777344 191.386719 292.777344 187.984375 L 292.777344 11.578125 "/>
</clipPath>
<clipPath id="clip25">
  <path d="M 102 27 L 146 27 L 146 37 L 102 37 Z M 102 27 "/>
</clipPath>
<clipPath id="clip26">
  <path d="M 292.785156 11.578125 C 292.785156 8.167969 290.03125 5.40625 286.628906 5.40625 L 11.558594 5.40625 C 8.152344 5.40625 5.394531 8.167969 5.394531 11.578125 L 5.394531 187.984375 C 5.394531 191.386719 8.152344 194.148438 11.558594 194.148438 L 286.625 194.148438 C 290.023438 194.148438 292.777344 191.386719 292.777344 187.984375 L 292.777344 11.578125 "/>
</clipPath>
<clipPath id="clip27">
  <path d="M 216 37 L 253 37 L 253 75 L 216 75 Z M 216 37 "/>
</clipPath>
<clipPath id="clip28">
  <path d="M 292.785156 11.578125 C 292.785156 8.167969 290.03125 5.40625 286.628906 5.40625 L 11.558594 5.40625 C 8.152344 5.40625 5.394531 8.167969 5.394531 11.578125 L 5.394531 187.984375 C 5.394531 191.386719 8.152344 194.148438 11.558594 194.148438 L 286.625 194.148438 C 290.023438 194.148438 292.777344 191.386719 292.777344 187.984375 L 292.777344 11.578125 "/>
</clipPath>
<clipPath id="clip29">
  <path d="M 5 5 L 293 5 L 293 195 L 5 195 Z M 5 5 "/>
</clipPath>
<clipPath id="clip30">
  <path d="M 292.785156 11.578125 C 292.785156 8.167969 290.03125 5.40625 286.628906 5.40625 L 11.558594 5.40625 C 8.152344 5.40625 5.394531 8.167969 5.394531 11.578125 L 5.394531 187.984375 C 5.394531 191.386719 8.152344 194.148438 11.558594 194.148438 L 286.625 194.148438 C 290.023438 194.148438 292.777344 191.386719 292.777344 187.984375 L 292.777344 11.578125 "/>
</clipPath>
</defs>
<g id="surface1">
<path style="fill-rule:nonzero;fill:rgb(100%,100%,100%);fill-opacity:1;stroke-width:0.8;stroke-linecap:butt;stroke-linejoin:miter;stroke:rgb(10.980392%,11.372549%,12.54902%);stroke-opacity:1;stroke-miterlimit:3.864;" d="M 214.737901 135.34875 C 214.737901 139.730625 211.175611 143.28 206.796023 143.28 L 8.339254 143.28 C 3.954029 143.28 0.400194 139.727812 0.400194 135.34875 L 0.400194 8.33625 C 0.400194 3.951562 3.954029 0.399375 8.339254 0.399375 L 206.793205 0.399375 C 211.175611 0.399375 214.732265 3.951562 214.732265 8.33625 L 214.732265 135.34875 Z M 214.737901 135.34875 " transform="matrix(1.386047,0,0,1.388889,0,0)"/>
<path style=" stroke:none;fill-rule:nonzero;fill:rgb(9.803922%,25.098039%,54.509804%);fill-opacity:1;" d="M 292.785156 11.578125 C 292.785156 8.167969 290.03125 5.40625 286.628906 5.40625 L 11.558594 5.40625 C 8.152344 5.40625 5.394531 8.167969 5.394531 11.578125 L 5.394531 187.984375 C 5.394531 191.386719 8.152344 194.148438 11.558594 194.148438 L 286.625 194.148438 C 290.023438 194.148438 292.777344 191.386719 292.777344 187.984375 L 292.777344 11.578125 "/>
<g clip-path="url(#clip1)" clip-rule="nonzero">
<g clip-path="url(#clip2)" clip-rule="nonzero">
<path style=" stroke:none;fill-rule:nonzero;fill:rgb(100%,100%,100%);fill-opacity:1;" d="M 262.324219 107.386719 L 262.324219 48.066406 L 281.539062 48.066406 L 234.183594 17.730469 L 224.871094 23.957031 L 224.871094 19.476562 L 215.941406 19.476562 L 215.941406 28.804688 L 186.828125 48.066406 L 206.042969 48.066406 L 206.042969 107.386719 L 262.324219 107.386719 "/>
</g>
</g>
<g clip-path="url(#clip3)" clip-rule="nonzero">
<g clip-path="url(#clip4)" clip-rule="nonzero">
<path style=" stroke:none;fill-rule:nonzero;fill:rgb(100%,100%,100%);fill-opacity:1;" d="M 102.015625 20.84375 L 96 36.792969 L 93.859375 36.792969 C 93.859375 36.792969 91.539062 36.597656 91.539062 39.121094 C 91.539062 38.925781 91.539062 60.320312 91.539062 60.320312 L 94.449219 62.269531 L 94.449219 71.976562 C 94.449219 71.976562 94.449219 73.355469 95.808594 73.355469 C 96.003906 73.535156 105.515625 73.355469 105.515625 73.355469 C 105.515625 73.355469 107.0625 73.355469 107.0625 71.785156 C 106.867188 71.785156 107.0625 62.269531 107.0625 62.269531 L 140.640625 62.269531 C 140.640625 62.269531 140.921875 71.785156 140.722656 71.785156 C 140.722656 73.355469 142.28125 73.355469 142.28125 73.355469 C 142.28125 73.355469 151.789062 73.535156 151.984375 73.355469 C 153.34375 73.355469 153.34375 71.976562 153.34375 71.976562 L 153.34375 62.269531 L 156.246094 60.320312 C 156.246094 60.320312 156.246094 38.925781 156.246094 39.121094 C 156.246094 36.597656 153.917969 36.792969 153.917969 36.792969 L 151.78125 36.792969 L 145.773438 20.84375 L 102.015625 20.84375 "/>
</g>
</g>
<g clip-path="url(#clip5)" clip-rule="nonzero">
<g clip-path="url(#clip6)" clip-rule="nonzero">
<path style=" stroke:none;fill-rule:nonzero;fill:rgb(100%,100%,100%);fill-opacity:1;" d="M 150.339844 119.628906 C 150.339844 114.796875 154.257812 110.878906 159.074219 110.878906 C 163.898438 110.878906 167.796875 114.796875 167.796875 119.628906 C 167.796875 124.46875 163.898438 128.375 159.074219 128.375 C 154.257812 128.375 150.339844 124.472656 150.339844 119.628906 "/>
</g>
</g>
<g clip-path="url(#clip7)" clip-rule="nonzero">
<g clip-path="url(#clip8)" clip-rule="nonzero">
<path style=" stroke:none;fill-rule:nonzero;fill:rgb(100%,100%,100%);fill-opacity:1;" d="M 100.269531 173.695312 C 100.269531 169.175781 103.921875 165.535156 108.425781 165.535156 C 112.925781 165.535156 116.570312 169.175781 116.570312 173.695312 C 116.570312 178.203125 112.925781 181.867188 108.425781 181.867188 C 103.921875 181.867188 100.269531 178.203125 100.269531 173.695312 "/>
</g>
</g>
<g clip-path="url(#clip9)" clip-rule="nonzero">
<g clip-path="url(#clip10)" clip-rule="nonzero">
<path style=" stroke:none;fill-rule:nonzero;fill:rgb(100%,100%,100%);fill-opacity:1;" d="M 151.707031 131.09375 C 151.511719 131.09375 136.175781 145.894531 136.175781 145.894531 C 136.175781 145.894531 133.84375 147.832031 135.59375 149.777344 C 135.789062 149.777344 140.054688 154.25 146.460938 149.390625 C 146.460938 149.199219 152.671875 144.527344 152.671875 144.527344 L 152.671875 179.527344 C 152.671875 179.527344 152.671875 183.8125 157.332031 183.429688 C 157.527344 183.230469 162.371094 184.59375 162.371094 178.359375 L 162.371094 160.46875 L 166.261719 160.46875 C 166.261719 160.46875 166.261719 165.71875 172.46875 165.132812 C 172.46875 164.953125 194.398438 163.1875 194.398438 163.1875 C 194.398438 163.1875 191.296875 154.640625 182.554688 154.824219 C 182.75 154.824219 177.507812 154.824219 177.507812 154.824219 C 177.507812 154.824219 175.179688 155.617188 174.023438 152.496094 C 174.023438 152.300781 170.328125 141.21875 170.328125 141.21875 L 170.523438 139.269531 L 177.125 145.6875 C 177.125 145.6875 180.808594 151.902344 187.207031 145.488281 C 187.207031 145.304688 181.574219 141.207031 181.183594 135.765625 C 180.996094 135.582031 177.894531 125.648438 165.667969 129.347656 C 165.472656 129.546875 154.222656 132.667969 154.601562 130.316406 C 154.613281 130.523438 152.480469 128.96875 151.707031 131.09375 "/>
</g>
</g>
<g clip-path="url(#clip11)" clip-rule="nonzero">
<g clip-path="url(#clip12)" clip-rule="nonzero">
<path style=" stroke:none;fill-rule:nonzero;fill:rgb(100%,100%,100%);fill-opacity:1;" d="M 172.859375 69.648438 C 172.859375 69.648438 168.972656 108.355469 204.878906 130.914062 L 263.105469 171.359375 L 267.371094 161.835938 L 215.746094 125.269531 C 215.746094 125.269531 185.671875 107.378906 182.953125 70.234375 C 182.757812 70.433594 172.859375 69.648438 172.859375 69.648438 "/>
</g>
</g>
<g clip-path="url(#clip13)" clip-rule="nonzero">
<g clip-path="url(#clip14)" clip-rule="nonzero">
<path style=" stroke:none;fill-rule:nonzero;fill:rgb(9.803922%,25.098039%,54.509804%);fill-opacity:1;" d="M 242.140625 73.355469 L 242.140625 96.882812 L 256.113281 96.882812 L 256.113281 45.933594 L 234.183594 27.453125 L 212.253906 45.933594 L 212.253906 96.882812 L 226.234375 96.882812 L 226.234375 73.355469 L 242.140625 73.355469 "/>
</g>
</g>
<g clip-path="url(#clip15)" clip-rule="nonzero">
<g clip-path="url(#clip16)" clip-rule="nonzero">
<path style=" stroke:none;fill-rule:nonzero;fill:rgb(100%,100%,100%);fill-opacity:1;" d="M 35.253906 51.171875 C 35.253906 44.417969 40.726562 38.925781 47.480469 38.925781 C 54.230469 38.925781 59.703125 44.417969 59.703125 51.171875 C 59.703125 57.945312 54.230469 63.433594 47.480469 63.433594 C 40.726562 63.433594 35.253906 57.945312 35.253906 51.171875 "/>
</g>
</g>
<g clip-path="url(#clip17)" clip-rule="nonzero">
<g clip-path="url(#clip18)" clip-rule="nonzero">
<path style=" stroke:none;fill-rule:nonzero;fill:rgb(100%,100%,100%);fill-opacity:1;" d="M 30.597656 72.570312 C 30.597656 72.570312 33.121094 64.796875 41.660156 64.796875 C 41.660156 64.992188 55.636719 64.398438 55.828125 75.292969 L 55.828125 93.378906 L 77.179688 104.664062 C 77.179688 104.664062 76.007812 115.351562 62.039062 111.855469 C 61.652344 111.660156 54.472656 108.730469 54.472656 108.730469 L 54.472656 116.914062 L 30.015625 116.914062 L 30.015625 101.546875 L 20.894531 117.6875 C 20.894531 117.6875 18.753906 121.574219 15.648438 119.429688 C 15.648438 119.230469 9.441406 113.390625 14.296875 103.871094 L 30.597656 72.570312 "/>
</g>
</g>
<g clip-path="url(#clip19)" clip-rule="nonzero">
<g clip-path="url(#clip20)" clip-rule="nonzero">
<path style=" stroke:none;fill-rule:nonzero;fill:rgb(100%,100%,100%);fill-opacity:1;" d="M 30.015625 129.753906 L 30.015625 118.464844 L 54.472656 118.464844 L 54.472656 183.996094 C 54.472656 183.996094 40.492188 185.371094 40.492188 169.035156 C 40.304688 169.035156 40.492188 138.886719 40.492188 138.886719 L 19.921875 176.613281 C 19.921875 176.613281 9.441406 174.101562 17.59375 152.117188 L 30.015625 129.753906 "/>
</g>
</g>
<g clip-path="url(#clip21)" clip-rule="nonzero">
<g clip-path="url(#clip22)" clip-rule="nonzero">
<path style=" stroke:none;fill-rule:nonzero;fill:rgb(9.803922%,25.098039%,54.509804%);fill-opacity:1;" d="M 98.332031 47.679688 C 98.332031 46.289062 99.460938 45.15625 100.851562 45.15625 C 102.25 45.15625 103.375 46.289062 103.375 47.679688 C 103.375 49.078125 102.25 50.207031 100.851562 50.207031 C 99.460938 50.207031 98.332031 49.078125 98.332031 47.679688 "/>
</g>
</g>
<g clip-path="url(#clip23)" clip-rule="nonzero">
<g clip-path="url(#clip24)" clip-rule="nonzero">
<path style=" stroke:none;fill-rule:nonzero;fill:rgb(9.803922%,25.098039%,54.509804%);fill-opacity:1;" d="M 144.414062 47.679688 C 144.414062 46.289062 145.542969 45.15625 146.9375 45.15625 C 148.332031 45.15625 149.457031 46.289062 149.457031 47.679688 C 149.457031 49.078125 148.332031 50.207031 146.9375 50.207031 C 145.542969 50.207031 144.414062 49.078125 144.414062 47.679688 "/>
</g>
</g>
<g clip-path="url(#clip25)" clip-rule="nonzero">
<g clip-path="url(#clip26)" clip-rule="nonzero">
<path style=" stroke:none;fill-rule:nonzero;fill:rgb(9.803922%,25.098039%,54.509804%);fill-opacity:1;" d="M 106.671875 27.453125 L 102.015625 36.792969 L 145.886719 36.792969 L 141.117188 27.453125 L 106.671875 27.453125 "/>
</g>
</g>
<g clip-path="url(#clip27)" clip-rule="nonzero">
<g clip-path="url(#clip28)" clip-rule="nonzero">
<path style="fill:none;stroke-width:11.904;stroke-linecap:butt;stroke-linejoin:miter;stroke:rgb(100%,100%,100%);stroke-opacity:1;stroke-miterlimit:3.864;" d="M 176.034632 47.489062 L 176.034632 33.072187 M 161.886928 47.489062 L 161.886928 33.072187 " transform="matrix(1.386047,0,0,1.388889,0,0)"/>
</g>
</g>
<g clip-path="url(#clip29)" clip-rule="nonzero">
<g clip-path="url(#clip30)" clip-rule="nonzero">
<path style=" stroke:none;fill-rule:nonzero;fill:rgb(89.411765%,7.843137%,3.137255%);fill-opacity:1;" d="M 2.945312 189.417969 L 3.453125 173.5625 L 265.832031 2.839844 L 290.78125 4.234375 L 295.867188 13.496094 L 294.925781 25.964844 L 32.671875 196.605469 L 10.335938 196.820312 L 2.945312 189.417969 "/>
</g>
</g>
</g>
</svg>
