<?xml version="1.0" encoding="UTF-8"?>
<svg xmlns="http://www.w3.org/2000/svg" xmlns:xlink="http://www.w3.org/1999/xlink" width="250px" height="200px" viewBox="0 0 200 200" version="1.1">
<g id="surface1">
<path style="fill-rule:nonzero;fill:rgb(100%,100%,100%);fill-opacity:1;stroke-width:0.8;stroke-linecap:butt;stroke-linejoin:miter;stroke:rgb(10.980392%,11.372549%,12.54902%);stroke-opacity:1;stroke-miterlimit:3.864;" d="M 214.962207 203.036426 C 214.962207 209.620801 209.616602 214.953809 203.044824 214.953809 L 12.320508 214.953809 C 5.736133 214.953809 0.398926 209.616602 0.398926 203.036426 L 0.398926 12.320508 C 0.398926 5.736133 5.736133 0.398926 12.320508 0.398926 L 203.040625 0.398926 C 209.620801 0.398926 214.958008 5.736133 214.958008 12.320508 L 214.958008 203.036426 Z M 214.962207 203.036426 " transform="matrix(0.930233,0,0,0.930233,0,0)"/>
<path style=" stroke:none;fill-rule:nonzero;fill:rgb(9.803922%,25.098039%,54.509804%);fill-opacity:1;" d="M 195.085938 11.460938 C 195.085938 8.027344 192.300781 5.25 188.875 5.25 L 11.460938 5.25 C 8.03125 5.25 5.25 8.027344 5.25 11.460938 L 5.25 188.871094 C 5.25 192.296875 8.03125 195.078125 11.460938 195.078125 L 188.875 195.078125 C 192.300781 195.078125 195.085938 192.296875 195.085938 188.871094 L 195.085938 11.460938 "/>
<path style=" stroke:none;fill-rule:nonzero;fill:rgb(100%,100%,100%);fill-opacity:1;" d="M 194.414062 164.476562 L 100.167969 4.804688 L 5.914062 164.476562 L 194.414062 164.476562 "/>
<path style=" stroke:none;fill-rule:nonzero;fill:rgb(10.980392%,11.372549%,12.54902%);fill-opacity:1;" d="M 87.710938 51.28125 C 87.710938 46.101562 91.910156 41.898438 97.089844 41.898438 C 102.273438 41.898438 106.472656 46.101562 106.472656 51.28125 C 106.472656 56.464844 102.273438 60.660156 97.089844 60.660156 C 91.910156 60.660156 87.710938 56.464844 87.710938 51.28125 "/>
<path style=" stroke:none;fill-rule:nonzero;fill:rgb(10.980392%,11.372549%,12.54902%);fill-opacity:1;" d="M 92.058594 66.222656 L 101.78125 60.675781 C 101.78125 60.675781 104.9375 58.375 108.09375 61.191406 C 108.09375 61.273438 126.773438 78.84375 126.773438 78.84375 C 126.773438 78.84375 128.046875 79.527344 128.046875 81.910156 L 128.046875 91.71875 C 128.046875 91.71875 128.132812 92.40625 127.625 93.085938 C 127.449219 93.175781 126.601562 96.839844 121.742188 98.710938 C 121.652344 98.710938 118.925781 99.738281 118.925781 97.265625 C 118.925781 97.183594 118.925781 84.304688 118.925781 84.304688 L 109.546875 78.074219 L 109.546875 100.246094 L 116.96875 122.167969 L 122.601562 129.410156 L 123.707031 148.691406 L 113.132812 134.621094 L 107.417969 127.367188 L 100.429688 112.789062 C 100.429688 112.789062 99.058594 110.65625 97.441406 112.871094 L 89.847656 122.085938 C 89.847656 122.085938 88.742188 123.023438 88.742188 123.707031 C 88.742188 123.785156 88.742188 133.601562 88.742188 133.601562 L 86.695312 139.230469 C 86.695312 139.230469 82.601562 149.886719 77.824219 148.863281 C 77.910156 148.863281 78.933594 127.96875 78.933594 127.96875 L 78.933594 121.835938 C 78.933594 121.835938 78.59375 120.378906 79.871094 118.253906 C 79.785156 118.167969 90.273438 100.507812 90.273438 100.507812 L 90.273438 84.820312 L 73.902344 100.425781 C 73.902344 100.425781 73.472656 101.273438 72.113281 101.363281 C 72.027344 101.445312 69.550781 102.210938 66.226562 100.9375 C 66.3125 100.9375 63.921875 100 66.140625 97.4375 C 66.046875 97.523438 92.058594 66.222656 92.058594 66.222656 "/>
<path style=" stroke:none;fill-rule:nonzero;fill:rgb(10.980392%,11.372549%,12.54902%);fill-opacity:1;" d="M 87.851562 126.996094 L 96.554688 126.996094 L 95.589844 157.941406 L 85.917969 157.941406 L 87.851562 126.996094 "/>
<path style=" stroke:none;fill-rule:nonzero;fill:rgb(10.980392%,11.372549%,12.54902%);fill-opacity:1;" d="M 72.382812 126.996094 L 81.085938 126.996094 L 77.21875 157.941406 L 67.546875 157.941406 L 72.382812 126.996094 "/>
<path style=" stroke:none;fill-rule:nonzero;fill:rgb(10.980392%,11.372549%,12.54902%);fill-opacity:1;" d="M 56.429688 126.996094 L 65.125 126.996094 L 57.394531 157.941406 L 47.722656 157.941406 L 56.429688 126.996094 "/>
<path style=" stroke:none;fill-rule:nonzero;fill:rgb(10.980392%,11.372549%,12.54902%);fill-opacity:1;" d="M 41.4375 126.996094 L 50.144531 126.996094 L 38.535156 157.941406 L 28.871094 157.941406 L 41.4375 126.996094 "/>
<path style=" stroke:none;fill-rule:nonzero;fill:rgb(10.980392%,11.372549%,12.54902%);fill-opacity:1;" d="M 112.996094 126.996094 L 104.296875 126.996094 L 105.261719 157.941406 L 114.933594 157.941406 L 112.996094 126.996094 "/>
<path style=" stroke:none;fill-rule:nonzero;fill:rgb(10.980392%,11.372549%,12.54902%);fill-opacity:1;" d="M 128.46875 126.996094 L 119.765625 126.996094 L 123.632812 157.941406 L 133.308594 157.941406 L 128.46875 126.996094 "/>
<path style=" stroke:none;fill-rule:nonzero;fill:rgb(10.980392%,11.372549%,12.54902%);fill-opacity:1;" d="M 144.421875 126.996094 L 135.726562 126.996094 L 143.457031 157.941406 L 153.125 157.941406 L 144.421875 126.996094 "/>
<path style=" stroke:none;fill-rule:nonzero;fill:rgb(10.980392%,11.372549%,12.54902%);fill-opacity:1;" d="M 159.414062 126.996094 L 150.703125 126.996094 L 162.3125 157.941406 L 171.984375 157.941406 L 159.414062 126.996094 "/>
</g>
</svg>
