<?xml version="1.0" encoding="UTF-8"?>
<svg xmlns="http://www.w3.org/2000/svg" xmlns:xlink="http://www.w3.org/1999/xlink" width="250px" height="200px" viewBox="0 0 298 200" version="1.1">
<g id="surface1">
<path style="fill-rule:nonzero;fill:rgb(100%,100%,100%);fill-opacity:1;stroke-width:0.8;stroke-linecap:butt;stroke-linejoin:miter;stroke:rgb(10.980392%,11.372549%,12.54902%);stroke-opacity:1;stroke-miterlimit:3.864;" d="M 214.729446 135.34875 C 214.729446 139.730625 211.178429 143.28 206.798841 143.28 L 8.333617 143.28 C 3.951211 143.28 0.400194 139.727812 0.400194 135.34875 L 0.400194 8.33625 C 0.400194 3.951562 3.951211 0.399375 8.333617 0.399375 L 206.796023 0.399375 C 211.178429 0.399375 214.726628 3.951562 214.726628 8.33625 L 214.726628 135.34875 Z M 214.729446 135.34875 " transform="matrix(1.386047,0,0,1.388889,0,0)"/>
<path style=" stroke:none;fill-rule:nonzero;fill:rgb(9.803922%,25.098039%,54.509804%);fill-opacity:1;" d="M 292.785156 11.578125 C 292.785156 8.167969 290.042969 5.40625 286.632812 5.40625 L 11.550781 5.40625 C 8.148438 5.40625 5.394531 8.167969 5.394531 11.578125 L 5.394531 187.984375 C 5.394531 191.386719 8.148438 194.148438 11.550781 194.148438 L 286.628906 194.148438 C 290.035156 194.148438 292.78125 191.386719 292.78125 187.984375 L 292.78125 11.578125 "/>
<path style=" stroke:none;fill-rule:nonzero;fill:rgb(100%,100%,100%);fill-opacity:1;" d="M 262.324219 107.386719 L 262.324219 48.066406 L 281.539062 48.066406 L 234.1875 17.730469 L 224.871094 23.957031 L 224.871094 19.476562 L 215.945312 19.476562 L 215.945312 28.804688 L 186.828125 48.066406 L 206.042969 48.066406 L 206.042969 107.386719 L 262.324219 107.386719 "/>
<path style=" stroke:none;fill-rule:nonzero;fill:rgb(100%,100%,100%);fill-opacity:1;" d="M 102.015625 20.84375 L 96 36.792969 L 93.867188 36.792969 C 93.867188 36.792969 91.539062 36.597656 91.539062 39.121094 C 91.539062 38.925781 91.539062 60.320312 91.539062 60.320312 L 94.449219 62.269531 L 94.449219 71.976562 C 94.449219 71.976562 94.449219 73.355469 95.800781 73.355469 C 96.003906 73.535156 105.511719 73.355469 105.511719 73.355469 C 105.511719 73.355469 107.0625 73.355469 107.0625 71.785156 C 106.867188 71.785156 107.0625 62.269531 107.0625 62.269531 L 140.640625 62.269531 C 140.640625 62.269531 140.921875 71.785156 140.726562 71.785156 C 140.726562 73.355469 142.277344 73.355469 142.277344 73.355469 C 142.277344 73.355469 151.789062 73.535156 151.984375 73.355469 C 153.34375 73.355469 153.34375 71.976562 153.34375 71.976562 L 153.34375 62.269531 L 156.246094 60.320312 C 156.246094 60.320312 156.246094 38.925781 156.246094 39.121094 C 156.246094 36.597656 153.917969 36.792969 153.917969 36.792969 L 151.78125 36.792969 L 145.769531 20.84375 L 102.015625 20.84375 "/>
<path style=" stroke:none;fill-rule:nonzero;fill:rgb(100%,100%,100%);fill-opacity:1;" d="M 150.339844 119.628906 C 150.339844 114.796875 154.25 110.878906 159.082031 110.878906 C 163.890625 110.878906 167.808594 114.796875 167.808594 119.628906 C 167.808594 124.46875 163.890625 128.375 159.082031 128.375 C 154.25 128.375 150.339844 124.472656 150.339844 119.628906 "/>
<path style=" stroke:none;fill-rule:nonzero;fill:rgb(100%,100%,100%);fill-opacity:1;" d="M 100.269531 173.695312 C 100.269531 169.175781 103.921875 165.535156 108.421875 165.535156 C 112.925781 165.535156 116.578125 169.175781 116.578125 173.695312 C 116.578125 178.203125 112.925781 181.867188 108.421875 181.867188 C 103.921875 181.867188 100.269531 178.203125 100.269531 173.695312 "/>
<path style=" stroke:none;fill-rule:nonzero;fill:rgb(100%,100%,100%);fill-opacity:1;" d="M 151.703125 131.09375 C 151.507812 131.09375 136.175781 145.894531 136.175781 145.894531 C 136.175781 145.894531 133.847656 147.832031 135.589844 149.777344 C 135.785156 149.777344 140.058594 154.25 146.460938 149.390625 C 146.460938 149.199219 152.671875 144.527344 152.671875 144.527344 L 152.671875 179.527344 C 152.671875 179.527344 152.671875 183.8125 157.324219 183.429688 C 157.519531 183.230469 162.378906 184.59375 162.378906 178.359375 L 162.378906 160.46875 L 166.261719 160.46875 C 166.261719 160.46875 166.261719 165.71875 172.46875 165.132812 C 172.46875 164.953125 194.398438 163.1875 194.398438 163.1875 C 194.398438 163.1875 191.285156 154.640625 182.554688 154.824219 C 182.746094 154.824219 177.507812 154.824219 177.507812 154.824219 C 177.507812 154.824219 175.179688 155.617188 174.011719 152.496094 C 174.011719 152.300781 170.320312 141.21875 170.320312 141.21875 L 170.523438 139.269531 L 177.121094 145.6875 C 177.121094 145.6875 180.808594 151.902344 187.207031 145.488281 C 187.207031 145.304688 181.574219 141.207031 181.183594 135.765625 C 180.996094 135.582031 177.886719 125.648438 165.667969 129.347656 C 165.472656 129.546875 154.21875 132.667969 154.601562 130.316406 C 154.613281 130.523438 152.476562 128.96875 151.703125 131.09375 "/>
<path style=" stroke:none;fill-rule:nonzero;fill:rgb(100%,100%,100%);fill-opacity:1;" d="M 172.851562 69.648438 C 172.851562 69.648438 168.972656 108.355469 204.878906 130.914062 L 263.097656 171.359375 L 267.371094 161.835938 L 215.746094 125.269531 C 215.746094 125.269531 185.664062 107.378906 182.945312 70.234375 C 182.75 70.433594 172.851562 69.648438 172.851562 69.648438 "/>
<path style=" stroke:none;fill-rule:nonzero;fill:rgb(9.803922%,25.098039%,54.509804%);fill-opacity:1;" d="M 242.140625 73.355469 L 242.140625 96.882812 L 256.121094 96.882812 L 256.121094 45.933594 L 234.1875 27.453125 L 212.253906 45.933594 L 212.253906 96.882812 L 226.222656 96.882812 L 226.222656 73.355469 L 242.140625 73.355469 "/>
<path style=" stroke:none;fill-rule:nonzero;fill:rgb(100%,100%,100%);fill-opacity:1;" d="M 35.253906 51.171875 C 35.253906 44.417969 40.726562 38.925781 47.484375 38.925781 C 54.238281 38.925781 59.710938 44.417969 59.710938 51.171875 C 59.710938 57.945312 54.238281 63.433594 47.484375 63.433594 C 40.726562 63.433594 35.253906 57.945312 35.253906 51.171875 "/>
<path style=" stroke:none;fill-rule:nonzero;fill:rgb(100%,100%,100%);fill-opacity:1;" d="M 30.597656 72.570312 C 30.597656 72.570312 33.121094 64.796875 41.660156 64.796875 C 41.660156 64.992188 55.628906 64.398438 55.824219 75.292969 L 55.824219 93.378906 L 77.171875 104.664062 C 77.171875 104.664062 76.015625 115.351562 62.039062 111.855469 C 61.644531 111.660156 54.464844 108.730469 54.464844 108.730469 L 54.464844 116.914062 L 30.011719 116.914062 L 30.011719 101.546875 L 20.890625 117.6875 C 20.890625 117.6875 18.753906 121.574219 15.652344 119.429688 C 15.652344 119.230469 9.441406 113.390625 14.292969 103.871094 L 30.597656 72.570312 "/>
<path style=" stroke:none;fill-rule:nonzero;fill:rgb(100%,100%,100%);fill-opacity:1;" d="M 30.011719 129.753906 L 30.011719 118.464844 L 54.46875 118.464844 L 54.46875 183.996094 C 54.46875 183.996094 40.496094 185.371094 40.496094 169.035156 C 40.300781 169.035156 40.496094 138.886719 40.496094 138.886719 L 19.925781 176.613281 C 19.925781 176.613281 9.441406 174.101562 17.589844 152.117188 L 30.011719 129.753906 "/>
<path style=" stroke:none;fill-rule:nonzero;fill:rgb(9.803922%,25.098039%,54.509804%);fill-opacity:1;" d="M 98.324219 47.679688 C 98.324219 46.289062 99.457031 45.15625 100.851562 45.15625 C 102.246094 45.15625 103.375 46.289062 103.375 47.679688 C 103.375 49.078125 102.246094 50.207031 100.851562 50.207031 C 99.457031 50.207031 98.324219 49.078125 98.324219 47.679688 "/>
<path style=" stroke:none;fill-rule:nonzero;fill:rgb(9.803922%,25.098039%,54.509804%);fill-opacity:1;" d="M 144.414062 47.679688 C 144.414062 46.289062 145.539062 45.15625 146.9375 45.15625 C 148.328125 45.15625 149.457031 46.289062 149.457031 47.679688 C 149.457031 49.078125 148.328125 50.207031 146.9375 50.207031 C 145.539062 50.207031 144.414062 49.078125 144.414062 47.679688 "/>
<path style=" stroke:none;fill-rule:nonzero;fill:rgb(9.803922%,25.098039%,54.509804%);fill-opacity:1;" d="M 106.675781 27.453125 L 102.015625 36.792969 L 145.878906 36.792969 L 141.117188 27.453125 L 106.675781 27.453125 "/>
<path style="fill:none;stroke-width:11.904;stroke-linecap:butt;stroke-linejoin:miter;stroke:rgb(100%,100%,100%);stroke-opacity:1;stroke-miterlimit:3.864;" d="M 176.026177 47.489062 L 176.026177 33.072187 M 161.886928 47.489062 L 161.886928 33.072187 " transform="matrix(1.386047,0,0,1.388889,0,0)"/>
</g>
</svg>
