<?xml version="1.0" encoding="UTF-8"?>
<svg xmlns="http://www.w3.org/2000/svg" xmlns:xlink="http://www.w3.org/1999/xlink" width="250px" height="200px" viewBox="0 0 200 200" version="1.1">
<g id="surface1">
<path style=" stroke:none;fill-rule:nonzero;fill:rgb(100%,100%,100%);fill-opacity:1;" d="M 174.0625 100.21875 C 174.0625 140.980469 140.980469 174.058594 100.21875 174.058594 C 59.453125 174.058594 26.378906 140.980469 26.378906 100.21875 C 26.378906 59.460938 59.453125 26.375 100.21875 26.375 C 140.980469 26.375 174.0625 59.460938 174.0625 100.21875 Z M 174.0625 100.21875 "/>
<path style=" stroke:none;fill-rule:nonzero;fill:rgb(10.980392%,11.372549%,12.54902%);fill-opacity:1;" d="M 87.964844 83.511719 C 86.738281 83.511719 85.738281 84.507812 85.738281 85.738281 L 85.738281 162.570312 L 75.722656 152.546875 L 65.695312 162.570312 L 65.695312 85.738281 C 65.695312 73.441406 75.667969 63.464844 87.964844 63.464844 L 151.4375 63.464844 L 161.457031 73.488281 L 151.4375 83.511719 L 87.964844 83.511719 "/>
<path style=" stroke:none;fill-rule:nonzero;fill:rgb(89.411765%,7.843137%,3.137255%);fill-opacity:1;" d="M 100.257812 0 C 44.910156 0 0 44.917969 0 100.257812 C 0 155.609375 44.910156 200.390625 100.257812 200.390625 C 155.609375 200.390625 200.390625 155.609375 200.390625 100.257812 C 200.390625 44.917969 155.609375 0 100.257812 0 Z M 100.257812 26.691406 C 118.214844 26.691406 134.640625 33.167969 147.394531 43.878906 L 42.316406 145.3125 C 32.589844 132.867188 26.691406 117.285156 26.691406 100.257812 C 26.691406 59.675781 59.667969 26.691406 100.257812 26.691406 Z M 158.203125 55.207031 C 167.875 67.671875 173.699219 83.269531 173.699219 100.257812 C 173.699219 140.851562 140.851562 173.699219 100.257812 173.699219 C 82.300781 173.699219 65.902344 167.195312 53.125 156.507812 Z M 158.203125 55.207031 "/>
</g>
</svg>
