<?xml version="1.0" encoding="UTF-8"?>
<svg xmlns="http://www.w3.org/2000/svg" xmlns:xlink="http://www.w3.org/1999/xlink" width="250px" height="200px" viewBox="0 0 200 200" version="1.1">
<g id="surface1">
<path style=" stroke:none;fill-rule:nonzero;fill:rgb(89.411765%,7.843137%,3.137255%);fill-opacity:1;" d="M 0 100.214844 C 0 44.871094 44.867188 0 100.210938 0 C 155.558594 0 200.429688 44.871094 200.429688 100.214844 C 200.429688 155.566406 155.554688 200.433594 100.210938 200.433594 C 44.871094 200.433594 0 155.566406 0 100.214844 "/>
<path style=" stroke:none;fill-rule:nonzero;fill:rgb(100%,100%,100%);fill-opacity:1;" d="M 26.722656 100.214844 C 26.722656 59.625 59.621094 26.726562 100.210938 26.726562 C 140.804688 26.726562 173.699219 59.625 173.699219 100.214844 C 173.699219 140.800781 140.800781 173.710938 100.210938 173.710938 C 59.625 173.710938 26.722656 140.800781 26.722656 100.214844 "/>
<path style=" stroke:none;fill-rule:nonzero;fill:rgb(10.980392%,11.372549%,12.54902%);fill-opacity:1;" d="M 42.164062 113.492188 C 42.164062 101.882812 51.574219 92.476562 63.179688 92.476562 C 74.789062 92.476562 84.195312 101.882812 84.195312 113.492188 C 84.195312 125.097656 74.789062 134.507812 63.179688 134.507812 C 51.574219 134.507812 42.164062 125.097656 42.164062 113.492188 "/>
<path style=" stroke:none;fill-rule:nonzero;fill:rgb(10.980392%,11.372549%,12.54902%);fill-opacity:1;" d="M 112.285156 113.101562 C 112.285156 101.433594 121.738281 91.988281 133.394531 91.988281 C 145.054688 91.988281 154.511719 101.4375 154.511719 113.101562 C 154.511719 124.761719 145.054688 134.210938 133.394531 134.210938 C 121.738281 134.210938 112.285156 124.757812 112.285156 113.101562 "/>
<path style=" stroke:none;fill-rule:nonzero;fill:rgb(100%,100%,100%);fill-opacity:1;" d="M 47.953125 113.390625 C 47.953125 104.988281 54.769531 98.175781 63.179688 98.175781 C 71.582031 98.175781 78.398438 104.992188 78.398438 113.390625 C 78.398438 121.800781 71.582031 128.613281 63.179688 128.613281 C 54.769531 128.613281 47.953125 121.796875 47.953125 113.390625 "/>
<path style=" stroke:none;fill-rule:nonzero;fill:rgb(10.980392%,11.372549%,12.54902%);fill-opacity:1;" d="M 82.523438 111.328125 L 80.558594 106.121094 L 75.847656 99.839844 L 71.230469 96.109375 L 63.476562 94.933594 L 55.714844 95.722656 L 48.449219 100.527344 L 43.832031 107.503906 C 43.832031 107.503906 42.164062 105.527344 42.261719 105.527344 C 41.671875 104.257812 42.449219 103.460938 42.449219 103.460938 C 46.152344 95.746094 54.046875 90.414062 63.179688 90.414062 C 75.871094 90.414062 86.160156 100.699219 86.160156 113.390625 C 86.160156 114.1875 86.117188 114.972656 86.042969 115.746094 C 86.042969 115.746094 85.765625 116.4375 85.078125 116.828125 C 84.980469 116.828125 83.015625 117.320312 83.015625 117.320312 L 82.523438 111.328125 "/>
<path style=" stroke:none;fill-rule:nonzero;fill:rgb(100%,100%,100%);fill-opacity:1;" d="M 118.375 113.195312 C 118.375 104.792969 125.1875 97.984375 133.589844 97.984375 C 141.996094 97.984375 148.808594 104.796875 148.808594 113.195312 C 148.808594 121.609375 141.996094 128.421875 133.589844 128.421875 C 125.1875 128.421875 118.375 121.609375 118.375 113.195312 "/>
<path style=" stroke:none;fill-rule:nonzero;fill:rgb(10.980392%,11.372549%,12.54902%);fill-opacity:1;" d="M 49.921875 103.964844 L 59.445312 110.347656 C 59.445312 110.347656 61.605469 111.429688 62.101562 109.757812 L 65.339844 96.992188 L 71.625 99.445312 L 68.289062 110.835938 C 68.289062 110.835938 67.894531 111.523438 69.171875 111.523438 C 69.265625 111.429688 79.1875 111.523438 79.1875 111.523438 L 79.1875 116.332031 L 68.484375 116.332031 C 68.484375 116.332031 66.617188 115.941406 66.027344 116.734375 C 66.027344 116.734375 64.554688 118.007812 62.6875 118.007812 C 62.6875 118.007812 58.566406 117.8125 58.367188 114.476562 C 58.464844 114.566406 48.054688 108.382812 48.054688 108.382812 L 49.921875 103.964844 "/>
<path style=" stroke:none;fill-rule:nonzero;fill:rgb(10.980392%,11.372549%,12.54902%);fill-opacity:1;" d="M 74.078125 71.652344 C 73 72.636719 74.078125 73.816406 74.078125 73.816406 C 74.078125 73.816406 76.242188 75.777344 76.140625 75.777344 C 76.929688 76.375 76.632812 77.253906 76.535156 77.160156 C 75.847656 79.417969 80.167969 79.417969 80.265625 79.417969 C 84 81.082031 86.160156 85.507812 86.160156 85.507812 C 88.222656 88.160156 90.773438 94.246094 90.773438 94.347656 C 92.640625 98.566406 97.453125 101.605469 97.453125 101.605469 L 102.363281 102.886719 C 106.789062 103.769531 108.847656 98.859375 108.847656 98.859375 C 108.847656 98.859375 119.550781 79.417969 119.746094 79.320312 C 120.335938 78.140625 119.355469 77.847656 119.355469 77.847656 C 119.355469 77.847656 112.964844 76.269531 112.871094 76.179688 C 111.394531 75.984375 111.984375 75.097656 111.984375 75.097656 C 111.984375 75.097656 112.480469 72.839844 112.480469 72.933594 C 113.066406 71.757812 113.75 72.054688 113.75 72.054688 C 113.75 72.054688 127.996094 71.5625 127.996094 71.660156 C 130.644531 71.660156 130.644531 74.605469 130.644531 74.605469 C 130.9375 76.765625 129.269531 76.957031 129.269531 77.0625 C 127.605469 77.941406 128.289062 78.925781 128.289062 78.925781 C 128.289062 78.925781 130.257812 88.449219 130.257812 88.554688 C 130.550781 89.628906 131.835938 89.289062 131.835938 89.289062 C 132.355469 89.25 132.875 89.238281 133.398438 89.238281 C 144.664062 89.238281 154.097656 97.066406 156.546875 107.582031 C 156.546875 107.582031 156.675781 109.175781 157.359375 109.570312 C 157.359375 109.570312 158.738281 111.140625 158.636719 115.949219 C 158.738281 116.046875 158.542969 117.125 157.269531 117.125 C 157.171875 117.023438 153.539062 117.222656 153.539062 117.222656 L 152.75 112.414062 L 150 105.433594 L 144.503906 99.644531 L 139.300781 96.402344 L 132.324219 95.621094 L 124.269531 97.882812 L 119.558594 103.277344 L 118.476562 106.324219 L 127.019531 107.503906 C 128.691406 107.695312 128.789062 106.222656 128.789062 106.324219 C 128.789062 104.851562 127.214844 104.355469 127.214844 104.355469 C 125.449219 104.066406 125.449219 102.789062 125.449219 102.789062 L 125.054688 99.746094 L 129.570312 97.488281 C 129.570312 97.488281 133.890625 97.390625 133.992188 97.292969 C 134.382812 98.761719 133.992188 101.019531 133.992188 100.917969 C 133.992188 102.492188 132.714844 102.394531 132.714844 102.394531 C 132.714844 102.394531 133.308594 106.417969 133.207031 106.417969 C 133.402344 107.597656 134.289062 107.597656 134.378906 107.597656 C 138.3125 107.503906 138.210938 110.25 138.015625 110.148438 C 138.015625 111.324219 139.492188 111.035156 139.492188 111.035156 L 149.214844 111.035156 L 149.121094 115.839844 C 149.121094 115.839844 138.019531 115.941406 138.019531 115.839844 C 135.667969 119.375 131.632812 118.691406 131.632812 118.691406 C 131.347656 122.425781 127.511719 122.035156 127.511719 122.035156 L 120.246094 121.445312 L 114.554688 119.972656 C 114.554688 119.972656 98.546875 121.152344 98.449219 121.152344 C 96.484375 121.351562 97.171875 122.328125 97.171875 122.128906 C 97.070312 123.308594 98.9375 123.113281 98.839844 123.210938 C 99.921875 123.210938 99.820312 124.191406 99.820312 124.191406 C 99.820312 124.191406 99.726562 125.367188 99.820312 125.273438 C 99.820312 126.355469 98.839844 126.355469 98.839844 126.355469 C 98.839844 126.355469 90 126.648438 90 126.746094 C 88.921875 126.746094 89.316406 125.867188 89.316406 125.867188 C 89.316406 125.867188 89.214844 124.097656 89.316406 124.097656 C 89.214844 122.921875 90.101562 123.117188 90.101562 123.117188 L 91.675781 123.117188 C 91.675781 123.117188 92.75 120.070312 92.851562 120.070312 C 93.636719 117.910156 92.359375 117.324219 92.359375 117.324219 C 90.296875 115.453125 90.789062 113.003906 90.789062 113.101562 C 90.6875 110.152344 91.867188 108.488281 91.769531 108.679688 C 92.851562 106.910156 91.378906 106.121094 91.378906 106.121094 C 91.378906 106.121094 83.421875 100.136719 83.226562 99.941406 C 82.050781 99.160156 81.851562 100.628906 81.851562 100.628906 L 79.988281 98.664062 L 75.371094 95.324219 L 69.277344 92.375 C 69.277344 92.375 65.847656 90.507812 65.746094 90.609375 C 67.019531 90.507812 67.121094 89.625 67.121094 89.625 C 67.121094 89.625 67.019531 87.269531 67.121094 87.269531 C 67.121094 85.898438 66.234375 86.585938 66.140625 86.585938 C 62.894531 88.355469 63.488281 85.210938 63.488281 85.210938 C 63.488281 85.210938 63.386719 79.417969 63.488281 79.320312 C 63.488281 77.746094 64.863281 77.847656 64.863281 77.847656 C 64.863281 77.847656 68.003906 77.75 68.003906 77.847656 C 69.871094 77.847656 68.105469 76.671875 68.003906 76.476562 C 64.761719 74.609375 65.550781 73.132812 65.644531 73.035156 C 65.644531 70.484375 67.910156 69.304688 67.910156 69.304688 C 67.910156 69.304688 77.332031 64 77.433594 64 C 78.3125 63.410156 78.707031 63.410156 78.707031 63.410156 C 78.707031 63.410156 82.734375 63.210938 82.734375 63.410156 C 84.011719 63.503906 84.402344 63.804688 84.402344 63.804688 C 84.402344 63.804688 85.472656 64.582031 85.667969 64.582031 C 86.945312 65.269531 85.863281 66.449219 85.863281 66.449219 C 85.863281 66.449219 85.078125 68.019531 84.980469 68.019531 C 84.492188 68.804688 83.410156 68.609375 83.410156 68.609375 L 79.679688 68.609375 C 79.679688 68.609375 79.1875 68.515625 78.105469 69.207031 C 78.203125 69.101562 73.980469 71.652344 74.078125 71.652344 "/>
<path style=" stroke:none;fill-rule:nonzero;fill:rgb(100%,100%,100%);fill-opacity:1;" d="M 121.320312 87.371094 C 121.320312 87.464844 116.800781 96.402344 116.800781 96.402344 C 116.800781 96.402344 116.410156 97.777344 117.777344 96.800781 C 117.777344 96.699219 122.199219 93.257812 122.199219 93.257812 C 122.199219 93.257812 122.984375 93.0625 123.085938 92.175781 C 122.988281 92.273438 122.394531 87.464844 122.394531 87.464844 C 122.394531 87.464844 121.808594 86.292969 121.320312 87.371094 "/>
<path style=" stroke:none;fill-rule:nonzero;fill:rgb(100%,100%,100%);fill-opacity:1;" d="M 73.292969 88.550781 C 73.292969 88.550781 73 89.429688 74.375 90.117188 C 74.375 90.214844 80.660156 95.027344 80.660156 95.027344 C 80.660156 95.027344 81.742188 95.621094 81.347656 94.542969 C 81.347656 94.347656 79.484375 91.882812 79.578125 90.117188 C 79.484375 90.019531 80.070312 89.039062 78.5 88.9375 C 78.5 88.847656 76.929688 88.9375 76.929688 88.9375 L 74.375 86.582031 C 74.375 86.582031 73.292969 85.894531 73.292969 86.675781 C 73.195312 86.773438 73.292969 88.550781 73.292969 88.550781 "/>
</g>
</svg>
