<?xml version="1.0" encoding="UTF-8"?>
<svg xmlns="http://www.w3.org/2000/svg" xmlns:xlink="http://www.w3.org/1999/xlink" width="250px" height="200px" viewBox="0 0 200 200" version="1.1">
<g id="surface1">
<path style=" stroke:none;fill-rule:nonzero;fill:rgb(89.411765%,7.843137%,3.137255%);fill-opacity:1;" d="M 0 100.214844 C 0 44.867188 44.867188 0 100.214844 0 C 155.5625 0 200.429688 44.867188 200.429688 100.214844 C 200.429688 155.566406 155.5625 200.433594 100.214844 200.433594 C 44.867188 200.433594 0 155.566406 0 100.214844 "/>
<path style=" stroke:none;fill-rule:nonzero;fill:rgb(100%,100%,100%);fill-opacity:1;" d="M 26.722656 100.214844 C 26.722656 59.632812 59.621094 26.730469 100.214844 26.730469 C 140.804688 26.730469 173.707031 59.628906 173.707031 100.214844 C 173.707031 140.808594 140.808594 173.707031 100.214844 173.707031 C 59.625 173.703125 26.722656 140.808594 26.722656 100.214844 "/>
<path style=" stroke:none;fill-rule:nonzero;fill:rgb(10.980392%,11.372549%,12.54902%);fill-opacity:1;" d="M 115.753906 107.050781 C 115.753906 97.074219 123.835938 88.988281 133.816406 88.988281 C 143.789062 88.988281 151.875 97.074219 151.875 107.050781 C 151.875 117.023438 143.789062 125.113281 133.816406 125.113281 C 123.839844 125.113281 115.753906 117.023438 115.753906 107.050781 "/>
<path style=" stroke:none;fill-rule:nonzero;fill:rgb(10.980392%,11.372549%,12.54902%);fill-opacity:1;" d="M 48.417969 106.914062 C 48.417969 96.9375 56.5 88.851562 66.476562 88.851562 C 76.449219 88.851562 84.539062 96.9375 84.539062 106.914062 C 84.539062 116.886719 76.449219 124.972656 66.476562 124.972656 C 56.5 124.972656 48.417969 116.886719 48.417969 106.914062 "/>
<path style=" stroke:none;fill-rule:nonzero;fill:rgb(100%,100%,100%);fill-opacity:1;" d="M 52.035156 106.914062 C 52.035156 98.9375 58.5 92.457031 66.476562 92.457031 C 74.457031 92.457031 80.925781 98.9375 80.925781 106.914062 C 80.925781 114.890625 74.457031 121.359375 66.476562 121.359375 C 58.5 121.359375 52.035156 114.890625 52.035156 106.914062 "/>
<path style=" stroke:none;fill-rule:nonzero;fill:rgb(10.980392%,11.372549%,12.54902%);fill-opacity:1;" d="M 63.640625 106.324219 C 63.640625 104.570312 65.066406 103.144531 66.820312 103.144531 C 68.578125 103.144531 70.003906 104.570312 70.003906 106.324219 C 70.003906 108.082031 68.578125 109.511719 66.820312 109.511719 C 65.066406 109.507812 63.640625 108.078125 63.640625 106.324219 "/>
<path style=" stroke:none;fill-rule:nonzero;fill:rgb(100%,100%,100%);fill-opacity:1;" d="M 119.371094 107.050781 C 119.371094 99.070312 125.835938 92.605469 133.816406 92.605469 C 141.796875 92.605469 148.261719 99.070312 148.261719 107.050781 C 148.261719 115.027344 141.796875 121.496094 133.816406 121.496094 C 125.835938 121.496094 119.371094 115.027344 119.371094 107.050781 "/>
<path style=" stroke:none;fill-rule:nonzero;fill:rgb(10.980392%,11.372549%,12.54902%);fill-opacity:1;" d="M 103.113281 111.234375 C 98.210938 111.234375 98.296875 106.585938 98.472656 106.414062 C 98.472656 100.910156 103.199219 101.082031 103.199219 101.082031 L 134.070312 102.710938 C 135.828125 102.710938 137.339844 104.707031 137.339844 106.464844 C 137.339844 108.226562 136 110.113281 134.242188 110.113281 C 134.242188 110.113281 103.027344 111.234375 103.113281 111.234375 "/>
<path style=" stroke:none;fill-rule:nonzero;fill:rgb(10.980392%,11.372549%,12.54902%);fill-opacity:1;" d="M 109.828125 103.285156 L 120.046875 87.75 L 128.820312 103.058594 L 134.410156 103.144531 L 122.882812 82.164062 L 125.378906 77.859375 L 128.566406 77.859375 C 128.566406 77.859375 129.769531 78.207031 129.769531 76.574219 C 129.683594 76.574219 129.769531 72.871094 129.769531 72.871094 C 129.769531 72.871094 130.371094 70.296875 126.675781 71.753906 C 126.585938 71.753906 117.558594 75.542969 117.558594 75.542969 C 117.558594 75.542969 115.066406 77.339844 117.898438 77.6875 C 117.988281 77.6875 119.972656 77.773438 119.972656 77.773438 L 118.589844 80.957031 L 85.050781 80.957031 C 85.050781 80.957031 86.945312 79.492188 85.652344 77.339844 C 85.652344 77.429688 84.277344 75.019531 84.277344 75.019531 C 84.277344 75.019531 82.988281 73.386719 84.964844 73.386719 L 95.714844 73.386719 L 95.714844 68.394531 L 84.796875 68.394531 C 84.796875 68.394531 77.058594 69.085938 81.011719 77.164062 C 81.011719 77.335938 81.960938 77.851562 80.671875 79.917969 C 80.496094 80.007812 65.703125 104.515625 65.703125 104.515625 L 69.316406 106.492188 L 80.496094 88.351562 L 99.328125 104.769531 L 102.859375 101.589844 L 84.371094 85.941406 L 115.582031 85.941406 L 104.921875 101.902344 L 109.828125 103.285156 "/>
</g>
</svg>
