<?xml version="1.0" encoding="UTF-8"?>
<svg xmlns="http://www.w3.org/2000/svg" xmlns:xlink="http://www.w3.org/1999/xlink" width="250px" height="200px" viewBox="0 0 199 200" version="1.1">
<g id="surface1">
<path style=" stroke:none;fill-rule:nonzero;fill:rgb(89.411765%,7.843137%,3.137255%);fill-opacity:1;" d="M 0 99.949219 C 0 44.75 44.53125 0 99.460938 0 C 154.382812 0 198.917969 44.75 198.917969 99.949219 C 198.917969 155.152344 154.382812 199.910156 99.460938 199.910156 C 44.53125 199.910156 0 155.152344 0 99.949219 "/>
<path style=" stroke:none;fill-rule:nonzero;fill:rgb(100%,100%,100%);fill-opacity:1;" d="M 26.527344 99.949219 C 26.527344 59.46875 59.175781 26.652344 99.460938 26.652344 C 139.742188 26.652344 172.390625 59.46875 172.390625 99.949219 C 172.390625 140.4375 139.742188 173.246094 99.460938 173.246094 C 59.175781 173.246094 26.527344 140.4375 26.527344 99.949219 "/>
<path style=" stroke:none;fill-rule:evenodd;fill:rgb(0%,0%,0%);fill-opacity:1;" d="M 48.839844 111.921875 C 49.355469 113.976562 50.355469 117.027344 50.863281 118.558594 C 52.894531 122.617188 56.925781 127.210938 60.984375 128.714844 C 67.0625 131.265625 76.171875 131.265625 82.769531 129.238281 C 87.835938 127.210938 92.378906 122.617188 93.902344 117.539062 C 94.398438 115.496094 94.917969 112.433594 94.917969 110.929688 C 94.917969 108.375 93.902344 105.839844 93.394531 103.78125 C 91.859375 101.753906 89.339844 100.222656 87.3125 99.214844 C 88.835938 98.71875 90.855469 97.1875 92.378906 95.65625 C 94.398438 92.578125 94.917969 87.515625 93.394531 83.445312 C 91.859375 77.84375 86.3125 72.253906 80.738281 70.722656 C 75.671875 69.191406 68.585938 69.191406 63.523438 70.722656 C 62.003906 71.246094 59.980469 72.253906 58.460938 72.75 C 53.382812 75.8125 49.355469 82.449219 49.355469 88.535156 L 63.027344 90.054688 C 62.507812 87.515625 64.03125 84.464844 66.570312 83.445312 C 69.109375 81.914062 72.632812 81.402344 75.171875 82.449219 C 77.710938 82.933594 79.714844 85.460938 79.714844 88.535156 C 79.214844 90.054688 78.199219 91.585938 76.6875 92.097656 C 74.167969 93.628906 70.113281 94.136719 67.0625 93.628906 L 67.0625 105.839844 C 69.589844 105.3125 73.652344 105.3125 75.671875 105.839844 C 78.199219 106.335938 80.230469 107.867188 80.738281 110.417969 C 81.253906 112.957031 80.230469 115.496094 78.199219 116.515625 C 76.6875 117.539062 74.65625 118.050781 72.632812 118.050781 C 71.628906 118.050781 69.589844 117.539062 68.589844 117.539062 C 65.566406 116.515625 63.027344 113.480469 63.027344 109.90625 L 48.839844 111.921875 "/>
<path style=" stroke:none;fill-rule:evenodd;fill:rgb(0%,0%,0%);fill-opacity:1;" d="M 154.980469 86.210938 C 152.457031 75.648438 142.378906 68.058594 131.460938 68.058594 C 120.949219 68.058594 110.875 75.648438 107.929688 86.210938 C 105.828125 93.800781 105.828125 104.363281 107.929688 111.535156 C 110.875 122.089844 120.949219 129.679688 131.460938 129.679688 C 142.378906 129.679688 152.457031 122.089844 154.980469 111.535156 C 157.082031 104.363281 157.082031 93.800781 154.980469 86.210938 Z M 142.378906 107.3125 C 141.535156 112.375 136.921875 116.175781 131.460938 116.175781 C 126.421875 116.175781 121.785156 112.375 120.949219 107.3125 C 120.105469 102.25 120.105469 95.5 120.949219 90.851562 C 121.785156 85.363281 126.421875 81.5625 131.460938 81.5625 C 136.921875 81.5625 141.535156 85.363281 142.378906 90.851562 C 143.214844 95.5 143.214844 102.25 142.378906 107.3125 Z M 142.378906 107.3125 "/>
</g>
</svg>
