<?xml version="1.0" encoding="UTF-8"?>
<svg xmlns="http://www.w3.org/2000/svg" xmlns:xlink="http://www.w3.org/1999/xlink" width="250px" height="200px" viewBox="0 0 200 200" version="1.1">
<g id="surface1">
<path style="fill-rule:nonzero;fill:rgb(100%,100%,100%);fill-opacity:1;stroke-width:50;stroke-linecap:butt;stroke-linejoin:round;stroke:rgb(100%,0%,0%);stroke-opacity:1;stroke-miterlimit:4;" d="M 49.998047 615.001953 L 649.003906 615.001953 L 349.494141 96.003906 Z M 49.998047 615.001953 " transform="matrix(0.285714,0,0,0.285714,0,0)"/>
<path style=" stroke:none;fill-rule:nonzero;fill:rgb(0%,0%,0%);fill-opacity:1;" d="M 126.238281 150.269531 C 129.664062 150.269531 139.941406 150.269531 139.941406 150.269531 L 139.941406 146.691406 L 136.515625 146.691406 L 136.515625 143.113281 L 133.085938 143.113281 L 133.085938 135.960938 L 122.800781 135.960938 L 122.800781 132.382812 L 126.230469 132.382812 L 126.230469 128.804688 L 122.800781 128.804688 L 122.800781 125.230469 L 136.503906 125.230469 L 133.078125 121.652344 L 112.519531 121.652344 L 112.519531 132.382812 L 109.089844 135.960938 L 98.804688 135.960938 L 98.804688 128.804688 C 98.804688 128.804688 98.804688 125.230469 91.949219 125.230469 C 85.089844 125.230469 85.089844 128.804688 85.089844 128.804688 L 85.089844 135.960938 L 78.234375 135.960938 L 74.804688 132.382812 L 74.804688 121.652344 C 74.804688 121.652344 74.804688 121.652344 81.664062 118.074219 C 88.519531 114.496094 85.089844 118.074219 91.949219 114.496094 C 98.804688 110.921875 95.378906 118.074219 102.234375 114.496094 C 109.089844 110.921875 112.519531 114.496094 119.367188 110.921875 C 126.222656 107.34375 131.152344 106.886719 125.910156 100.398438 C 120.722656 93.96875 124.1875 98.625 115.738281 93.453125 C 107.289062 88.277344 112.515625 96.613281 102.234375 93.039062 C 91.949219 89.460938 95.378906 89.460938 88.527344 93.039062 C 81.671875 96.613281 85.101562 100.191406 78.242188 103.769531 C 71.386719 107.347656 74.8125 103.769531 71.386719 107.347656 C 67.957031 110.921875 67.957031 121.652344 67.957031 121.652344 L 67.957031 132.386719 L 64.527344 135.960938 L 61.101562 135.960938 L 61.101562 146.695312 L 54.285156 146.695312 L 54.285156 150.269531 C 54.285156 150.269531 61.144531 150.269531 64.570312 150.269531 C 64.570312 157.425781 71.429688 157.425781 71.429688 157.425781 C 71.429688 157.425781 78.285156 157.425781 78.285156 150.269531 C 81.714844 150.269531 85.144531 150.269531 88.570312 150.269531 C 88.570312 157.425781 95.429688 157.425781 95.429688 157.425781 C 95.429688 157.425781 102.285156 157.425781 102.285156 150.269531 C 105.714844 150.269531 109.144531 150.269531 112.570312 150.269531 C 112.570312 157.425781 119.429688 157.425781 119.429688 157.425781 C 119.429688 157.425781 126.238281 157.429688 126.238281 150.269531 Z M 54.285156 157.429688 L 139.714844 157.429688 L 139.714844 160.855469 L 54.285156 160.855469 Z M 54.285156 157.429688 "/>
</g>
</svg>
