<?xml version="1.0" encoding="utf-8"?>
<svg xmlns="http://www.w3.org/2000/svg" width="700" height="700">
<path style="fill:#FFF;stroke:#F00;stroke-width:50;stroke-linejoin:round" d="M50,615h599L349.5,96z"/>
/><path d="M441.83 525.94c12 0 47.97 0 47.97 0v-12.52h-12v-12.52h-12v-25.04h-36v-12.52h12v-12.52h-12v-12.52h47.97l-12-12.52h-71.95v37.56l-12 12.52h-36v-25.04c0 0 0-12.52-24-12.52c-24 0-24 12.52-24 12.52v25.04h-24l-12-12.52v-37.56c0 0 0 0 24-12.52c24-12.52 12 0 36-12.52c24-12.52 12 12.52 36 0c24-12.52 36 0 59.96-12.52c24-12.52 41.25-14.11 22.91-36.83c-18.16-22.50-6.04-6.2-35.61-24.31s-11.28 11.07-47.26-1.45c-36-12.52-24-12.52-47.97 0c-24 12.52-12 25.04-36 37.56c-24 12.52-12 0-24 12.52c-12 12.52-12 50.08-12 50.08v37.56l-12 12.52h-12v37.56H190v12.52c0 0 24 0 36 0c0 25.04 24 25.04 24 25.04s24 0 24-25.04c12 0 24 0 36 0c0 25.04 24 25.04 24 25.04s24 0 24-25.04c12 0 24 0 36 0c0 25.04 24 25.04 24 25.04S441.83 551 441.83 525.94zM190,551H489v12H190z"/>
</svg>