<?xml version="1.0" encoding="UTF-8"?>
<svg xmlns="http://www.w3.org/2000/svg" xmlns:xlink="http://www.w3.org/1999/xlink" width="250px" height="200px" viewBox="0 0 227 200" version="1.1">
<defs>
<clipPath id="clip1">
  <path d="M 22 100 L 205 100 L 205 182 L 22 182 Z M 22 100 "/>
</clipPath>
<clipPath id="clip2">
  <path d="M 22.785156 181.125 L 113.414062 24.140625 L 204.042969 181.125 L 22.785156 181.125 "/>
</clipPath>
</defs>
<g id="surface1">
<path style=" stroke:none;fill-rule:nonzero;fill:rgb(89.411765%,7.843137%,3.137255%);fill-opacity:1;" d="M 14.707031 200.433594 C 6.585938 200.433594 0 193.84375 0 185.726562 C 0 183.074219 0.699219 180.59375 1.921875 178.457031 L 100.660156 7.386719 C 103.195312 2.972656 107.957031 0 113.414062 0 C 118.871094 0 123.628906 2.972656 126.171875 7.386719 L 224.910156 178.457031 C 226.132812 180.597656 226.824219 183.074219 226.824219 185.726562 C 226.824219 193.84375 220.246094 200.433594 212.121094 200.433594 L 14.707031 200.433594 "/>
<path style=" stroke:none;fill-rule:nonzero;fill:rgb(100%,100%,100%);fill-opacity:1;" d="M 22.785156 181.125 L 113.414062 24.140625 L 204.042969 181.125 L 22.785156 181.125 "/>
<g clip-path="url(#clip1)" clip-rule="nonzero">
<g clip-path="url(#clip2)" clip-rule="nonzero">
<path style=" stroke:none;fill-rule:nonzero;fill:rgb(10.980392%,11.372549%,12.54902%);fill-opacity:1;" d="M 9.558594 188.480469 L 216.351562 188.480469 L 64.707031 100.214844 L 9.558594 188.480469 "/>
</g>
</g>
<path style=" stroke:none;fill-rule:nonzero;fill:rgb(10.980392%,11.372549%,12.54902%);fill-opacity:1;" d="M 96.960938 94.601562 C 94.363281 99.019531 91.964844 103.246094 89.46875 107.570312 C 87.742188 106.605469 86.011719 105.648438 84.378906 104.589844 C 87.164062 99.597656 90.238281 94.699219 92.925781 89.605469 C 91.777344 88.742188 90.238281 88.359375 89.183594 87.304688 C 90.046875 85.863281 90.816406 84.421875 91.679688 83.078125 C 92.734375 83.363281 93.40625 84.230469 94.558594 84.519531 C 96.289062 84.902344 97.34375 83.460938 97.921875 82.117188 C 99.359375 83.175781 101.183594 83.75 102.527344 85 C 100.609375 88.167969 98.878906 91.335938 96.960938 94.601562 Z M 96.960938 94.601562 "/>
<path style=" stroke:none;fill-rule:nonzero;fill:rgb(10.980392%,11.372549%,12.54902%);fill-opacity:1;" d="M 121.15625 94.890625 C 119.714844 93.832031 118.371094 93.066406 116.644531 92.585938 C 110.691406 91.046875 105.40625 95.273438 102.71875 100.367188 C 100.773438 104.054688 99.457031 108.242188 100.894531 112.277344 C 102.625 116.886719 107.519531 119.863281 112.417969 119.382812 C 116.257812 118.902344 119.332031 116.5 121.539062 113.238281 C 123.554688 110.164062 125.089844 106.992188 125.1875 103.441406 C 125.28125 100.171875 123.84375 97.003906 121.15625 94.890625 Z M 118.082031 106.320312 C 116.929688 108.527344 116.066406 110.835938 113.953125 112.46875 C 111.9375 113.910156 109.152344 113.332031 107.519531 111.507812 C 106.558594 110.355469 106.078125 108.816406 106.558594 107.375 C 107.328125 104.785156 108.671875 102.574219 110.304688 100.363281 C 110.878906 99.691406 111.457031 99.210938 112.226562 98.828125 C 113.375 98.347656 114.722656 98.347656 115.96875 98.828125 C 117.503906 99.5 118.753906 100.84375 119.042969 102.667969 C 119.253906 104.011719 118.753906 105.167969 118.082031 106.320312 Z M 118.082031 106.320312 "/>
<path style=" stroke:none;fill-rule:nonzero;fill:rgb(10.980392%,11.372549%,12.54902%);fill-opacity:1;" d="M 140.550781 127.453125 C 138.460938 129.496094 136.421875 131.488281 134.40625 133.503906 C 133.15625 132.929688 132.003906 132.160156 130.851562 131.488281 C 137.382812 125.144531 143.816406 118.808594 150.34375 112.371094 C 151.59375 112.949219 152.746094 113.621094 153.898438 114.390625 C 149.382812 118.710938 145.0625 123.035156 140.550781 127.453125 Z M 140.550781 127.453125 "/>
<path style=" stroke:none;fill-rule:nonzero;fill:rgb(10.980392%,11.372549%,12.54902%);fill-opacity:1;" d="M 154.953125 127.355469 C 153.511719 125.722656 151.398438 124.761719 149.289062 124.953125 C 146.597656 125.242188 144.628906 127.382812 143.238281 129.660156 C 142.183594 131.390625 141.605469 133.214844 141.699219 135.136719 C 141.894531 138.785156 145.636719 141.378906 149.191406 140.898438 C 151.878906 140.417969 153.703125 138.402344 154.949219 136.191406 C 156.488281 133.40625 157.160156 129.949219 154.953125 127.355469 Z M 151.785156 134.078125 C 151.046875 135.09375 150.726562 136.289062 149.671875 136.960938 C 147.945312 138.113281 145.445312 136.769531 145.351562 134.847656 C 145.15625 132.734375 146.597656 131.199219 147.753906 129.46875 C 148.136719 128.988281 148.710938 128.796875 149.289062 128.605469 C 150.824219 128.316406 152.359375 129.183594 152.648438 130.71875 C 152.933594 131.871094 152.550781 133.023438 151.785156 134.078125 Z M 151.785156 134.078125 "/>
<path style=" stroke:none;fill-rule:nonzero;fill:rgb(10.980392%,11.372549%,12.54902%);fill-opacity:1;" d="M 141.699219 107.761719 C 139.972656 105.265625 136.804688 104.304688 134.117188 105.359375 C 130.46875 106.992188 128.164062 110.929688 128.261719 114.871094 C 128.261719 117.367188 129.894531 119.480469 132.195312 120.441406 C 134.117188 121.207031 136.230469 121.207031 138.054688 119.960938 C 141.894531 117.269531 144.613281 111.964844 141.699219 107.761719 Z M 138.917969 112.949219 C 138.070312 114.644531 137.378906 116.695312 135.363281 117.269531 C 133.636719 117.652344 131.8125 116.40625 131.8125 114.675781 C 131.714844 112.660156 133.15625 111.125 134.214844 109.492188 C 134.597656 109.011719 135.078125 108.816406 135.652344 108.625 C 136.902344 108.335938 138.054688 108.820312 138.824219 109.875 C 139.492188 110.835938 139.398438 111.988281 138.917969 112.949219 Z M 138.917969 112.949219 "/>
</g>
</svg>
