<?xml version="1.0" encoding="UTF-8"?>
<svg xmlns="http://www.w3.org/2000/svg" xmlns:xlink="http://www.w3.org/1999/xlink" width="250px" height="200px" viewBox="0 0 227 200" version="1.1">
<g id="surface1">
<path style=" stroke:none;fill-rule:nonzero;fill:rgb(89.411765%,7.843137%,3.137255%);fill-opacity:1;" d="M 14.707031 200.425781 C 6.585938 200.425781 0 193.839844 0 185.71875 C 0 183.070312 0.699219 180.585938 1.921875 178.441406 L 100.660156 7.382812 C 103.195312 2.964844 107.957031 0 113.414062 0 C 118.871094 0 123.628906 2.964844 126.171875 7.382812 L 224.910156 178.441406 C 226.132812 180.585938 226.824219 183.070312 226.824219 185.71875 C 226.824219 193.839844 220.246094 200.425781 212.121094 200.425781 L 14.707031 200.425781 "/>
<path style=" stroke:none;fill-rule:nonzero;fill:rgb(100%,100%,100%);fill-opacity:1;" d="M 22.785156 181.121094 L 113.414062 24.132812 L 204.042969 181.121094 L 22.785156 181.121094 "/>
<path style=" stroke:none;fill-rule:evenodd;fill:rgb(10.980392%,11.372549%,12.54902%);fill-opacity:1;" d="M 113.414062 171.007812 C 113.414062 171.007812 116.171875 164.570312 123.523438 164.570312 C 123.523438 164.570312 123.523438 159.054688 129.960938 159.054688 C 129.960938 159.054688 129.960938 155.371094 133.632812 154.460938 L 112.496094 136.070312 L 113.414062 138.824219 C 113.414062 138.824219 116.171875 141.582031 113.414062 147.101562 L 101.46875 170.085938 C 101.46875 170.085938 98.710938 174.6875 93.191406 171.925781 C 93.191406 171.925781 88.59375 169.167969 90.4375 164.570312 L 101.46875 143.425781 L 90.4375 129.628906 L 90.4375 147.101562 L 83.085938 169.164062 C 83.085938 169.164062 80.328125 174.6875 75.726562 172.84375 C 75.726562 172.84375 70.21875 171.007812 72.054688 165.488281 L 78.492188 145.261719 L 77.570312 116.757812 L 82.164062 112.167969 L 73.894531 103.882812 C 73.894531 103.882812 72.828125 102.378906 74.046875 100.75 C 75.339844 99.289062 76.652344 100.210938 76.652344 100.210938 L 80.328125 103.882812 L 83.085938 88.257812 C 83.085938 88.257812 83.085938 84.582031 86.761719 84.582031 L 110.65625 83.667969 C 110.65625 83.667969 114.332031 82.734375 115.253906 85.496094 L 124.441406 100.210938 C 124.441406 100.210938 127.199219 102.050781 124.441406 106.648438 C 124.441406 107.566406 113.414062 130.554688 113.414062 130.554688 L 137.308594 150.777344 C 137.308594 150.777344 149.257812 139.746094 159.363281 152.613281 C 159.363281 152.613281 166.722656 151.699219 167.640625 159.96875 C 167.640625 159.96875 171.3125 160.898438 171.3125 163.652344 C 171.3125 163.652344 178.664062 162.726562 180.503906 171.007812 L 113.414062 171.007812 "/>
<path style=" stroke:none;fill-rule:nonzero;fill:rgb(10.980392%,11.372549%,12.54902%);fill-opacity:1;" d="M 119.851562 88.257812 C 119.851562 83.6875 123.550781 79.988281 128.117188 79.988281 C 132.691406 79.988281 136.390625 83.6875 136.390625 88.257812 C 136.390625 92.832031 132.691406 96.535156 128.117188 96.535156 C 123.550781 96.535156 119.851562 92.832031 119.851562 88.257812 "/>
<path style=" stroke:none;fill-rule:nonzero;fill:rgb(100%,100%,100%);fill-opacity:1;" d="M 99.628906 119.519531 L 108.820312 113.996094 L 105.140625 123.195312 L 99.628906 119.519531 "/>
<path style=" stroke:none;fill-rule:evenodd;fill:rgb(100%,100%,100%);fill-opacity:1;" d="M 89.519531 102.050781 L 91.351562 93.777344 L 97.792969 93.777344 L 89.519531 102.050781 "/>
</g>
</svg>
