<?xml version="1.0" encoding="UTF-8"?>
<svg xmlns="http://www.w3.org/2000/svg" xmlns:xlink="http://www.w3.org/1999/xlink" width="250px" height="200px" viewBox="0 0 227 200" version="1.1">
<g id="surface1">
<path style=" stroke:none;fill-rule:nonzero;fill:rgb(89.411765%,7.843137%,3.137255%);fill-opacity:1;" d="M 14.707031 200.429688 C 6.582031 200.429688 0 193.839844 0 185.726562 C 0 183.078125 0.699219 180.59375 1.914062 178.449219 L 100.660156 7.386719 C 103.195312 2.972656 107.957031 0 113.414062 0 C 118.867188 0 123.628906 2.972656 126.171875 7.386719 L 224.90625 178.449219 C 226.128906 180.597656 226.828125 183.078125 226.828125 185.726562 C 226.828125 193.839844 220.246094 200.429688 212.117188 200.429688 L 14.707031 200.429688 "/>
<path style=" stroke:none;fill-rule:nonzero;fill:rgb(100%,100%,100%);fill-opacity:1;" d="M 22.785156 181.125 L 113.414062 24.140625 L 204.039062 181.125 L 22.785156 181.125 "/>
<path style=" stroke:none;fill-rule:nonzero;fill:rgb(10.980392%,11.372549%,12.54902%);fill-opacity:1;" d="M 101.328125 78.445312 C 101.328125 73.519531 105.320312 69.523438 110.242188 69.523438 C 115.167969 69.523438 119.160156 73.519531 119.160156 78.445312 C 119.160156 83.367188 115.171875 87.367188 110.242188 87.367188 C 105.320312 87.367188 101.328125 83.367188 101.328125 78.445312 "/>
<path style=" stroke:none;fill-rule:nonzero;fill:rgb(10.980392%,11.372549%,12.54902%);fill-opacity:1;" d="M 105.460938 92.648438 L 114.699219 87.378906 C 114.699219 87.378906 117.699219 85.1875 120.699219 87.867188 C 120.699219 87.945312 138.457031 104.644531 138.457031 104.644531 C 138.457031 104.644531 139.667969 105.296875 139.667969 107.5625 L 139.667969 116.894531 C 139.667969 116.894531 139.75 117.539062 139.261719 118.191406 C 139.097656 118.273438 138.292969 121.761719 133.671875 123.539062 C 133.589844 123.539062 130.996094 124.515625 130.996094 122.160156 C 130.996094 122.085938 130.996094 109.835938 130.996094 109.835938 L 122.082031 103.921875 L 122.082031 125.003906 L 129.132812 145.84375 L 134.476562 152.730469 L 135.535156 171.054688 L 125.480469 157.675781 L 120.046875 150.789062 L 113.414062 136.921875 C 113.414062 136.921875 112.109375 134.890625 110.566406 137.007812 L 103.355469 145.757812 C 103.355469 145.757812 102.300781 146.644531 102.300781 147.296875 C 102.300781 147.382812 102.300781 156.703125 102.300781 156.703125 L 100.355469 162.054688 C 100.355469 162.054688 96.464844 172.191406 91.921875 171.21875 C 92.003906 171.21875 92.980469 151.355469 92.980469 151.355469 L 92.980469 145.515625 C 92.980469 145.515625 92.652344 144.140625 93.871094 142.105469 C 93.789062 142.035156 103.757812 125.242188 103.757812 125.242188 L 103.757812 110.324219 L 88.195312 125.167969 C 88.195312 125.167969 87.789062 125.972656 86.492188 126.058594 C 86.414062 126.136719 84.0625 126.863281 80.898438 125.644531 C 80.976562 125.644531 78.710938 124.753906 80.816406 122.320312 C 80.738281 122.410156 105.460938 92.648438 105.460938 92.648438 "/>
</g>
</svg>
