<?xml version="1.0" encoding="UTF-8"?>
<svg xmlns="http://www.w3.org/2000/svg" xmlns:xlink="http://www.w3.org/1999/xlink" width="250px" height="200px" viewBox="0 0 227 200" version="1.1">
<g id="surface1">
<path style=" stroke:none;fill-rule:nonzero;fill:rgb(89.411765%,7.843137%,3.137255%);fill-opacity:1;" d="M 14.703125 200.429688 C 6.585938 200.429688 0 193.839844 0 185.726562 C 0 183.078125 0.695312 180.59375 1.921875 178.449219 L 100.65625 7.386719 C 103.195312 2.972656 107.957031 0 113.414062 0 C 118.867188 0 123.628906 2.972656 126.164062 7.386719 L 224.90625 178.449219 C 226.128906 180.597656 226.828125 183.078125 226.828125 185.726562 C 226.828125 193.839844 220.242188 200.429688 212.125 200.429688 L 14.703125 200.429688 "/>
<path style=" stroke:none;fill-rule:nonzero;fill:rgb(100%,100%,100%);fill-opacity:1;" d="M 22.785156 181.125 L 113.414062 24.140625 L 204.039062 181.125 L 22.785156 181.125 "/>
<path style=" stroke:none;fill-rule:nonzero;fill:rgb(10.980392%,11.372549%,12.54902%);fill-opacity:1;" d="M 81.46875 102.941406 C 81.46875 99.09375 84.589844 95.96875 88.4375 95.96875 C 92.292969 95.96875 95.410156 99.09375 95.410156 102.941406 C 95.410156 106.789062 92.292969 109.914062 88.4375 109.914062 C 84.589844 109.917969 81.46875 106.792969 81.46875 102.941406 "/>
<path style=" stroke:none;fill-rule:nonzero;fill:rgb(10.980392%,11.372549%,12.54902%);fill-opacity:1;" d="M 72.464844 128.398438 L 88.894531 138.675781 L 81.820312 149.996094 L 65.390625 139.726562 L 72.464844 128.398438 "/>
<path style=" stroke:none;fill-rule:evenodd;fill:rgb(10.980392%,11.372549%,12.54902%);fill-opacity:1;" d="M 91.601562 111.78125 L 81.148438 128.402344 C 81.148438 128.402344 79.683594 130.671875 81.707031 131.890625 C 81.792969 132.050781 83.980469 133.675781 85.601562 131.324219 C 85.601562 131.242188 91.359375 122.808594 91.359375 122.808594 L 97.679688 130.351562 L 94.519531 136.753906 L 95.816406 138.457031 L 94.519531 140.5625 L 96.300781 162.707031 C 96.300781 162.707031 96.21875 165.769531 99.707031 165.492188 C 99.707031 165.492188 102.867188 165.492188 102.703125 162.464844 C 102.703125 162.539062 101.003906 142.433594 101.003906 142.433594 L 102.460938 140.644531 L 103.839844 140.644531 L 105.296875 137.402344 L 106.921875 139.433594 L 108.945312 139.671875 L 113 144.457031 C 113 144.457031 114.140625 145.921875 116.410156 144.617188 C 116.480469 144.785156 127.675781 138.292969 127.675781 138.292969 C 127.675781 138.292969 129.859375 136.433594 128.398438 134.164062 C 128.476562 134.164062 126.773438 131.324219 124.429688 132.535156 C 124.503906 132.453125 116.886719 137.082031 116.886719 137.082031 C 116.886719 137.082031 115.664062 138.054688 114.535156 137.160156 C 114.617188 137.242188 113.410156 135.78125 113.410156 135.78125 L 114.210938 134.484375 L 108.457031 127.753906 L 106.109375 118.351562 C 106.109375 118.351562 105.945312 117.292969 107 117.617188 C 107.082031 117.703125 114.863281 120.941406 114.863281 120.941406 C 114.863281 120.941406 117.371094 121.996094 118.515625 119.566406 C 118.429688 119.566406 119.804688 116.808594 117.214844 115.753906 C 117.214844 115.835938 99.382812 108.867188 99.382812 108.867188 C 99.382812 108.867188 94.761719 106.914062 91.601562 111.78125 "/>
<path style=" stroke:none;fill-rule:nonzero;fill:rgb(10.980392%,11.372549%,12.54902%);fill-opacity:1;" d="M 149.226562 132.867188 L 157.824219 130.023438 L 162.039062 136.433594 L 149.226562 140.242188 L 149.226562 132.867188 "/>
<path style=" stroke:none;fill-rule:nonzero;fill:rgb(10.980392%,11.372549%,12.54902%);fill-opacity:1;" d="M 133.34375 108.703125 C 133.34375 105.25 136.136719 102.453125 139.585938 102.453125 C 143.03125 102.453125 145.828125 105.25 145.828125 108.703125 C 145.828125 112.148438 143.03125 114.945312 139.585938 114.945312 C 136.136719 114.945312 133.34375 112.148438 133.34375 108.703125 "/>
<path style=" stroke:none;fill-rule:evenodd;fill:rgb(10.980392%,11.372549%,12.54902%);fill-opacity:1;" d="M 144.851562 110.078125 L 146.476562 111.136719 C 146.476562 111.136719 145.667969 108.542969 147.609375 109.507812 C 147.691406 109.589844 150.367188 111.453125 150.367188 111.453125 C 150.367188 111.453125 151.746094 112.183594 150.203125 113 C 150.121094 112.917969 149.226562 113.238281 150.691406 113.886719 L 152.394531 114.859375 C 152.394531 114.859375 154.179688 116.976562 151.34375 116.976562 C 151.503906 116.976562 149.152344 116.074219 149.152344 116.074219 C 149.152344 116.074219 148.175781 115.351562 148.257812 116.160156 C 148.179688 116.320312 148.585938 118.101562 147.28125 117.460938 C 147.367188 117.542969 144.449219 115.835938 144.449219 115.835938 C 144.449219 115.835938 142.664062 115.109375 145.257812 114.050781 L 143.398438 112.835938 L 144.851562 110.078125 "/>
<path style=" stroke:none;fill-rule:nonzero;fill:rgb(10.980392%,11.372549%,12.54902%);fill-opacity:1;" d="M 135.128906 130.996094 L 131.882812 140.082031 L 132.941406 140.8125 L 130.75 148.273438 L 132.292969 162.539062 C 132.292969 162.539062 132.535156 165.054688 135.289062 164.570312 C 135.207031 164.484375 138.535156 164.730469 138.207031 161.488281 L 136.351562 148.675781 L 138.773438 140.972656 C 138.773438 140.972656 139.832031 139.1875 140.964844 140.886719 C 140.964844 140.972656 144.046875 146.082031 144.046875 146.082031 C 144.046875 146.082031 144.535156 148.433594 148.667969 147.214844 C 148.746094 147.128906 159.6875 144.058594 159.6875 144.058594 C 159.6875 144.058594 161.683594 143.320312 160.984375 140.886719 C 160.90625 140.972656 160.421875 138.539062 157.90625 139.109375 L 149.15625 141.703125 C 149.15625 141.703125 147.933594 142.347656 147.445312 141.300781 C 147.53125 141.300781 146.476562 140.398438 148.339844 139.835938 C 148.421875 139.753906 144.125 131.242188 144.125 131.242188 L 145.5 125.160156 C 145.5 125.160156 145.5 123.859375 146.800781 123.945312 C 146.800781 123.945312 148.175781 123.617188 148.421875 125.082031 C 148.503906 125.082031 150.039062 128.886719 150.039062 128.886719 C 150.039062 128.886719 150.609375 131.242188 153.042969 130.347656 C 153.042969 130.347656 155.476562 129.863281 154.742188 127.269531 C 154.742188 127.183594 152.472656 121.996094 152.472656 121.996094 C 152.472656 121.996094 152.3125 120.855469 150.449219 120.132812 C 150.285156 120.132812 143.074219 117.375 143.074219 117.375 C 143.074219 117.375 142.019531 116.644531 139.910156 116.726562 C 139.832031 116.726562 138.285156 116.398438 136.585938 117.375 L 127.917969 122.804688 C 127.917969 122.804688 127.269531 123.289062 126.457031 122.726562 C 126.375 122.726562 123.703125 119.722656 123.703125 119.722656 C 123.703125 119.722656 122.078125 118.269531 120.703125 119.648438 C 120.703125 119.648438 119.164062 121.023438 120.132812 122.316406 C 120.21875 122.402344 124.671875 127.511719 124.671875 127.511719 C 124.671875 127.511719 126.941406 129.703125 129.613281 127.511719 L 132.132812 125.480469 C 132.132812 125.480469 132.785156 124.75 133.183594 125.402344 L 135.128906 130.996094 "/>
</g>
</svg>
