<?xml version="1.0" encoding="UTF-8"?>
<svg xmlns="http://www.w3.org/2000/svg" xmlns:xlink="http://www.w3.org/1999/xlink" width="250px" height="200px" viewBox="0 0 227 200" version="1.1">
<g id="surface1">
<path style=" stroke:none;fill-rule:nonzero;fill:rgb(89.411765%,7.843137%,3.137255%);fill-opacity:1;" d="M 14.707031 200.429688 C 6.585938 200.429688 0 193.839844 0 185.726562 C 0 183.078125 0.699219 180.59375 1.921875 178.449219 L 100.660156 7.386719 C 103.195312 2.972656 107.960938 0 113.410156 0 C 118.867188 0 123.628906 2.972656 126.171875 7.386719 L 224.910156 178.449219 C 226.128906 180.597656 226.828125 183.078125 226.828125 185.726562 C 226.828125 193.839844 220.246094 200.429688 212.121094 200.429688 L 14.707031 200.429688 "/>
<path style=" stroke:none;fill-rule:nonzero;fill:rgb(100%,100%,100%);fill-opacity:1;" d="M 22.78125 181.125 L 113.410156 24.140625 L 204.046875 181.125 L 22.78125 181.125 "/>
<path style=" stroke:none;fill-rule:nonzero;fill:rgb(10.980392%,11.372549%,12.54902%);fill-opacity:1;" d="M 128.082031 148.46875 C 128.082031 139.066406 135.703125 131.441406 145.105469 131.441406 C 154.503906 131.441406 162.125 139.066406 162.125 148.46875 C 162.125 157.867188 154.503906 165.492188 145.105469 165.492188 C 135.703125 165.492188 128.082031 157.871094 128.082031 148.46875 "/>
<path style=" stroke:none;fill-rule:nonzero;fill:rgb(10.980392%,11.372549%,12.54902%);fill-opacity:1;" d="M 64.609375 148.335938 C 64.609375 138.933594 72.230469 131.304688 81.632812 131.304688 C 91.03125 131.304688 98.65625 138.929688 98.65625 148.335938 C 98.65625 157.738281 91.03125 165.359375 81.632812 165.359375 C 72.230469 165.359375 64.609375 157.738281 64.609375 148.335938 "/>
<path style=" stroke:none;fill-rule:nonzero;fill:rgb(10.980392%,11.372549%,12.54902%);fill-opacity:1;" d="M 118.105469 80.320312 C 118.105469 77.050781 120.757812 74.398438 124.023438 74.398438 C 127.289062 74.398438 129.941406 77.050781 129.941406 80.320312 C 129.941406 83.585938 127.289062 86.234375 124.023438 86.234375 C 120.757812 86.234375 118.105469 83.585938 118.105469 80.320312 "/>
<path style=" stroke:none;fill-rule:nonzero;fill:rgb(100%,100%,100%);fill-opacity:1;" d="M 68.015625 148.335938 C 68.015625 140.8125 74.109375 134.714844 81.628906 134.714844 C 89.15625 134.714844 95.25 140.8125 95.25 148.335938 C 95.25 155.851562 89.15625 161.960938 81.628906 161.960938 C 74.109375 161.960938 68.015625 155.851562 68.015625 148.335938 "/>
<path style=" stroke:none;fill-rule:nonzero;fill:rgb(10.980392%,11.372549%,12.54902%);fill-opacity:1;" d="M 78.953125 147.785156 C 78.953125 146.125 80.300781 144.785156 81.957031 144.785156 C 83.613281 144.785156 84.949219 146.125 84.949219 147.785156 C 84.949219 149.441406 83.613281 150.785156 81.957031 150.785156 C 80.300781 150.785156 78.953125 149.441406 78.953125 147.785156 "/>
<path style=" stroke:none;fill-rule:nonzero;fill:rgb(100%,100%,100%);fill-opacity:1;" d="M 131.484375 148.46875 C 131.484375 140.941406 137.582031 134.839844 145.105469 134.839844 C 152.621094 134.839844 158.71875 140.941406 158.71875 148.46875 C 158.71875 155.984375 152.621094 162.085938 145.105469 162.085938 C 137.582031 162.085938 131.484375 155.984375 131.484375 148.46875 "/>
<path style=" stroke:none;fill-rule:nonzero;fill:rgb(10.980392%,11.372549%,12.54902%);fill-opacity:1;" d="M 116.160156 152.410156 C 111.542969 152.410156 111.621094 148.027344 111.785156 147.859375 C 111.785156 142.675781 116.242188 142.835938 116.242188 142.835938 L 145.339844 144.375 C 146.996094 144.375 148.421875 146.257812 148.421875 147.917969 C 148.421875 149.570312 147.164062 151.351562 145.503906 151.351562 C 145.503906 151.351562 116.078125 152.410156 116.160156 152.410156 "/>
<path style=" stroke:none;fill-rule:nonzero;fill:rgb(10.980392%,11.372549%,12.54902%);fill-opacity:1;" d="M 124.023438 88.347656 C 124.023438 88.347656 125.886719 85.832031 129.210938 86.484375 C 129.210938 86.402344 133.261719 86.402344 134.480469 92.242188 L 137.640625 110.160156 C 137.640625 110.160156 139.015625 114.214844 134.070312 116.074219 C 133.996094 116.160156 119.242188 121.757812 119.242188 121.757812 C 119.242188 121.757812 117.460938 122.246094 118.183594 123.863281 C 118.265625 123.863281 125.074219 139.433594 125.074219 139.433594 C 125.074219 139.433594 126.453125 143.246094 123.125 144.617188 C 122.886719 144.785156 119.40625 146.414062 117.375 141.867188 C 117.375 141.945312 108.375 122.648438 108.375 122.648438 C 108.375 122.648438 106.265625 118.269531 110.804688 116.320312 C 110.730469 116.484375 123.539062 111.136719 123.539062 111.136719 C 123.539062 111.136719 124.914062 110.808594 124.347656 109.753906 C 124.347656 109.671875 120.375 103.675781 120.375 103.675781 L 110.804688 112.351562 C 110.804688 112.351562 107.8125 115.273438 105.300781 112.753906 C 105.78125 112.753906 101.488281 110.242188 104.972656 106.679688 C 104.976562 106.597656 124.023438 88.347656 124.023438 88.347656 "/>
<path style=" stroke:none;fill-rule:nonzero;fill:rgb(10.980392%,11.372549%,12.54902%);fill-opacity:1;" d="M 109.1875 112.023438 L 98.898438 112.023438 C 98.898438 112.023438 91.605469 112.675781 95.324219 120.296875 C 95.324219 120.457031 96.21875 120.9375 95 122.890625 C 94.835938 122.96875 80.898438 146.082031 80.898438 146.082031 L 84.304688 147.945312 L 94.835938 130.835938 L 112.59375 146.328125 L 115.914062 143.320312 L 98.488281 128.566406 L 127.914062 128.566406 L 124.589844 133.675781 C 124.589844 133.675781 124.183594 134.320312 124.589844 135.128906 C 124.589844 135.214844 126.132812 137.886719 126.132812 137.886719 C 126.132812 137.886719 126.699219 138.621094 127.425781 137.5625 L 132.125 130.261719 L 140.398438 144.695312 L 145.664062 144.78125 L 134.804688 125 L 137.152344 120.941406 L 140.152344 120.941406 C 140.152344 120.941406 141.285156 121.269531 141.285156 119.726562 C 141.203125 119.726562 141.285156 116.234375 141.285156 116.234375 C 141.285156 116.234375 141.855469 113.800781 138.367188 115.183594 C 138.292969 115.183594 129.777344 118.753906 129.777344 118.753906 C 129.777344 118.753906 127.425781 120.460938 130.101562 120.785156 C 130.179688 120.785156 132.046875 120.855469 132.046875 120.855469 L 130.75 123.859375 L 99.136719 123.859375 C 99.136719 123.859375 100.921875 122.480469 99.703125 120.457031 C 99.703125 120.535156 98.410156 118.269531 98.410156 118.269531 C 98.410156 118.269531 97.195312 116.726562 99.054688 116.726562 L 109.1875 116.726562 L 109.1875 112.023438 "/>
</g>
</svg>
