<?xml version="1.0" encoding="UTF-8"?>
<svg xmlns="http://www.w3.org/2000/svg" xmlns:xlink="http://www.w3.org/1999/xlink" width="250px" height="200px" viewBox="0 0 227 200" version="1.1">
<g id="surface1">
<path style=" stroke:none;fill-rule:nonzero;fill:rgb(89.411765%,7.843137%,3.137255%);fill-opacity:1;" d="M 14.707031 200.433594 C 6.585938 200.433594 0 193.851562 0 185.726562 C 0 183.078125 0.699219 180.601562 1.914062 178.457031 L 100.660156 7.382812 C 103.195312 2.976562 107.960938 0 113.414062 0 C 118.871094 0 123.628906 2.976562 126.167969 7.382812 L 224.910156 178.457031 C 226.132812 180.601562 226.824219 183.078125 226.824219 185.726562 C 226.824219 193.851562 220.242188 200.433594 212.125 200.433594 L 14.707031 200.433594 "/>
<path style=" stroke:none;fill-rule:nonzero;fill:rgb(100%,100%,100%);fill-opacity:1;" d="M 22.785156 181.125 L 113.414062 24.144531 L 204.042969 181.125 L 22.785156 181.125 "/>
<path style=" stroke:none;fill-rule:nonzero;fill:rgb(10.980392%,11.372549%,12.54902%);fill-opacity:1;" d="M 95.953125 96.539062 L 95.953125 136.082031 L 106.0625 136.082031 L 88.597656 165.492188 L 71.136719 136.082031 L 81.246094 136.082031 L 81.246094 96.539062 L 95.953125 96.539062 "/>
<path style=" stroke:none;fill-rule:nonzero;fill:rgb(10.980392%,11.372549%,12.54902%);fill-opacity:1;" d="M 145.585938 165.492188 L 145.585938 125.964844 L 155.691406 125.964844 L 138.226562 96.539062 L 120.765625 125.964844 L 130.878906 125.964844 L 130.878906 165.492188 L 145.585938 165.492188 "/>
</g>
</svg>
