<?xml version="1.0" encoding="UTF-8"?>
<svg xmlns="http://www.w3.org/2000/svg" xmlns:xlink="http://www.w3.org/1999/xlink" width="250px" height="200px" viewBox="0 0 227 200" version="1.1">
<g id="surface1">
<path style=" stroke:none;fill-rule:nonzero;fill:rgb(89.411765%,7.843137%,3.137255%);fill-opacity:1;" d="M 14.707031 200.433594 C 6.589844 200.433594 0 193.851562 0 185.726562 C 0 183.078125 0.699219 180.601562 1.921875 178.457031 L 100.660156 7.382812 C 103.195312 2.976562 107.960938 0 113.417969 0 C 118.871094 0 123.632812 2.976562 126.171875 7.382812 L 224.910156 178.457031 C 226.132812 180.601562 226.824219 183.078125 226.824219 185.726562 C 226.824219 193.851562 220.246094 200.433594 212.125 200.433594 L 14.707031 200.433594 "/>
<path style=" stroke:none;fill-rule:nonzero;fill:rgb(100%,100%,100%);fill-opacity:1;" d="M 22.785156 181.125 L 113.417969 24.144531 L 204.046875 181.125 L 22.785156 181.125 "/>
<path style=" stroke:none;fill-rule:nonzero;fill:rgb(10.980392%,11.372549%,12.54902%);fill-opacity:1;" d="M 37.136719 171.015625 L 39.890625 166.410156 L 164.886719 166.410156 L 164.886719 171.015625 L 37.136719 171.015625 "/>
<path style=" stroke:none;fill-rule:nonzero;fill:rgb(10.980392%,11.372549%,12.54902%);fill-opacity:1;" d="M 44.75 157.492188 L 79.785156 157.492188 L 79.785156 164.628906 C 79.785156 165.617188 80.582031 166.410156 81.570312 166.410156 L 88.707031 166.410156 C 89.691406 166.410156 90.488281 165.617188 90.488281 164.628906 L 90.488281 158.386719 C 90.488281 158.386719 93.164062 156.605469 91.378906 153.925781 C 91.378906 153.925781 93.164062 153.03125 93.164062 148.570312 C 93.164062 148.570312 93.164062 145.007812 91.378906 141.433594 C 91.378906 141.433594 91.378906 140.546875 89.59375 139.660156 L 83.351562 123.601562 C 83.351562 123.601562 82.460938 121.8125 80.679688 121.8125 L 64.53125 121.757812 L 62.425781 126.273438 L 78.898438 126.273438 C 80.679688 126.273438 80.679688 127.167969 80.679688 127.167969 L 85.136719 137.867188 C 86.03125 140.546875 83.351562 139.660156 83.351562 139.660156 C 77.109375 137.867188 61.953125 137.867188 61.953125 137.867188 C 61.953125 137.867188 59.308594 137.867188 55.773438 138.003906 L 44.75 157.492188 "/>
<path style=" stroke:none;fill-rule:nonzero;fill:rgb(100%,100%,100%);fill-opacity:1;" d="M 82.089844 149.011719 C 82.089844 146.945312 83.761719 145.273438 85.824219 145.273438 C 87.878906 145.273438 89.550781 146.945312 89.550781 149.011719 C 89.550781 151.066406 87.878906 152.738281 85.824219 152.738281 C 83.761719 152.738281 82.089844 151.066406 82.089844 149.011719 "/>
<path style=" stroke:none;fill-rule:nonzero;fill:rgb(10.980392%,11.372549%,12.54902%);fill-opacity:1;" d="M 128.226562 102.289062 C 127.574219 102.808594 127.703125 102.808594 127.117188 102.808594 C 126.339844 102.808594 125.757812 102.289062 124.976562 102.289062 C 123.804688 102.289062 123.359375 102.613281 123.359375 103.59375 C 123.359375 104.234375 123.359375 105.601562 123.359375 105.859375 C 123.359375 106.964844 122.902344 108.972656 122.902344 110.589844 C 122.902344 111.242188 123.554688 111.886719 124.199219 111.886719 C 125.105469 111.886719 125.566406 110.921875 126.46875 110.921875 C 127.378906 110.921875 127.832031 111.699219 128.742188 111.699219 C 130.167969 111.699219 132.113281 109.289062 132.113281 107.675781 C 132.113281 107.027344 132.046875 107.214844 132.113281 106.699219 C 129.066406 106.308594 131.785156 102.289062 129.066406 102.289062 C 128.351562 102.289062 128.871094 102.488281 128.226562 102.289062 "/>
<path style=" stroke:none;fill-rule:nonzero;fill:rgb(10.980392%,11.372549%,12.54902%);fill-opacity:1;" d="M 131.332031 125.964844 C 131.332031 127.332031 132.179688 127.851562 132.957031 128.226562 L 132.957031 131.472656 C 133.214844 132.003906 133.539062 132.773438 134.054688 132.773438 C 135.417969 132.773438 135.417969 131.414062 136.003906 131.027344 C 136.71875 130.496094 137.5625 130.695312 138.46875 130.695312 C 140.214844 130.695312 140.085938 126.550781 140.085938 125.316406 C 140.085938 124.929688 138.792969 124.992188 138.792969 124.992188 C 137.496094 124.992188 137.945312 121.617188 135.871094 121.617188 C 135.414062 121.617188 135.351562 121.492188 134.898438 121.742188 C 134.253906 122.132812 134.644531 122.722656 134.253906 123.367188 C 133.535156 124.601562 131.332031 123.890625 131.332031 125.964844 "/>
<path style=" stroke:none;fill-rule:nonzero;fill:rgb(10.980392%,11.372549%,12.54902%);fill-opacity:1;" d="M 135.675781 136.21875 C 134.574219 136.21875 134.253906 136.535156 134.253906 137.511719 C 134.253906 139.003906 135.226562 139.335938 135.226562 140.566406 C 135.226562 141.402344 134.703125 141.992188 134.703125 142.835938 C 134.703125 144.382812 136.003906 145.945312 137.300781 145.945312 C 138.273438 145.945312 138.851562 144.511719 139.242188 144.128906 C 140.277344 143.085938 143.976562 144.324219 143.976562 142.054688 C 143.976562 141.144531 142.8125 140.820312 142.8125 139.59375 C 142.8125 138.160156 144.109375 137.640625 144.109375 136.21875 C 144.109375 134.136719 141.578125 133.550781 140.410156 134.398438 C 139.699219 134.917969 139.699219 136.152344 138.792969 136.21875 C 137.625 136.277344 136.847656 136.21875 135.675781 136.21875 "/>
<path style=" stroke:none;fill-rule:nonzero;fill:rgb(10.980392%,11.372549%,12.54902%);fill-opacity:1;" d="M 144.753906 158.914062 C 144.753906 161.777344 146.964844 161.25 148.84375 161.964844 C 149.6875 162.292969 150.207031 163.457031 151.4375 163.457031 C 154.609375 163.457031 156.75 158.070312 156.75 154.699219 C 156.75 153.539062 153.3125 152.300781 151.753906 152.558594 C 149.359375 152.945312 144.753906 156.1875 144.753906 158.914062 "/>
<path style=" stroke:none;fill-rule:nonzero;fill:rgb(10.980392%,11.372549%,12.54902%);fill-opacity:1;" d="M 102.628906 149.898438 C 102.628906 149.898438 101.980469 151.027344 102.628906 151.519531 C 102.628906 151.4375 103.761719 152.246094 104.414062 151.273438 C 104.492188 151.191406 132.378906 116.402344 132.378906 116.402344 C 132.378906 116.402344 132.867188 115.679688 132.214844 114.941406 L 130.589844 113.816406 C 130.589844 113.816406 129.617188 113.246094 128.96875 114.054688 C 128.96875 113.96875 102.628906 149.898438 102.628906 149.898438 "/>
<path style=" stroke:none;fill-rule:nonzero;fill:rgb(10.980392%,11.372549%,12.54902%);fill-opacity:1;" d="M 100.195312 155.894531 C 100.195312 155.894531 99.277344 156.824219 99.777344 157.460938 C 99.796875 157.386719 100.679688 158.460938 101.5625 157.6875 C 101.660156 157.632812 133.449219 135.601562 133.449219 135.601562 C 133.449219 135.601562 134.105469 135.023438 133.667969 134.144531 L 132.398438 132.628906 C 132.398438 132.628906 131.601562 131.839844 130.761719 132.445312 C 130.789062 132.367188 100.195312 155.894531 100.195312 155.894531 "/>
<path style=" stroke:none;fill-rule:nonzero;fill:rgb(10.980392%,11.372549%,12.54902%);fill-opacity:1;" d="M 97.320312 160.640625 C 97.320312 160.640625 96.289062 161.445312 96.710938 162.140625 C 96.738281 162.066406 97.492188 163.238281 98.453125 162.585938 C 98.5625 162.539062 132.976562 144.9375 132.976562 144.9375 C 132.976562 144.9375 133.695312 144.445312 133.367188 143.527344 L 132.292969 141.867188 C 132.292969 141.867188 131.601562 140.976562 130.699219 141.484375 C 130.726562 141.410156 97.320312 160.640625 97.320312 160.640625 "/>
<path style=" stroke:none;fill-rule:nonzero;fill:rgb(10.980392%,11.372549%,12.54902%);fill-opacity:1;" d="M 95.515625 163.214844 C 95.515625 163.214844 94.308594 163.710938 94.519531 164.492188 C 94.570312 164.425781 94.964844 165.769531 96.074219 165.394531 C 96.1875 165.386719 141.503906 154.953125 141.503906 154.953125 C 141.503906 154.953125 142.339844 154.679688 142.28125 153.707031 L 141.695312 151.8125 C 141.695312 151.8125 141.28125 150.761719 140.265625 151.011719 C 140.320312 150.949219 95.515625 163.214844 95.515625 163.214844 "/>
</g>
</svg>
