<?xml version="1.0" encoding="UTF-8"?>
<svg xmlns="http://www.w3.org/2000/svg" xmlns:xlink="http://www.w3.org/1999/xlink" width="250px" height="200px" viewBox="0 0 227 200" version="1.1">
<g id="surface1">
<path style=" stroke:none;fill-rule:nonzero;fill:rgb(89.411765%,7.843137%,3.137255%);fill-opacity:1;" d="M 14.707031 200.429688 C 6.585938 200.429688 0 193.839844 0 185.722656 C 0 183.066406 0.699219 180.585938 1.914062 178.441406 L 100.660156 7.382812 C 103.195312 2.964844 107.960938 0 113.414062 0 C 118.871094 0 123.628906 2.964844 126.167969 7.382812 L 224.910156 178.441406 C 226.132812 180.585938 226.824219 183.066406 226.824219 185.722656 C 226.824219 193.839844 220.242188 200.429688 212.125 200.429688 L 14.707031 200.429688 "/>
<path style=" stroke:none;fill-rule:nonzero;fill:rgb(100%,100%,100%);fill-opacity:1;" d="M 22.785156 181.121094 L 113.414062 24.132812 L 204.042969 181.121094 L 22.785156 181.121094 "/>
<path style=" stroke:none;fill-rule:nonzero;fill:rgb(10.980392%,11.372549%,12.54902%);fill-opacity:1;" d="M 141.242188 113.640625 C 143.085938 114.167969 143.480469 116.277344 143.480469 116.277344 L 145.167969 134.671875 C 146.738281 136.113281 146.472656 137.035156 146.472656 137.035156 C 147.261719 141.234375 146.203125 144.921875 146.203125 144.921875 C 144.886719 149.511719 142.789062 149.910156 142.789062 149.910156 C 143.828125 153.191406 140.550781 154.246094 140.550781 154.246094 L 138.707031 160.675781 C 138.414062 161.695312 137.355469 162.277344 136.339844 161.988281 L 128.988281 159.882812 C 127.96875 159.589844 127.378906 158.53125 127.671875 157.511719 L 129.78125 150.160156 L 93.015625 139.617188 L 90.910156 146.972656 C 90.617188 147.980469 89.558594 148.574219 88.542969 148.277344 L 81.1875 146.175781 C 80.175781 145.875 79.585938 144.816406 79.878906 143.808594 L 81.722656 137.371094 C 81.722656 137.371094 79.492188 134.742188 82.125 132.511719 C 82.125 132.511719 80.542969 131.0625 81.867188 126.472656 C 81.867188 126.472656 82.917969 122.785156 85.808594 119.636719 C 85.808594 119.636719 86.074219 118.714844 88.175781 118.316406 L 99.355469 103.617188 C 99.355469 103.617188 100.800781 102.042969 102.640625 102.574219 L 141.242188 113.640625 "/>
<path style=" stroke:none;fill-rule:nonzero;fill:rgb(100%,100%,100%);fill-opacity:1;" d="M 105.578125 130.351562 L 123.960938 135.625 L 122.636719 140.21875 L 104.257812 134.945312 L 105.578125 130.351562 "/>
<path style=" stroke:none;fill-rule:nonzero;fill:rgb(100%,100%,100%);fill-opacity:1;" d="M 138.085938 117.707031 C 139.929688 118.238281 139.664062 119.164062 139.664062 119.164062 L 141.097656 131.511719 C 141.226562 134.539062 138.730469 132.824219 138.730469 132.824219 C 132.820312 129.144531 117.199219 124.660156 117.199219 124.660156 C 117.199219 124.660156 101.570312 120.167969 94.613281 120.164062 C 94.613281 120.164062 91.59375 120.292969 93.296875 117.796875 L 101.058594 108.082031 C 101.058594 108.082031 101.324219 107.167969 103.164062 107.699219 L 138.085938 117.707031 "/>
<path style=" stroke:none;fill-rule:nonzero;fill:rgb(10.980392%,11.372549%,12.54902%);fill-opacity:1;" d="M 55.515625 150.984375 L 113.414062 150.984375 L 113.414062 163.855469 L 171.316406 163.855469 L 171.316406 171.203125 L 106.976562 171.203125 L 106.976562 163.855469 L 55.515625 163.855469 L 55.515625 150.984375 "/>
</g>
</svg>
