<?xml version="1.0" encoding="UTF-8"?>
<svg xmlns="http://www.w3.org/2000/svg" xmlns:xlink="http://www.w3.org/1999/xlink" width="250px" height="200px" viewBox="0 0 227 200" version="1.1">
<g id="surface1">
<path style=" stroke:none;fill-rule:nonzero;fill:rgb(89.411765%,7.843137%,3.137255%);fill-opacity:1;" d="M 14.707031 200.433594 C 6.585938 200.433594 0 193.84375 0 185.722656 C 0 183.078125 0.699219 180.59375 1.914062 178.449219 L 100.660156 7.378906 C 103.195312 2.972656 107.960938 0 113.414062 0 C 118.871094 0 123.628906 2.972656 126.167969 7.378906 L 224.910156 178.449219 C 226.132812 180.597656 226.824219 183.078125 226.824219 185.722656 C 226.824219 193.84375 220.242188 200.433594 212.125 200.433594 L 14.707031 200.433594 "/>
<path style=" stroke:none;fill-rule:nonzero;fill:rgb(100%,100%,100%);fill-opacity:1;" d="M 22.785156 181.125 L 113.414062 24.136719 L 204.042969 181.125 L 22.785156 181.125 "/>
<path style=" stroke:none;fill-rule:nonzero;fill:rgb(10.980392%,11.372549%,12.54902%);fill-opacity:1;" d="M 101.925781 159.519531 C 101.925781 153.164062 107.070312 148.019531 113.414062 148.019531 C 119.757812 148.019531 124.898438 153.164062 124.898438 159.519531 C 124.898438 165.867188 119.757812 171.007812 113.414062 171.007812 C 107.070312 171.007812 101.925781 165.863281 101.925781 159.519531 "/>
<path style=" stroke:none;fill-rule:nonzero;fill:rgb(10.980392%,11.372549%,12.54902%);fill-opacity:1;" d="M 124.445312 71.707031 L 120.765625 136.070312 C 120.765625 140.132812 117.472656 143.425781 113.414062 143.425781 C 109.351562 143.425781 106.0625 140.132812 106.0625 136.070312 L 102.382812 71.707031 C 102.382812 65.621094 107.324219 60.683594 113.414062 60.683594 C 119.507812 60.683594 124.445312 65.621094 124.445312 71.707031 "/>
</g>
</svg>
