<?xml version="1.0" encoding="UTF-8" standalone="no"?>
<!-- Created with Inkscape (http://www.inkscape.org/) -->
<svg
   xmlns:dc="http://purl.org/dc/elements/1.1/"
   xmlns:cc="http://web.resource.org/cc/"
   xmlns:rdf="http://www.w3.org/1999/02/22-rdf-syntax-ns#"
   xmlns:svg="http://www.w3.org/2000/svg"
   xmlns="http://www.w3.org/2000/svg"
   xmlns:sodipodi="http://sodipodi.sourceforge.net/DTD/sodipodi-0.dtd"
   xmlns:inkscape="http://www.inkscape.org/namespaces/inkscape"
   width="700"
   height="700"
   id="svg2"
   sodipodi:version="0.32"
   inkscape:version="0.44"
   version="1.0"
   sodipodi:docbase="D:\Wiki\Tomas\Trenes"
   sodipodi:docname="Paso a nivel 02.svg">
  <defs
     id="defs4" />
  <sodipodi:namedview
     id="base"
     pagecolor="#ffffff"
     bordercolor="#666666"
     borderopacity="1.0"
     inkscape:pageopacity="0.0"
     inkscape:pageshadow="2"
     inkscape:zoom="0.97714286"
     inkscape:cx="350"
     inkscape:cy="350"
     inkscape:document-units="px"
     inkscape:current-layer="layer1"
     showgrid="true"
     gridspacingx="10px"
     gridspacingy="10px"
     inkscape:object-nodes="false"
     objecttolerance="50"
     inkscape:object-points="false"
     inkscape:grid-points="true"
     gridtolerance="10000"
     width="700px"
     height="700px"
     inkscape:window-width="1351"
     inkscape:window-height="881"
     inkscape:window-x="-4"
     inkscape:window-y="-4" />
  <metadata
     id="metadata7">
    <rdf:RDF>
      <cc:Work
         rdf:about="">
        <dc:format>image/svg+xml</dc:format>
        <dc:type
           rdf:resource="http://purl.org/dc/dcmitype/StillImage" />
      </cc:Work>
    </rdf:RDF>
  </metadata>
  <g
     inkscape:label="Capa 1"
     inkscape:groupmode="layer"
     id="layer1">
    <path
       style="fill:none;fill-rule:evenodd;stroke:red;stroke-width:50;stroke-linecap:round;stroke-linejoin:round;stroke-miterlimit:20;stroke-dasharray:none;stroke-opacity:1"
       d="M 49.999998,614.99999 L 648.99995,614.99999 L 349.49997,96.00005 L 49.999998,614.99999"
       id="path4681" />
    <path
       style="fill:black;fill-rule:evenodd;stroke:black;stroke-width:1px;stroke-linecap:butt;stroke-linejoin:miter;stroke-opacity:1;fill-opacity:1"
       d="M 250,570 L 250,560 L 230,560 L 230,520 L 250,520 L 250,430 L 230,430 L 230,390 L 250,390 L 250,370 L 270,350 L 290,370 L 290,390 L 330,390 L 330,370 L 350,350 L 370,370 L 370,390 L 410,390 L 410,370 L 430,350 L 450,370 L 450,390 L 470,390 L 470,430 L 450,430 L 450,520 L 470,520 L 470,560 L 450,560 L 450,570 L 410,570 L 410,560 L 370,560 L 370,570 L 330,570 L 330,560 L 290,560 L 290,570 L 250,570 z "
       id="path7356"
       sodipodi:nodetypes="cccccccccccccccccccccccccccccccccccccccc" />
    <path
       style="fill:white;fill-rule:evenodd;stroke:black;stroke-width:1px;stroke-linecap:butt;stroke-linejoin:miter;stroke-opacity:1;fill-opacity:1"
       d="M 290,430 L 330,430 L 330,520 L 290,520 L 290,430 z "
       id="path7358"
       sodipodi:nodetypes="ccccc" />
    <path
       style="fill:white;fill-rule:evenodd;stroke:black;stroke-width:1px;stroke-linecap:butt;stroke-linejoin:miter;stroke-opacity:1;fill-opacity:1"
       d="M 370,430 L 410,430 L 410,520 L 370,520 L 370,430 z "
       id="path7360"
       sodipodi:nodetypes="ccccc" />
  </g>
</svg>
