<?xml version="1.0" encoding="UTF-8"?>
<svg xmlns="http://www.w3.org/2000/svg" xmlns:xlink="http://www.w3.org/1999/xlink" width="250px" height="200px" viewBox="0 0 200 200" version="1.1">
<g id="surface1">
<path style="fill:none;stroke-width:50;stroke-linecap:round;stroke-linejoin:round;stroke:rgb(100%,0%,0%);stroke-opacity:1;stroke-miterlimit:20;" d="M 49.998047 615.001953 L 649.003906 615.001953 L 349.494141 96.003906 L 49.998047 615.001953 " transform="matrix(0.285714,0,0,0.285714,0,0)"/>
<path style="fill-rule:evenodd;fill:rgb(0%,0%,0%);fill-opacity:1;stroke-width:1;stroke-linecap:butt;stroke-linejoin:miter;stroke:rgb(0%,0%,0%);stroke-opacity:1;stroke-miterlimit:4;" d="M 250.003906 569.994141 L 250.003906 560 L 230.001953 560 L 230.001953 519.996094 L 250.003906 519.996094 L 250.003906 429.994141 L 230.001953 429.994141 L 230.001953 390.003906 L 250.003906 390.003906 L 250.003906 370.001953 L 270.005859 350 L 289.994141 370.001953 L 289.994141 390.003906 L 329.998047 390.003906 L 329.998047 370.001953 L 350 350 L 370.001953 370.001953 L 370.001953 390.003906 L 410.005859 390.003906 L 410.005859 370.001953 L 429.994141 350 L 449.996094 370.001953 L 449.996094 390.003906 L 469.998047 390.003906 L 469.998047 429.994141 L 449.996094 429.994141 L 449.996094 519.996094 L 469.998047 519.996094 L 469.998047 560 L 449.996094 560 L 449.996094 569.994141 L 410.005859 569.994141 L 410.005859 560 L 370.001953 560 L 370.001953 569.994141 L 329.998047 569.994141 L 329.998047 560 L 289.994141 560 L 289.994141 569.994141 Z M 250.003906 569.994141 " transform="matrix(0.285714,0,0,0.285714,0,0)"/>
<path style="fill-rule:evenodd;fill:rgb(100%,100%,100%);fill-opacity:1;stroke-width:1;stroke-linecap:butt;stroke-linejoin:miter;stroke:rgb(0%,0%,0%);stroke-opacity:1;stroke-miterlimit:4;" d="M 289.994141 429.994141 L 329.998047 429.994141 L 329.998047 519.996094 L 289.994141 519.996094 Z M 289.994141 429.994141 " transform="matrix(0.285714,0,0,0.285714,0,0)"/>
<path style="fill-rule:evenodd;fill:rgb(100%,100%,100%);fill-opacity:1;stroke-width:1;stroke-linecap:butt;stroke-linejoin:miter;stroke:rgb(0%,0%,0%);stroke-opacity:1;stroke-miterlimit:4;" d="M 370.001953 429.994141 L 410.005859 429.994141 L 410.005859 519.996094 L 370.001953 519.996094 Z M 370.001953 429.994141 " transform="matrix(0.285714,0,0,0.285714,0,0)"/>
</g>
</svg>
