<?xml version="1.0" encoding="UTF-8"?>
<svg xmlns="http://www.w3.org/2000/svg" xmlns:xlink="http://www.w3.org/1999/xlink" width="250px" height="200px" viewBox="0 0 254 200" version="1.1">
<g id="surface1">
<path style="fill:none;stroke-width:20;stroke-linecap:butt;stroke-linejoin:miter;stroke:rgb(100%,0%,0%);stroke-opacity:1;stroke-miterlimit:4;" d="M 49.498647 40.498047 L 109.504183 30.49707 L 349.504798 150.498047 L 589.494648 30.49707 L 649.500185 40.498047 L 629.498339 90.50293 L 429.501415 190.501953 L 629.498339 290.500977 L 649.500185 340.495117 L 589.494648 350.496094 L 349.504798 230.495117 L 109.504183 350.496094 L 49.498647 340.495117 L 69.500492 290.500977 L 269.497416 190.501953 L 69.500492 90.50293 Z M 49.498647 40.498047 " transform="matrix(0.362857,0,0,0.363636,0,0)"/>
<path style="fill:none;stroke-width:20;stroke-linecap:butt;stroke-linejoin:miter;stroke:rgb(100%,0%,0%);stroke-opacity:1;stroke-miterlimit:4;" d="M 69.00529 451 L 348.998831 310.99707 L 629.003137 451 L 649.004983 501.004883 L 588.999446 510.995117 L 348.998831 391.004883 L 108.998216 510.995117 L 49.003445 501.004883 Z M 69.00529 451 " transform="matrix(0.362857,0,0,0.363636,0,0)"/>
</g>
</svg>
