<?xml version="1.0" encoding="UTF-8"?>
<svg xmlns="http://www.w3.org/2000/svg" xmlns:xlink="http://www.w3.org/1999/xlink" width="250px" height="200px" viewBox="0 0 227 200" version="1.1">
<g id="surface1">
<path style=" stroke:none;fill-rule:nonzero;fill:rgb(89.411765%,7.843137%,3.137255%);fill-opacity:1;" d="M 14.707031 200.429688 C 6.585938 200.429688 0 193.839844 0 185.722656 C 0 183.066406 0.699219 180.585938 1.921875 178.441406 L 100.660156 7.382812 C 103.195312 2.964844 107.960938 0 113.410156 0 C 118.867188 0 123.628906 2.964844 126.171875 7.382812 L 224.910156 178.441406 C 226.128906 180.585938 226.828125 183.066406 226.828125 185.722656 C 226.828125 193.839844 220.246094 200.429688 212.121094 200.429688 L 14.707031 200.429688 "/>
<path style=" stroke:none;fill-rule:nonzero;fill:rgb(100%,100%,100%);fill-opacity:1;" d="M 22.78125 181.121094 L 113.410156 24.132812 L 204.046875 181.121094 L 22.78125 181.121094 "/>
<path style=" stroke:none;fill-rule:nonzero;fill:rgb(10.980392%,11.372549%,12.54902%);fill-opacity:1;" d="M 141.445312 121.484375 C 138.015625 109.300781 126.828125 100.375 113.558594 100.375 L 113.558594 106.820312 L 100.71875 93.898438 L 113.558594 81.054688 L 113.558594 87.496094 C 132.925781 87.496094 149.222656 100.664062 153.988281 118.539062 L 141.445312 121.484375 "/>
<path style=" stroke:none;fill-rule:nonzero;fill:rgb(10.980392%,11.372549%,12.54902%);fill-opacity:1;" d="M 92.800781 109.132812 C 83.96875 118.191406 81.835938 132.347656 88.472656 143.839844 L 94.046875 140.625 L 89.28125 158.210938 L 71.742188 153.503906 L 77.320312 150.285156 C 67.636719 133.503906 70.882812 112.800781 83.976562 99.738281 L 92.800781 109.132812 "/>
<path style=" stroke:none;fill-rule:nonzero;fill:rgb(10.980392%,11.372549%,12.54902%);fill-opacity:1;" d="M 106.429688 157.449219 C 118.691406 160.570312 132.011719 155.347656 138.648438 143.839844 L 133.074219 140.625 L 150.667969 135.957031 L 155.367188 153.503906 L 149.792969 150.285156 C 140.109375 167.066406 120.566406 174.601562 102.710938 169.789062 L 106.429688 157.449219 "/>
</g>
</svg>
