<?xml version="1.0" encoding="UTF-8"?>
<svg xmlns="http://www.w3.org/2000/svg" xmlns:xlink="http://www.w3.org/1999/xlink" width="250px" height="200px" viewBox="0 0 227 200" version="1.1">
<g id="surface1">
<path style=" stroke:none;fill-rule:nonzero;fill:rgb(89.411765%,7.843137%,3.137255%);fill-opacity:1;" d="M 14.703125 200.429688 C 6.582031 200.429688 0 193.839844 0 185.722656 C 0 183.066406 0.695312 180.585938 1.914062 178.441406 L 100.65625 7.382812 C 103.195312 2.964844 107.957031 0 113.410156 0 C 118.863281 0 123.628906 2.964844 126.167969 7.382812 L 224.910156 178.441406 C 226.125 180.585938 226.824219 183.066406 226.824219 185.722656 C 226.824219 193.839844 220.238281 200.429688 212.117188 200.429688 L 14.703125 200.429688 "/>
<path style=" stroke:none;fill-rule:nonzero;fill:rgb(100%,100%,100%);fill-opacity:1;" d="M 22.777344 181.121094 L 113.410156 24.132812 L 204.039062 181.121094 L 22.777344 181.121094 "/>
<path style=" stroke:none;fill-rule:nonzero;fill:rgb(10.980392%,11.372549%,12.54902%);fill-opacity:1;" d="M 176.828125 165.492188 L 48.160156 165.492188 L 48.160156 161.808594 L 176.828125 161.808594 Z M 176.828125 165.492188 "/>
<path style=" stroke:none;fill-rule:nonzero;fill:rgb(10.980392%,11.372549%,12.54902%);fill-opacity:1;" d="M 73.890625 157.21875 C 73.890625 154.167969 76.359375 151.707031 79.40625 151.707031 C 82.453125 151.707031 84.921875 154.167969 84.921875 157.21875 C 84.921875 160.257812 82.453125 162.726562 79.40625 162.726562 C 76.359375 162.726562 73.890625 160.257812 73.890625 157.21875 "/>
<path style=" stroke:none;fill-rule:nonzero;fill:rgb(10.980392%,11.372549%,12.54902%);fill-opacity:1;" d="M 85.839844 157.21875 C 85.839844 154.167969 88.308594 151.707031 91.355469 151.707031 C 94.398438 151.707031 96.863281 154.167969 96.863281 157.21875 C 96.863281 160.257812 94.398438 162.726562 91.355469 162.726562 C 88.308594 162.726562 85.839844 160.257812 85.839844 157.21875 "/>
<path style=" stroke:none;fill-rule:nonzero;fill:rgb(10.980392%,11.372549%,12.54902%);fill-opacity:1;" d="M 141.902344 157.21875 C 141.902344 154.167969 144.371094 151.707031 147.417969 151.707031 C 150.460938 151.707031 152.925781 154.167969 152.925781 157.21875 C 152.925781 160.257812 150.460938 162.726562 147.417969 162.726562 C 144.371094 162.726562 141.902344 160.257812 141.902344 157.21875 "/>
<path style=" stroke:none;fill-rule:nonzero;fill:rgb(10.980392%,11.372549%,12.54902%);fill-opacity:1;" d="M 129.953125 157.21875 C 129.953125 154.167969 132.421875 151.707031 135.46875 151.707031 C 138.515625 151.707031 140.988281 154.167969 140.988281 157.21875 C 140.988281 160.257812 138.515625 162.726562 135.46875 162.726562 C 132.421875 162.726562 129.953125 160.257812 129.953125 157.21875 "/>
<path style=" stroke:none;fill-rule:nonzero;fill:rgb(10.980392%,11.372549%,12.54902%);fill-opacity:1;" d="M 65.621094 157.21875 L 65.621094 152.613281 L 71.132812 152.613281 L 71.132812 126.871094 L 73.890625 124.121094 L 78.484375 124.121094 L 80.324219 122.28125 L 147.417969 122.28125 L 149.253906 124.121094 L 152.925781 124.121094 L 155.6875 126.871094 L 155.6875 152.613281 L 161.203125 152.613281 L 161.203125 157.21875 L 65.621094 157.21875 "/>
<path style=" stroke:none;fill-rule:nonzero;fill:rgb(10.980392%,11.372549%,12.54902%);fill-opacity:1;" d="M 89.519531 123.199219 L 89.519531 121.355469 L 78.484375 114.003906 C 78.484375 114.003906 77.566406 113.085938 78.484375 112.164062 L 91.355469 104.8125 L 91.355469 101.128906 L 99.621094 101.128906 L 99.621094 103.886719 L 98.707031 103.886719 L 98.707031 104.8125 L 111.570312 112.164062 C 112.492188 113.085938 111.570312 114.003906 111.570312 114.003906 L 100.542969 121.355469 L 100.542969 123.199219 L 89.519531 123.199219 "/>
<path style="fill:none;stroke-width:4.412;stroke-linecap:butt;stroke-linejoin:miter;stroke:rgb(100%,100%,100%);stroke-opacity:1;stroke-miterlimit:3.864;" d="M 73.163099 135.9225 L 73.163099 123.5625 " transform="matrix(1.041284,0,0,1.041667,0,0)"/>
<path style="fill:none;stroke-width:5.296;stroke-linecap:butt;stroke-linejoin:miter;stroke:rgb(100%,100%,100%);stroke-opacity:1;stroke-miterlimit:3.864;" d="M 80.673355 146.5125 L 80.673355 120.9225 " transform="matrix(1.041284,0,0,1.041667,0,0)"/>
<path style="fill:none;stroke-width:7.94;stroke-linecap:butt;stroke-linejoin:miter;stroke:rgb(100%,100%,100%);stroke-opacity:1;stroke-miterlimit:3.864;" d="M 90.820829 135.93 L 90.820829 120.9225 " transform="matrix(1.041284,0,0,1.041667,0,0)"/>
<path style="fill:none;stroke-width:10.592;stroke-linecap:butt;stroke-linejoin:miter;stroke:rgb(100%,100%,100%);stroke-opacity:1;stroke-miterlimit:3.864;" d="M 103.620526 135.93 L 103.620526 120.9225 " transform="matrix(1.041284,0,0,1.041667,0,0)"/>
<path style="fill:none;stroke-width:4.412;stroke-linecap:butt;stroke-linejoin:miter;stroke:rgb(100%,100%,100%);stroke-opacity:1;stroke-miterlimit:3.864;" d="M 143.782764 135.9225 L 143.782764 123.5625 " transform="matrix(1.041284,0,0,1.041667,0,0)"/>
<path style="fill:none;stroke-width:3.528;stroke-linecap:butt;stroke-linejoin:miter;stroke:rgb(100%,100%,100%);stroke-opacity:1;stroke-miterlimit:3.864;" d="M 136.27626 146.5125 L 136.27626 120.9225 " transform="matrix(1.041284,0,0,1.041667,0,0)"/>
<path style="fill:none;stroke-width:10.592;stroke-linecap:butt;stroke-linejoin:miter;stroke:rgb(100%,100%,100%);stroke-opacity:1;stroke-miterlimit:3.864;" d="M 117.736956 135.93 L 117.736956 120.9225 " transform="matrix(1.041284,0,0,1.041667,0,0)"/>
<path style="fill:none;stroke-width:3.528;stroke-linecap:butt;stroke-linejoin:miter;stroke:rgb(100%,100%,100%);stroke-opacity:1;stroke-miterlimit:3.864;" d="M 129.212417 146.5125 L 129.212417 120.9225 " transform="matrix(1.041284,0,0,1.041667,0,0)"/>
<path style=" stroke:none;fill-rule:nonzero;fill:rgb(100%,100%,100%);fill-opacity:1;" d="M 93.191406 119.523438 L 83.082031 113.085938 L 95.03125 106.640625 L 106.980469 113.085938 L 96.863281 119.523438 L 93.191406 119.523438 "/>
</g>
</svg>
