<?xml version="1.0" encoding="UTF-8"?>
<svg xmlns="http://www.w3.org/2000/svg" xmlns:xlink="http://www.w3.org/1999/xlink" width="250px" height="200px" viewBox="0 0 218 200" version="1.1">
<g id="surface1">
<path style="fill-rule:nonzero;fill:rgb(100%,100%,100%);fill-opacity:1;stroke-width:6;stroke-linecap:butt;stroke-linejoin:round;stroke:rgb(89.411765%,7.843137%,3.137255%);stroke-opacity:1;stroke-miterlimit:3.864;" d="M 196.072319 164.644238 L 206.108873 184.956641 L 183.811246 188.079043 L 104.634819 144.130391 L 25.289869 188.079043 L 2.999731 184.956641 L 13.036285 164.644238 L 104.473785 113.999395 Z M 196.072319 164.644238 " transform="matrix(1.043062,0,0,1.04712,0,0)"/>
<path style="fill-rule:evenodd;fill:rgb(100%,100%,100%);fill-opacity:1;stroke-width:6;stroke-linecap:square;stroke-linejoin:round;stroke:rgb(89.411765%,7.843137%,3.137255%);stroke-opacity:1;stroke-miterlimit:3.864;" d="M 77.288955 61.974277 L 13.036285 26.437832 L 2.999731 6.121699 L 25.289869 2.999297 L 104.473785 46.95168 L 183.811246 2.999297 L 206.108873 6.121699 L 196.068574 26.437832 L 131.81965 61.974277 L 196.068574 97.529375 L 206.108873 117.841777 L 183.811246 120.96418 L 104.634819 77.015527 L 25.289869 120.96418 L 2.999731 117.841777 L 13.036285 97.529375 L 77.288955 61.985469 Z M 77.288955 61.974277 " transform="matrix(1.043062,0,0,1.04712,0,0)"/>
</g>
</svg>
