<?xml version="1.0" encoding="UTF-8"?>
<svg xmlns="http://www.w3.org/2000/svg" xmlns:xlink="http://www.w3.org/1999/xlink" width="250px" height="200px" viewBox="0 0 227 200" version="1.1">
<g id="surface1">
<path style=" stroke:none;fill-rule:nonzero;fill:rgb(89.411765%,7.843137%,3.137255%);fill-opacity:1;" d="M 14.707031 200.425781 C 6.582031 200.425781 0 193.84375 0 185.71875 C 0 183.078125 0.699219 180.59375 1.914062 178.453125 L 100.660156 7.386719 C 103.195312 2.972656 107.957031 0 113.414062 0 C 118.867188 0 123.628906 2.972656 126.171875 7.386719 L 224.90625 178.457031 C 226.128906 180.597656 226.828125 183.078125 226.828125 185.71875 C 226.828125 193.84375 220.246094 200.429688 212.117188 200.429688 L 14.707031 200.429688 "/>
<path style=" stroke:none;fill-rule:nonzero;fill:rgb(100%,100%,100%);fill-opacity:1;" d="M 22.785156 181.121094 L 113.414062 24.140625 L 204.039062 181.121094 L 22.785156 181.121094 "/>
<path style=" stroke:none;fill-rule:nonzero;fill:rgb(10.980392%,11.372549%,12.54902%);fill-opacity:1;" d="M 163.960938 132.390625 L 159.367188 132.390625 L 162.121094 144.34375 L 155.6875 144.34375 L 148.339844 134.234375 L 110.65625 136.078125 L 110.65625 145.269531 L 119.847656 171.011719 L 111.578125 171.011719 L 90.433594 136.992188 L 69.296875 136.992188 C 61.027344 136.992188 59.191406 129.636719 59.191406 129.636719 C 59.191406 129.636719 61.027344 122.285156 69.296875 122.285156 L 90.433594 122.285156 L 111.578125 88.261719 L 119.847656 88.261719 L 110.65625 114.011719 L 110.65625 123.203125 L 148.339844 125.042969 L 155.6875 114.929688 L 162.121094 114.929688 L 159.367188 126.882812 L 163.960938 126.882812 L 163.960938 132.390625 "/>
</g>
</svg>
