<?xml version="1.0" encoding="UTF-8"?>
<svg xmlns="http://www.w3.org/2000/svg" xmlns:xlink="http://www.w3.org/1999/xlink" width="250px" height="200px" viewBox="0 0 227 200" version="1.1">
<g id="surface1">
<path style=" stroke:none;fill-rule:nonzero;fill:rgb(89.411765%,7.843137%,3.137255%);fill-opacity:1;" d="M 14.707031 200.433594 C 6.585938 200.433594 0 193.84375 0 185.726562 C 0 183.074219 0.699219 180.59375 1.921875 178.457031 L 100.660156 7.386719 C 103.195312 2.972656 107.960938 0 113.410156 0 C 118.867188 0 123.628906 2.972656 126.171875 7.386719 L 224.910156 178.457031 C 226.128906 180.597656 226.828125 183.074219 226.828125 185.726562 C 226.828125 193.84375 220.246094 200.433594 212.121094 200.433594 L 14.707031 200.433594 "/>
<path style=" stroke:none;fill-rule:nonzero;fill:rgb(100%,100%,100%);fill-opacity:1;" d="M 22.78125 181.125 L 113.410156 24.140625 L 204.046875 181.125 L 22.78125 181.125 "/>
<path style=" stroke:none;fill-rule:nonzero;fill:rgb(10.980392%,11.372549%,12.54902%);fill-opacity:1;" d="M 64.703125 170.097656 L 64.703125 136.996094 L 75.730469 136.996094 C 75.730469 136.996094 87.679688 152.625 113.410156 152.625 C 139.148438 152.625 151.09375 136.996094 151.09375 136.996094 L 162.125 136.996094 L 162.125 170.097656 L 64.703125 170.097656 "/>
</g>
</svg>
