<?xml version="1.0" encoding="UTF-8"?>
<svg xmlns="http://www.w3.org/2000/svg" xmlns:xlink="http://www.w3.org/1999/xlink" width="250px" height="200px" viewBox="0 0 201 200" version="1.1">
<g id="surface1">
<path style=" stroke:none;fill-rule:nonzero;fill:rgb(100%,100%,100%);fill-opacity:1;" d="M 199.070312 99.335938 C 199.074219 153.558594 155.1875 197.519531 101.042969 197.519531 C 46.902344 197.519531 3.011719 153.558594 3.015625 99.335938 C 3.011719 45.113281 46.902344 1.15625 101.042969 1.15625 C 155.1875 1.15625 199.074219 45.113281 199.070312 99.335938 Z M 199.070312 99.335938 "/>
<path style=" stroke:none;fill-rule:nonzero;fill:rgb(7.058824%,30.980392%,56.470588%);fill-opacity:1;" d="M 223.210938 223.496094 C 222.976562 223.261719 222.953125 222.65625 223.15625 222.148438 C 223.378906 221.585938 223.546875 221.753906 223.582031 222.574219 C 223.609375 223.316406 223.445312 223.730469 223.210938 223.496094 Z M 198.976562 105.808594 C 197.492188 128.890625 187.398438 150.945312 170.609375 167.777344 C 151.183594 187.253906 127.855469 196.945312 100.386719 196.945312 C 46.039062 196.945312 2.285156 153 2.285156 98.417969 C 2.285156 71.585938 12.113281 47.792969 31.066406 28.734375 C 49.9375 9.753906 73.550781 -0.117188 100.3125 -0.214844 C 116.421875 -0.273438 130.835938 3 144.273438 9.765625 C 180.738281 28.128906 201.613281 64.777344 198.976562 105.808594 Z M 196.359375 77.304688 C 189.324219 47.246094 170.289062 23.199219 143.175781 10.117188 C 129.777344 3.652344 120.03125 1.332031 104.0625 0.804688 C 94.859375 0.5 90.804688 0.675781 85.089844 1.628906 C 64.949219 4.984375 47.503906 13.828125 32.820312 28.140625 C 23.976562 36.757812 18.191406 44.753906 12.777344 55.839844 C 5.390625 70.976562 2.484375 85.242188 3.203125 102.878906 C 4.226562 128.019531 13.660156 149.34375 31.753906 167.40625 C 46.207031 181.839844 61.554688 190.1875 81.691406 194.5625 C 90.125 196.398438 111.164062 196.425781 119.636719 194.609375 C 138.75 190.523438 154.804688 181.988281 168.589844 168.597656 C 183.730469 153.882812 193.511719 135.59375 197.269531 114.957031 C 198.765625 106.75 198.25 85.367188 196.359375 77.304688 Z M 193.3125 105.105469 C 192.066406 126.039062 183.195312 146.265625 168.492188 161.691406 C 154.964844 175.878906 140.539062 184.34375 121.9375 189.007812 C 115.109375 190.722656 113.089844 190.910156 101.367188 190.933594 C 91.488281 190.957031 86.984375 190.664062 82.609375 189.71875 C 54.183594 183.570312 30.578125 165.449219 17.769531 139.941406 C 10.457031 125.375 8.246094 115.542969 8.285156 97.714844 C 8.308594 85.972656 8.5 83.949219 10.207031 77.113281 C 19.375 40.433594 48.527344 12.941406 85 6.570312 C 92.859375 5.199219 108.570312 5.21875 116.558594 6.609375 C 149.382812 12.332031 177.253906 35.957031 188.335938 67.453125 C 192.648438 79.714844 194.144531 91.042969 193.3125 105.105469 Z M 131.933594 83.640625 C 106.042969 83.640625 94.339844 83.40625 94.339844 82.898438 C 94.339844 82.488281 95.289062 78.179688 96.445312 73.320312 C 97.605469 68.460938 98.554688 63.449219 98.554688 62.183594 C 98.554688 59.414062 97.101562 58 94.960938 58.679688 C 92.433594 59.484375 32.851562 97.523438 32.851562 98.332031 C 32.851562 99.140625 90.390625 135.949219 94.222656 137.59375 C 99.15625 139.714844 99.617188 136.765625 96.445312 123.402344 C 95.289062 118.515625 94.339844 114.21875 94.339844 113.855469 C 94.339844 113.453125 109.042969 113.195312 131.933594 113.195312 L 169.527344 113.195312 L 169.527344 83.640625 Z M 131.933594 83.640625 "/>
</g>
</svg>
