<?xml version="1.0" encoding="UTF-8"?>
<svg xmlns="http://www.w3.org/2000/svg" xmlns:xlink="http://www.w3.org/1999/xlink" width="250px" height="200px" viewBox="0 0 201 200" version="1.1">
<g id="surface1">
<path style=" stroke:none;fill-rule:nonzero;fill:rgb(100%,100%,100%);fill-opacity:1;" d="M 199.070312 99.335938 C 199.074219 153.558594 155.1875 197.519531 101.042969 197.519531 C 46.902344 197.519531 3.011719 153.558594 3.015625 99.335938 C 3.011719 45.113281 46.902344 1.15625 101.042969 1.15625 C 155.1875 1.15625 199.074219 45.113281 199.070312 99.335938 Z M 199.070312 99.335938 "/>
<path style=" stroke:none;fill-rule:nonzero;fill:rgb(7.058824%,30.980392%,56.470588%);fill-opacity:1;" d="M -24.152344 222.117188 C -23.917969 221.882812 -23.3125 221.859375 -22.804688 222.0625 C -22.246094 222.285156 -22.410156 222.453125 -23.230469 222.488281 C -23.96875 222.519531 -24.386719 222.351562 -24.152344 222.117188 Z M 93.359375 197.847656 C 70.3125 196.359375 48.292969 186.25 31.484375 169.4375 C 12.035156 149.980469 2.359375 126.617188 2.359375 99.105469 C 2.359375 44.675781 46.238281 0.855469 100.738281 0.855469 C 127.53125 0.855469 151.289062 10.699219 170.320312 29.683594 C 189.269531 48.582031 199.125 72.230469 199.222656 99.03125 C 199.28125 115.164062 196.015625 129.601562 189.257812 143.058594 C 170.925781 179.582031 134.332031 200.484375 93.359375 197.847656 Z M 121.820312 195.226562 C 151.835938 188.179688 175.847656 169.113281 188.90625 141.960938 C 195.363281 128.542969 197.679688 118.78125 198.207031 102.789062 C 198.507812 93.574219 198.332031 89.511719 197.382812 83.789062 C 194.035156 63.613281 185.199219 46.148438 170.910156 31.4375 C 162.308594 22.582031 154.324219 16.785156 143.253906 11.367188 C 128.140625 3.964844 113.894531 1.058594 96.285156 1.777344 C 71.179688 2.804688 49.890625 12.25 31.851562 30.371094 C 17.441406 44.84375 9.109375 60.214844 4.738281 80.382812 C 2.90625 88.828125 2.878906 109.898438 4.691406 118.386719 C 8.773438 137.527344 17.292969 153.609375 30.664062 167.414062 C 45.355469 182.578125 63.621094 192.371094 84.226562 196.136719 C 92.421875 197.632812 113.769531 197.117188 121.820312 195.226562 Z M 94.0625 192.171875 C 73.160156 190.925781 52.964844 182.042969 37.5625 167.316406 C 23.394531 153.765625 14.941406 139.320312 10.285156 120.691406 C 8.574219 113.851562 8.386719 111.832031 8.363281 100.085938 C 8.339844 90.195312 8.632812 85.683594 9.578125 81.304688 C 15.714844 52.835938 33.808594 29.195312 59.28125 16.367188 C 73.824219 9.039062 83.640625 6.828125 101.441406 6.867188 C 113.167969 6.890625 115.183594 7.082031 122.011719 8.792969 C 158.636719 17.972656 186.085938 47.167969 192.449219 83.695312 C 193.820312 91.570312 193.800781 107.304688 192.410156 115.300781 C 186.695312 148.179688 163.109375 176.089844 131.660156 187.1875 C 119.414062 191.507812 108.101562 193.007812 94.0625 192.171875 Z M 115.496094 130.703125 C 115.496094 104.773438 115.726562 93.050781 116.238281 93.050781 C 116.644531 93.050781 120.949219 94 125.800781 95.160156 C 130.652344 96.324219 135.65625 97.273438 136.917969 97.273438 C 139.683594 97.273438 141.097656 95.820312 140.417969 93.671875 C 139.613281 91.140625 101.632812 31.472656 100.824219 31.472656 C 100.019531 31.472656 63.265625 89.09375 61.621094 92.9375 C 59.507812 97.875 62.449219 98.335938 75.792969 95.160156 C 80.671875 94 84.960938 93.050781 85.324219 93.050781 C 85.726562 93.050781 85.984375 107.777344 85.984375 130.703125 L 85.984375 168.351562 L 115.496094 168.351562 Z M 115.496094 130.703125 "/>
</g>
</svg>
