<?xml version="1.0" encoding="UTF-8"?>
<svg xmlns="http://www.w3.org/2000/svg" xmlns:xlink="http://www.w3.org/1999/xlink" width="250px" height="200px" viewBox="0 0 201 200" version="1.1">
<g id="surface1">
<path style=" stroke:none;fill-rule:nonzero;fill:rgb(100%,100%,100%);fill-opacity:1;" d="M 101.042969 197.511719 C 46.902344 197.515625 3.011719 153.558594 3.011719 99.335938 C 3.011719 45.113281 46.902344 1.15625 101.042969 1.160156 C 155.1875 1.15625 199.078125 45.113281 199.078125 99.335938 C 199.078125 153.558594 155.1875 197.515625 101.042969 197.511719 Z M 101.042969 197.511719 "/>
<path style=" stroke:none;fill-rule:nonzero;fill:rgb(7.058824%,30.980392%,56.470588%);fill-opacity:1;" d="M -20.964844 -24.316406 C -20.730469 -24.082031 -20.707031 -23.476562 -20.910156 -22.96875 C -21.132812 -22.40625 -21.300781 -22.570312 -21.332031 -23.390625 C -21.363281 -24.132812 -21.199219 -24.550781 -20.964844 -24.316406 Z M 3.269531 93.375 C 4.753906 70.292969 14.847656 48.238281 31.636719 31.40625 C 51.066406 11.925781 74.390625 2.238281 101.863281 2.238281 C 156.207031 2.238281 199.964844 46.179688 199.964844 100.761719 C 199.964844 127.59375 190.136719 151.390625 171.179688 170.449219 C 152.308594 189.425781 128.695312 199.296875 101.9375 199.394531 C 85.828125 199.453125 71.410156 196.183594 57.972656 189.417969 C 21.507812 171.054688 0.632812 134.40625 3.269531 93.375 Z M 5.886719 121.875 C 12.921875 151.9375 31.957031 175.984375 59.070312 189.066406 C 72.46875 195.53125 82.214844 197.851562 98.183594 198.375 C 107.386719 198.679688 111.441406 198.503906 117.15625 197.554688 C 137.300781 194.199219 154.742188 185.351562 169.429688 171.042969 C 178.269531 162.425781 184.058594 154.425781 189.46875 143.339844 C 196.859375 128.207031 199.761719 113.9375 199.042969 96.300781 C 198.019531 71.160156 188.585938 49.839844 170.496094 31.773438 C 156.039062 17.339844 140.691406 8.996094 120.558594 4.617188 C 112.125 2.785156 91.085938 2.757812 82.613281 4.570312 C 63.496094 8.660156 47.441406 17.191406 33.660156 30.585938 C 18.515625 45.296875 8.738281 63.589844 4.976562 84.226562 C 3.484375 92.433594 4 113.8125 5.886719 121.875 Z M 8.9375 94.078125 C 10.179688 73.144531 19.050781 52.914062 33.753906 37.492188 C 47.28125 23.300781 61.707031 14.835938 80.3125 10.171875 C 87.140625 8.460938 89.15625 8.269531 100.882812 8.246094 C 110.761719 8.226562 115.265625 8.515625 119.636719 9.464844 C 148.0625 15.609375 171.667969 33.730469 184.476562 59.242188 C 191.792969 73.808594 194 83.640625 193.960938 101.46875 C 193.9375 113.210938 193.75 115.230469 192.039062 122.070312 C 182.871094 158.746094 153.722656 186.242188 117.246094 192.609375 C 109.386719 193.984375 93.675781 193.964844 85.691406 192.574219 C 52.863281 186.851562 24.992188 163.226562 13.910156 131.730469 C 9.597656 119.46875 8.101562 108.136719 8.9375 94.078125 Z M 70.3125 115.542969 C 96.203125 115.542969 107.910156 115.773438 107.910156 116.285156 C 107.910156 116.691406 106.960938 121.003906 105.800781 125.859375 C 104.640625 130.71875 103.691406 135.730469 103.691406 136.996094 C 103.691406 139.765625 105.144531 141.179688 107.289062 140.5 C 109.816406 139.695312 169.394531 101.660156 169.394531 100.847656 C 169.394531 100.042969 111.859375 63.234375 108.023438 61.585938 C 103.09375 59.46875 102.628906 62.414062 105.800781 75.78125 C 106.960938 80.667969 107.910156 84.964844 107.910156 85.324219 C 107.910156 85.726562 93.203125 85.984375 70.3125 85.984375 L 32.71875 85.984375 L 32.71875 115.542969 Z M 70.3125 115.542969 "/>
</g>
</svg>
