<?xml version="1.0" encoding="UTF-8"?>
<svg xmlns="http://www.w3.org/2000/svg" xmlns:xlink="http://www.w3.org/1999/xlink" width="250px" height="200px" viewBox="0 0 201 200" version="1.1">
<g id="surface1">
<path style="fill-rule:nonzero;fill:rgb(100%,100%,100%);fill-opacity:1;stroke-width:1;stroke-linecap:round;stroke-linejoin:round;stroke:rgb(0%,0%,100%);stroke-opacity:1;stroke-miterlimit:4;" d="M 750.631457 338.734289 C 750.631457 501.703546 618.519708 633.816318 455.552061 633.816318 C 292.584414 633.816318 160.472665 501.703546 160.472665 338.734289 C 160.472665 175.765033 292.584414 43.65226 455.552061 43.65226 C 618.519708 43.65226 750.631457 175.765033 750.631457 338.734289 Z M 750.631457 338.734289 " transform="matrix(0.33181,0,0,0.33231,-51.011985,-12.021691)"/>
<path style=" stroke:none;fill-rule:nonzero;fill:rgb(87.843137%,45.882353%,10.196078%);fill-opacity:1;" d="M -0.417969 199.5625 C -0.199219 199.34375 0.371094 199.320312 0.84375 199.511719 C 1.371094 199.722656 1.214844 199.878906 0.445312 199.910156 C -0.246094 199.9375 -0.636719 199.78125 -0.417969 199.5625 Z M 90.695312 199.238281 C 74.101562 197.484375 58.035156 191.5625 44.046875 182.042969 C 36.222656 176.71875 24.683594 165.15625 19.285156 157.226562 C 9.773438 143.261719 3.40625 125.859375 2.273438 110.714844 C 1.789062 104.25 3.035156 96.503906 2.960938 101.925781 C 2.933594 103.851562 3.285156 100.960938 2.992188 102.59375 C 2.664062 104.4375 2.3125 111.414062 2.3125 100.957031 C 2.3125 90.5 2.664062 97.628906 2.992188 99.472656 C 3.285156 101.105469 2.9375 99.191406 2.96875 101.007812 C 3.054688 105.84375 2.015625 99.050781 2.027344 94.328125 C 2.039062 90.164062 3.535156 80.753906 5.054688 75.277344 C 20.296875 20.398438 77.097656 -10.175781 131.148438 7.402344 C 162.257812 17.523438 187.070312 43.949219 195.40625 75.84375 C 196.9375 81.707031 197.019531 82.980469 197.019531 100.972656 C 197.019531 117.679688 196.863281 120.53125 195.71875 125.015625 C 185.246094 166.03125 150.996094 195.171875 108.421875 199.289062 C 100.902344 200.019531 98.015625 200.007812 90.695312 199.238281 Z M 120.691406 195.441406 C 158.480469 186.648438 186.519531 158.15625 194.800781 120.136719 C 196.550781 112.101562 196.550781 89.910156 194.800781 81.875 C 192.886719 73.082031 189.980469 65.039062 185.730469 56.765625 C 172.445312 30.917969 148.398438 12.640625 119.253906 6.246094 C 111.28125 4.496094 89.09375 4.496094 81.121094 6.246094 C 72.203125 8.203125 66.183594 10.367188 57.042969 14.90625 C 30.652344 28.011719 12.027344 52.242188 5.574219 81.875 C 3.824219 89.910156 3.824219 112.101562 5.574219 120.136719 C 11.972656 149.515625 30.335938 173.585938 56.566406 186.980469 C 66.46875 192.039062 76.324219 195.152344 88 196.910156 C 89.089844 197.074219 95.609375 197.105469 102.492188 196.984375 C 112.070312 196.8125 116.34375 196.453125 120.691406 195.441406 Z M 92.425781 192.609375 C 71.558594 191.148438 50.671875 181.425781 35.28125 166.011719 C 16.085938 146.789062 6.5 120.738281 8.683594 93.75 C 11.589844 57.835938 34.917969 26.960938 68.464844 14.628906 C 91.9375 6.003906 119.265625 7.5625 141.550781 18.800781 C 163 29.621094 179.992188 49.40625 187.472656 72.277344 C 190.164062 80.503906 190.996094 84.769531 191.730469 94.148438 C 193.816406 120.683594 184.054688 147.007812 165.113281 165.953125 C 145.714844 185.347656 120.539062 194.582031 92.425781 192.609375 Z M 86.066406 144.40625 C 93.492188 142.335938 106.175781 142.335938 113.800781 144.40625 C 120.710938 146.28125 123.75 146.242188 131.632812 144.191406 C 135.171875 143.269531 140.804688 142.332031 144.15625 142.113281 L 150.25 141.707031 L 150.25 135.96875 L 146.054688 135.96875 C 141.3125 135.96875 131.574219 137.53125 127.335938 138.96875 C 123.484375 140.277344 120.441406 140.175781 115.007812 138.554688 C 108.636719 136.652344 96.230469 136.140625 89.976562 137.519531 C 87.441406 138.082031 83.660156 138.914062 81.578125 139.371094 C 78.484375 140.046875 77.210938 140.039062 74.660156 139.324219 C 67.726562 137.382812 63.3125 136.609375 56.875 136.199219 L 50.125 135.773438 L 50.125 141.90625 L 53.253906 141.914062 C 57.320312 141.917969 67.425781 143.539062 71.203125 144.792969 C 75.445312 146.203125 80.066406 146.082031 86.066406 144.40625 Z M 87.5 136.472656 C 94.535156 134.445312 105.566406 134.460938 112.875 136.515625 C 119.476562 138.367188 123.558594 138.324219 131.917969 136.308594 C 135.660156 135.410156 141.242188 134.445312 144.320312 134.167969 L 149.921875 133.660156 L 150.128906 130.753906 L 150.335938 127.851562 L 143.871094 128.289062 C 140.316406 128.53125 135.476562 129.15625 133.125 129.675781 C 120.367188 132.5 121.855469 132.417969 114.859375 130.660156 C 105.894531 128.40625 94.535156 128.382812 85.875 130.597656 C 79.238281 132.296875 77.945312 132.261719 68.898438 130.128906 C 65.636719 129.363281 60.0625 128.535156 56.503906 128.292969 L 50.039062 127.851562 L 50.246094 130.734375 L 50.453125 133.621094 L 57.699219 134.449219 C 61.6875 134.902344 67.019531 135.835938 69.558594 136.523438 C 75.980469 138.261719 81.355469 138.246094 87.5 136.472656 Z M 66.636719 127.371094 C 67.335938 126.996094 67.910156 126.140625 67.910156 125.472656 C 67.910156 124.804688 68.355469 123.886719 68.898438 123.4375 C 69.441406 122.984375 69.886719 121.910156 69.886719 121.046875 L 69.886719 119.476562 L 81.820312 119.476562 C 91.414062 119.476562 94.375 119.699219 96.929688 120.609375 C 99.933594 121.675781 100.242188 121.675781 102.476562 120.609375 C 104.449219 119.667969 106.882812 119.476562 117.027344 119.476562 C 128.046875 119.476562 129.25 119.585938 129.59375 120.632812 C 130.664062 123.882812 132.566406 127.402344 133.292969 127.472656 C 136.320312 127.761719 137.050781 126.828125 137.066406 122.648438 C 137.070312 120.949219 137.371094 119.371094 137.734375 119.148438 C 138.574219 118.628906 138.601562 114.859375 137.765625 114.859375 C 137.421875 114.859375 137.050781 113.183594 136.945312 111.132812 C 136.722656 106.980469 135.398438 105.355469 133.3125 106.671875 C 131.917969 107.554688 130.015625 110.886719 129.722656 112.96875 L 129.5 114.53125 L 117.117188 114.710938 C 106.886719 114.859375 104.484375 114.714844 103.300781 113.882812 C 101.484375 112.609375 97.53125 112.589844 95.867188 113.847656 C 94.851562 114.617188 92.054688 114.820312 82.238281 114.839844 C 70.753906 114.859375 69.886719 114.777344 69.886719 113.667969 C 69.886719 113.011719 69.453125 111.898438 68.917969 111.191406 C 68.386719 110.488281 67.941406 109.382812 67.929688 108.734375 C 67.90625 107.269531 65.351562 106.226562 63.792969 107.042969 C 62.9375 107.492188 62.640625 108.472656 62.640625 110.84375 C 62.640625 112.878906 62.28125 114.335938 61.652344 114.859375 C 61.109375 115.3125 60.664062 116.351562 60.664062 117.167969 C 60.664062 117.988281 61.109375 119.027344 61.652344 119.476562 C 62.28125 120 62.640625 121.457031 62.640625 123.484375 C 62.640625 125.820312 62.949219 126.847656 63.792969 127.339844 C 65.238281 128.183594 65.121094 128.183594 66.636719 127.371094 Z M 66.636719 127.371094 "/>
<path style=" stroke:none;fill-rule:nonzero;fill:rgb(3.529412%,17.647059%,47.058824%);fill-opacity:1;" d="M 92.941406 199.226562 C 75.4375 198.019531 57.757812 191.679688 43.210938 181.394531 C 35.871094 176.203125 25.355469 165.746094 20.277344 158.589844 C 9.847656 143.886719 3.175781 125.46875 2.214844 108.734375 C 1.785156 101.265625 1.660156 97.332031 1.585938 103.941406 C 1.5625 106.410156 2.519531 100.148438 2.230469 101.78125 C 1.902344 103.640625 1.550781 112.914062 1.550781 102.789062 C 1.550781 92.664062 1.289062 101.328125 1.621094 103.1875 C 1.910156 104.820312 1.714844 100.519531 1.738281 103.152344 C 1.765625 105.78125 1.128906 103.046875 1.4375 103.046875 C 1.746094 103.046875 2.011719 96.792969 2.214844 93.253906 C 3.175781 76.53125 9.882812 58.035156 20.277344 43.445312 C 25.238281 36.484375 35.859375 25.828125 42.640625 21.007812 C 61.570312 7.554688 83.859375 1.257812 107.105469 2.796875 C 125.003906 3.980469 142.773438 10.367188 157.683594 20.976562 C 164.574219 25.875 175.1875 36.5 180.066406 43.375 C 187.089844 53.28125 192.210938 64.246094 195.425781 76.265625 C 196.929688 81.882812 198.09375 83.214844 198.09375 101.003906 C 198.09375 118.796875 196.929688 120.125 195.425781 125.746094 C 192.210938 137.765625 187.089844 148.730469 180.066406 158.636719 C 175.1875 165.507812 164.574219 176.132812 157.683594 181.035156 C 143.425781 191.179688 124.851562 198.0625 109.128906 199.027344 C 106.203125 199.207031 102.921875 199.433594 101.835938 199.527344 C 100.746094 199.625 96.746094 199.488281 92.941406 199.226562 Z M 119.949219 195.691406 C 158.007812 187.210938 186.703125 158.261719 194.835938 120.136719 C 195.769531 115.753906 196.03125 111.574219 196.03125 101.003906 C 196.03125 90.4375 195.769531 86.257812 194.835938 81.875 C 188.988281 54.464844 172.222656 31.25 148.023438 17.070312 C 141.257812 13.105469 130.433594 8.871094 121.824219 6.824219 C 114.960938 5.195312 113.21875 5.046875 100.515625 5.03125 C 89.601562 5.019531 85.503906 5.269531 81.085938 6.214844 C 38.167969 15.398438 6.9375 51.042969 4.101562 94.078125 C 0.796875 144.199219 34.890625 187.671875 84.328125 196.382812 C 91.28125 197.609375 113.257812 197.179688 119.949219 195.691406 Z M 92.425781 192.609375 C 71.558594 191.148438 50.671875 181.425781 35.28125 166.011719 C 16.085938 146.789062 6.5 120.738281 8.683594 93.75 C 11.589844 57.835938 34.917969 26.960938 68.464844 14.628906 C 91.9375 6.003906 119.265625 7.5625 141.550781 18.800781 C 163 29.621094 179.992188 49.40625 187.472656 72.277344 C 190.164062 80.503906 190.996094 84.769531 191.730469 94.148438 C 193.816406 120.683594 184.054688 147.007812 165.113281 165.953125 C 145.714844 185.347656 120.539062 194.582031 92.425781 192.609375 Z M 86.066406 144.40625 C 93.492188 142.335938 106.175781 142.335938 113.800781 144.40625 C 120.710938 146.28125 123.75 146.242188 131.632812 144.191406 C 135.171875 143.269531 140.804688 142.332031 144.15625 142.113281 L 150.25 141.707031 L 150.25 135.96875 L 146.054688 135.96875 C 141.3125 135.96875 131.574219 137.53125 127.335938 138.96875 C 123.484375 140.277344 120.441406 140.175781 115.007812 138.554688 C 108.636719 136.652344 96.230469 136.140625 89.976562 137.519531 C 87.441406 138.082031 83.660156 138.914062 81.578125 139.371094 C 78.484375 140.046875 77.210938 140.039062 74.660156 139.324219 C 67.726562 137.382812 63.3125 136.609375 56.875 136.199219 L 50.125 135.773438 L 50.125 141.90625 L 53.253906 141.914062 C 57.320312 141.917969 67.425781 143.539062 71.203125 144.792969 C 75.445312 146.203125 80.066406 146.082031 86.066406 144.40625 Z M 87.5 136.472656 C 94.535156 134.445312 105.566406 134.460938 112.875 136.515625 C 119.476562 138.367188 123.558594 138.324219 131.917969 136.308594 C 135.660156 135.410156 141.242188 134.445312 144.320312 134.167969 L 149.921875 133.660156 L 150.128906 130.753906 L 150.335938 127.851562 L 143.871094 128.289062 C 140.316406 128.53125 135.476562 129.15625 133.125 129.675781 C 120.367188 132.5 121.855469 132.417969 114.859375 130.660156 C 105.894531 128.40625 94.535156 128.382812 85.875 130.597656 C 79.238281 132.296875 77.945312 132.261719 68.898438 130.128906 C 65.636719 129.363281 60.0625 128.535156 56.503906 128.292969 L 50.039062 127.851562 L 50.246094 130.734375 L 50.453125 133.621094 L 57.699219 134.449219 C 61.6875 134.902344 67.019531 135.835938 69.558594 136.523438 C 75.980469 138.261719 81.355469 138.246094 87.5 136.472656 Z M 66.636719 127.371094 C 67.335938 126.996094 67.910156 126.140625 67.910156 125.472656 C 67.910156 124.804688 68.355469 123.886719 68.898438 123.4375 C 69.441406 122.984375 69.886719 121.910156 69.886719 121.046875 L 69.886719 119.476562 L 81.820312 119.476562 C 91.414062 119.476562 94.375 119.699219 96.929688 120.609375 C 99.933594 121.675781 100.242188 121.675781 102.476562 120.609375 C 104.449219 119.667969 106.882812 119.476562 117.027344 119.476562 C 128.046875 119.476562 129.25 119.585938 129.59375 120.632812 C 130.664062 123.882812 132.566406 127.402344 133.292969 127.472656 C 136.320312 127.761719 137.050781 126.828125 137.066406 122.648438 C 137.070312 120.949219 137.371094 119.371094 137.734375 119.148438 C 138.574219 118.628906 138.601562 114.859375 137.765625 114.859375 C 137.421875 114.859375 137.050781 113.183594 136.945312 111.132812 C 136.722656 106.980469 135.398438 105.355469 133.3125 106.671875 C 131.917969 107.554688 130.015625 110.886719 129.722656 112.96875 L 129.5 114.53125 L 117.117188 114.710938 C 106.886719 114.859375 104.484375 114.714844 103.300781 113.882812 C 101.484375 112.609375 97.53125 112.589844 95.867188 113.847656 C 94.851562 114.617188 92.054688 114.820312 82.238281 114.839844 C 70.753906 114.859375 69.886719 114.777344 69.886719 113.667969 C 69.886719 113.011719 69.453125 111.898438 68.917969 111.191406 C 68.386719 110.488281 67.941406 109.382812 67.929688 108.734375 C 67.90625 107.269531 65.351562 106.226562 63.792969 107.042969 C 62.9375 107.492188 62.640625 108.472656 62.640625 110.84375 C 62.640625 112.878906 62.28125 114.335938 61.652344 114.859375 C 61.109375 115.3125 60.664062 116.351562 60.664062 117.167969 C 60.664062 117.988281 61.109375 119.027344 61.652344 119.476562 C 62.28125 120 62.640625 121.457031 62.640625 123.484375 C 62.640625 125.820312 62.949219 126.847656 63.792969 127.339844 C 65.238281 128.183594 65.121094 128.183594 66.636719 127.371094 Z M 142.621094 103.242188 C 144.105469 102.671875 144.105469 96.039062 142.621094 95.46875 C 142.046875 95.25 139.316406 95.066406 136.550781 95.066406 L 131.519531 95.066406 L 134.695312 91.933594 C 139.160156 87.527344 140.003906 85.675781 140.023438 80.226562 C 140.042969 74.5 138.828125 72.195312 133.527344 67.917969 C 117.164062 54.714844 94.828125 52.53125 75.484375 62.246094 C 62.882812 68.574219 57.996094 75.453125 60.035156 83.992188 C 60.722656 86.863281 61.550781 88.152344 64.710938 91.25 L 68.550781 95.015625 L 57.042969 95.398438 L 56.835938 98.613281 C 56.726562 100.382812 56.789062 102.238281 56.980469 102.734375 C 57.273438 103.496094 64.289062 103.644531 99.453125 103.644531 C 122.621094 103.644531 142.046875 103.464844 142.621094 103.242188 Z M 142.621094 103.242188 "/>
</g>
</svg>
