<?xml version="1.0" encoding="UTF-8"?>
<svg xmlns="http://www.w3.org/2000/svg" xmlns:xlink="http://www.w3.org/1999/xlink" width="250px" height="200px" viewBox="0 0 200 200" version="1.1">
<g id="surface1">
<path style=" stroke:none;fill-rule:nonzero;fill:rgb(0%,0%,0%);fill-opacity:1;" d="M 141.460938 200.039062 L 200.039062 141.460938 L 200.039062 58.617188 L 141.460938 0.0390625 L 58.617188 0.0390625 L 0.0390625 58.617188 L 0.0390625 141.460938 L 58.617188 200.039062 Z M 141.460938 200.039062 "/>
<path style=" stroke:none;fill-rule:nonzero;fill:rgb(100%,100%,100%);fill-opacity:1;" d="M 141.050781 199.050781 L 199.050781 141.050781 L 199.050781 59.027344 L 141.050781 1.03125 L 59.027344 1.03125 L 1.03125 59.027344 L 1.03125 141.050781 L 59.027344 199.050781 Z M 141.050781 199.050781 "/>
<path style=" stroke:none;fill-rule:nonzero;fill:rgb(89.411765%,7.843137%,3.137255%);fill-opacity:1;" d="M 61.324219 193.503906 L 6.574219 138.753906 L 6.574219 61.324219 L 61.324219 6.574219 L 138.753906 6.574219 L 193.503906 61.324219 L 193.503906 138.753906 L 138.753906 193.503906 Z M 61.324219 193.503906 "/>
<path style=" stroke:none;fill-rule:nonzero;fill:rgb(100%,100%,100%);fill-opacity:1;" d="M 57.421875 84.855469 L 50.074219 90.824219 C 48.65625 89.640625 46.964844 88.691406 44.996094 87.976562 C 42.902344 87.234375 40.925781 86.875 39.023438 86.875 C 37.574219 86.875 36.414062 87.171875 35.53125 87.789062 C 34.53125 88.460938 34.035156 89.324219 34.035156 90.371094 C 34.035156 91.828125 35.25 92.839844 37.664062 93.40625 L 42.589844 94.542969 C 46.945312 95.554688 50.367188 97.183594 52.847656 99.433594 C 55.558594 101.917969 56.917969 105.050781 56.917969 108.851562 C 56.917969 113.035156 55.203125 116.386719 51.773438 118.917969 C 48.542969 121.28125 44.507812 122.453125 39.679688 122.453125 C 35.109375 122.453125 30.820312 121.453125 26.839844 119.460938 C 23.5 117.792969 20.765625 115.667969 18.640625 113.070312 L 27.21875 106.789062 C 28.035156 108.019531 29.035156 109.019531 30.195312 109.796875 C 33.113281 111.773438 36.375 112.769531 39.960938 112.769531 C 41.925781 112.769531 43.367188 112.316406 44.292969 111.410156 C 45.085938 110.660156 45.484375 109.785156 45.484375 108.792969 C 45.484375 107.652344 44.929688 106.734375 43.824219 106.046875 C 43.160156 105.625 42.140625 105.242188 40.730469 104.875 L 34.792969 103.332031 C 31.71875 102.527344 29.433594 101.65625 27.921875 100.703125 C 26.191406 99.613281 24.835938 98.121094 23.851562 96.222656 C 22.898438 94.460938 22.425781 92.527344 22.425781 90.449219 C 22.425781 87.472656 23.351562 84.875 25.207031 82.644531 C 27.957031 79.300781 32.277344 77.628906 38.179688 77.628906 C 45.417969 77.625 51.824219 80.039062 57.421875 84.855469 Z M 57.421875 84.855469 "/>
<path style=" stroke:none;fill-rule:nonzero;fill:rgb(100%,100%,100%);fill-opacity:1;" d="M 62.09375 78.300781 L 96.996094 78.300781 L 96.996094 87.355469 L 84.496094 87.355469 L 84.496094 121.378906 L 74.585938 121.378906 L 74.585938 87.355469 L 62.09375 87.355469 Z M 62.09375 78.300781 "/>
<path style=" stroke:none;fill-rule:nonzero;fill:rgb(100%,100%,100%);fill-opacity:1;" d="M 177.304688 82.558594 C 174.453125 79.71875 170.714844 78.300781 166.101562 78.300781 L 148.027344 78.300781 L 148.027344 121.378906 L 158.152344 121.378906 L 158.152344 106.734375 L 166.578125 106.734375 C 171.105469 106.734375 174.710938 105.367188 177.40625 102.632812 C 180.09375 99.855469 181.441406 96.480469 181.441406 92.5 C 181.441406 88.605469 180.0625 85.285156 177.304688 82.558594 Z M 170.058594 96.125 C 169.089844 97.445312 167.8125 98.117188 166.234375 98.117188 L 158.152344 98.117188 L 158.152344 86.914062 L 166.234375 86.914062 C 167.8125 86.914062 169.089844 87.578125 170.058594 88.902344 C 170.835938 89.929688 171.21875 91.144531 171.21875 92.527344 C 171.21875 93.894531 170.835938 95.101562 170.058594 96.125 Z M 170.058594 96.125 "/>
<path style=" stroke:none;fill-rule:nonzero;fill:rgb(100%,100%,100%);fill-opacity:1;" d="M 133.214844 80.71875 C 129.800781 78.660156 125.984375 77.625 121.75 77.625 C 115.417969 77.625 110.238281 79.824219 106.195312 84.222656 C 102.53125 88.207031 100.707031 93.472656 100.707031 100.035156 C 100.707031 103.515625 101.253906 106.671875 102.339844 109.511719 C 103.96875 113.761719 106.660156 117.046875 110.421875 119.359375 C 113.8125 121.421875 117.605469 122.453125 121.820312 122.453125 C 124.6875 122.453125 127.382812 121.957031 129.929688 120.96875 C 132.890625 119.832031 135.402344 118.132812 137.429688 115.855469 C 141.105469 111.804688 142.933594 106.640625 142.933594 100.328125 C 142.933594 91.214844 139.691406 84.675781 133.214844 80.71875 Z M 129.644531 108.78125 C 127.648438 111.289062 125.03125 112.542969 121.820312 112.542969 C 118.621094 112.542969 116.023438 111.289062 114.019531 108.78125 C 112.320312 106.660156 111.46875 103.738281 111.46875 100.035156 C 111.46875 96.34375 112.320312 93.417969 114.019531 91.296875 C 116.023438 88.789062 118.605469 87.535156 121.789062 87.535156 C 124.984375 87.535156 127.605469 88.789062 129.644531 91.296875 C 131.328125 93.375 132.167969 96.363281 132.167969 100.230469 C 132.167969 103.804688 131.328125 106.660156 129.644531 108.78125 Z M 129.644531 108.78125 "/>
</g>
</svg>
